<?xml version="1.0" encoding="UTF-8" standalone="no"?>
<svg
   xmlns:dc="http://purl.org/dc/elements/1.1/"
   xmlns:cc="http://creativecommons.org/ns#"
   xmlns:rdf="http://www.w3.org/1999/02/22-rdf-syntax-ns#"
   xmlns:svg="http://www.w3.org/2000/svg"
   xmlns="http://www.w3.org/2000/svg"
   xmlns:sodipodi="http://sodipodi.sourceforge.net/DTD/sodipodi-0.dtd"
   xmlns:inkscape="http://www.inkscape.org/namespaces/inkscape"
   sodipodi:docname="fixtures.svg"
   inkscape:version="1.0 (4035a4f, 2020-05-01)"
   id="svg8"
   version="1.1"
   viewBox="0 0 290 150"
   height="150mm"
   width="290mm">
  <defs
     id="defs2" />
  <sodipodi:namedview
     inkscape:window-maximized="0"
     inkscape:window-y="0"
     inkscape:window-x="0"
     inkscape:window-height="1080"
     inkscape:window-width="1920"
     inkscape:snap-global="false"
     inkscape:guide-bbox="true"
     showguides="true"
     showgrid="false"
     inkscape:document-rotation="0"
     inkscape:current-layer="layer2"
     inkscape:document-units="mm"
     inkscape:cy="470.48854"
     inkscape:cx="502.09082"
     inkscape:zoom="0.50849078"
     inkscape:pageshadow="2"
     inkscape:pageopacity="0.0"
     borderopacity="1.0"
     bordercolor="#666666"
     pagecolor="#ffffff"
     id="base" />
  <metadata
     id="metadata5">
    <rdf:RDF>
      <cc:Work
         rdf:about="">
        <dc:format>image/svg+xml</dc:format>
        <dc:type
           rdf:resource="http://purl.org/dc/dcmitype/StillImage" />
        <dc:title></dc:title>
      </cc:Work>
    </rdf:RDF>
  </metadata>
  <g
     style="display:none"
     sodipodi:insensitive="true"
     id="layer1"
     inkscape:groupmode="layer"
     inkscape:label="Layer 1">
    <path
       sodipodi:nodetypes="cccccccccccc"
       d="M 107.7363,143.9908 H 6.8590647 v -6.92592 h 2.0540404 v -20 H 6.8590647 v -5.9023 l 2.0540404,0.002 V 91.079078 l -2.0540404,5e-6 v -7.252739 z"
       style="fill:none;stroke:#ff0000;stroke-width:0.264999"
       id="rect32" />
  </g>
  <g
     inkscape:label="Cutting"
     id="layer2"
     inkscape:groupmode="layer">
    <path
       sodipodi:nodetypes="ccccccccccccccccccccccccccc"
       id="rect32-9"
       d="M 25.47625,96.508836 5.4696323,84.576302 C 5.2999759,84.475458 5.1042211,84.427199 4.9071323,84.43763 4.3765239,84.46448 3.9600349,84.902437 3.9598667,85.433724 v 7.253906 c -2.003e-4,0.551289 -0.028622,0.998247 0.5226668,0.998047 h 1.5320207 v 18.089843 l -1.5824398,-0.002 c -0.5512902,-2e-4 -0.4724496,0.44676 -0.4722477,0.99805 v 5.90234 c -2.019e-4,0.55129 -0.057434,0.99825 0.4938559,0.99805 h 1.5608316 v 18.00391 h -1.575237 c -0.5512863,-2e-4 -0.4796469,0.44675 -0.4794505,0.99804 v 6.92579 c -1.964e-4,0.55129 0.4467606,0.99824 0.9980469,0.99804 H 17.723418 m 3.736605,0 h 56.12479 m 3.874286,0 h 24.375761 c 1.0154,0.002 1.38474,-1.33694 0.51172,-1.85547 L 83.775338,131.28012 M 81.385172,129.85456 28.160463,98.109779"
       style="fill:none;stroke:#ff0000;stroke-width:0.264999" />
    <path
       style="fill:none;stroke:#ff0000;stroke-width:0.264999"
       d="m 101.74391,134.72988 20.06307,11.83738 c 0.17013,0.10005 0.36611,0.14738 0.56315,0.13601 0.53047,-0.0293 0.94488,-0.4693 0.94252,-1.00059 l -0.0344,-7.25382 c -0.002,-0.55128 0.0239,-0.99837 -0.5274,-0.99555 l -1.532,0.007 -0.0859,-18.08964 1.58243,-0.006 c 0.55128,-0.002 0.47032,-0.44898 0.4675,-1.00026 l -0.028,-5.90227 c -0.002,-0.55129 0.0527,-0.99851 -0.49859,-0.9957 l -1.56081,0.007 -0.0855,-18.003708 1.57522,-0.007 c 0.55128,-0.002 0.47752,-0.44902 0.4747,-1.00031 l -0.0329,-6.92571 c -0.002,-0.55128 -0.45149,-0.99611 -1.00277,-0.99329 l -12.76536,0.0606 m -3.73657,0.0177 -56.124149,0.26655 m -3.874246,0.0184 -24.375495,0.11577 c -1.015398,0.003 -1.378375,1.3435 -0.502902,1.85788 l 22.63493,13.354898 m 2.396913,1.4142 53.374869,31.49153"
       id="rect32-9-8"
       sodipodi:nodetypes="ccccccccccccccccccccccccccc" />
  </g>
</svg>
