<?xml version="1.0" encoding="UTF-8" standalone="no"?>
<svg
   xmlns:dc="http://purl.org/dc/elements/1.1/"
   xmlns:cc="http://creativecommons.org/ns#"
   xmlns:rdf="http://www.w3.org/1999/02/22-rdf-syntax-ns#"
   xmlns:svg="http://www.w3.org/2000/svg"
   xmlns="http://www.w3.org/2000/svg"
   xmlns:sodipodi="http://sodipodi.sourceforge.net/DTD/sodipodi-0.dtd"
   xmlns:inkscape="http://www.inkscape.org/namespaces/inkscape"
   sodipodi:docname="battery tray.svg"
   inkscape:version="1.0 (4035a4fb49, 2020-05-01)"
   width="290mm"
   height="100mm"
   viewBox="0 0 290 100"
   version="1.1"
   id="svg1028">
  <defs
     id="defs1022">
    <marker
       id="CheckToolsAndOPMarker"
       orient="auto"
       refX="-4"
       refY="-1.687441"
       style="overflow:visible">
      <path
         d="m 4.588864,-1.687441 0.0,0.0 L 9.177728,0.0 c -0.73311,-0.996261 -0.728882,-2.359329 0.0,-3.374882"
         style="fill:#000044;fill-rule:evenodd;stroke:none"
         id="path309" />
    </marker>
    <marker
       id="DrawCurveMarker"
       orient="auto"
       refX="-4"
       refY="-1.687441"
       style="overflow:visible">
      <path
         d="m 4.588864,-1.687441 0.0,0.0 L 9.177728,0.0 c -0.73311,-0.996261 -0.728882,-2.359329 0.0,-3.374882"
         style="fill:#000044;fill-rule:evenodd;stroke:none"
         id="path312" />
    </marker>
    <marker
       id="DrawCurveMarker_r"
       orient="auto"
       refX="4"
       refY="-1.687441"
       style="overflow:visible">
      <path
         d="m -4.588864,-1.687441 0.0,0.0 L -9.177728,0.0 c 0.73311,-0.996261 0.728882,-2.359329 0.0,-3.374882"
         style="fill:#000044;fill-rule:evenodd;stroke:none"
         id="path315" />
    </marker>
    <marker
       id="InOutPathMarker"
       orient="auto"
       refX="-4"
       refY="-1.687441"
       style="overflow:visible">
      <path
         d="m 4.588864,-1.687441 0.0,0.0 L 9.177728,0.0 c -0.73311,-0.996261 -0.728882,-2.359329 0.0,-3.374882"
         style="fill:#0072a7;fill-rule:evenodd;stroke:none"
         id="path318" />
    </marker>
  </defs>
  <sodipodi:namedview
     id="base"
     pagecolor="#ffffff"
     bordercolor="#666666"
     borderopacity="1.0"
     inkscape:pageopacity="0.0"
     inkscape:pageshadow="2"
     inkscape:zoom="0.7"
     inkscape:cx="-5.7063047"
     inkscape:cy="126.33529"
     inkscape:document-units="mm"
     inkscape:current-layer="layer1"
     inkscape:document-rotation="0"
     showgrid="false"
     inkscape:window-width="1274"
     inkscape:window-height="696"
     inkscape:window-x="68"
     inkscape:window-y="0"
     inkscape:window-maximized="0" />
  <metadata
     id="metadata1025">
    <rdf:RDF>
      <cc:Work
         rdf:about="">
        <dc:format>image/svg+xml</dc:format>
        <dc:type
           rdf:resource="http://purl.org/dc/dcmitype/StillImage" />
        <dc:title></dc:title>
      </cc:Work>
    </rdf:RDF>
  </metadata>
  <g
     sodipodi:insensitive="true"
     style="display:inline"
     inkscape:label="Layer 1"
     inkscape:groupmode="layer"
     id="layer1">
    <path
       sodipodi:nodetypes="cccccccccccccccccccccccccccccccccccccccccccccccccccccc"
       id="path148"
       transform="translate(-568.5831,-636.91274)"
       d="m 570.33594,658.16067 v 12.29441 c -2.8e-4,0.53298 0.43186,0.96512 0.96484,0.96484 h 2.24414 v 13.35547 c -2.8e-4,0.53299 0.43186,0.96513 0.96485,0.96484 h 7.9707 c 0.53298,2.8e-4 0.96512,-0.43186 0.96484,-0.96484 v -0.62305 h 10.76953 v 0.62305 c -2.8e-4,0.53299 0.43186,0.96513 0.96485,0.96484 h 30.39453 c 0.53298,2.8e-4 0.96512,-0.43186 0.96484,-0.96484 v -0.62305 h 10.86914 v 0.62305 c -2.8e-4,0.53299 0.43186,0.96513 0.96485,0.96484 h 30.42773 c 0.53298,2.8e-4 0.96512,-0.43186 0.96484,-0.96484 v -0.62305 h 10.73633 v 0.62305 c -2.8e-4,0.53299 0.43186,0.96513 0.96485,0.96484 h 7.83984 c 0.53298,2.8e-4 0.96512,-0.43186 0.96484,-0.96484 v -27.81744 m 0,-3.07359 v -23.24959 c 2.9e-4,-0.53299 -0.43185,-0.96513 -0.96484,-0.96485 h -7.83984 c -0.53299,-2.9e-4 -0.96514,0.43186 -0.96485,0.96485 v 0.62304 h -10.73633 v -0.62304 c 2.9e-4,-0.53299 -0.43185,-0.96513 -0.96484,-0.96485 h -30.42773 c -0.53299,-2.9e-4 -0.96514,0.43186 -0.96485,0.96485 v 0.62304 h -10.86914 v -0.62304 c 2.9e-4,-0.53299 -0.43185,-0.96513 -0.96484,-0.96485 h -30.39453 c -0.53299,-2.9e-4 -0.96514,0.43186 -0.96485,0.96485 v 0.62304 h -10.76953 v -0.62304 c 2.9e-4,-0.53299 -0.43185,-0.96513 -0.96484,-0.96485 h -7.9707 c -0.53299,-2.9e-4 -0.96514,0.43186 -0.96485,0.96485 v 13.15625 h -2.24414 c -0.53298,-2.8e-4 -0.96512,0.43186 -0.96484,0.96484 v 10.73211"
       style="fill:none;stroke:#ff0000;stroke-width:0.264583px;stroke-linecap:butt;stroke-linejoin:miter;stroke-opacity:1" />
    <path
       sodipodi:nodetypes="ccssccscc"
       id="path2752"
       transform="translate(-568.5831,-636.91274)"
       d="m 657.7843,714.54688 h -16.67688 c -2.1435,0.1937 -3.24397,1.88575 -3.30859,3.64843 -0.0324,0.88347 0.21945,1.74163 0.74414,2.38867 0.52238,0.64421 1.31325,1.12188 2.56641,1.23633 h 34.57812 c 2.14492,-0.42897 3.23217,-2.02368 3.29688,-3.60937 0.0647,-1.58529 -0.79671,-3.14337 -3.29883,-3.66406 h -15.16173"
       style="fill:none;stroke:#ff0000;stroke-width:0.264583px;stroke-linecap:butt;stroke-linejoin:miter;stroke-opacity:1" />
    <path
       sodipodi:nodetypes="cccccccccccccccccccccccccccccccccccccccccccccccccccccccc"
       id="path2796"
       transform="translate(-568.5831,-636.91274)"
       d="m 612.28167,733.21484 h 12.34135 v 0.57422 c 5.7e-4,0.51429 0.41735,0.93107 0.93164,0.93164 h 12.7207 c 0.51429,-5.7e-4 0.93107,-0.41735 0.93164,-0.93164 v -0.57422 h 28.60938 v 0.57422 c 5.7e-4,0.51429 0.41735,0.93107 0.93164,0.93164 h 12.72265 c 0.51429,-5.7e-4 0.93107,-0.41735 0.93164,-0.93164 v -0.57422 h 6.83204 c 0.51429,-5.7e-4 0.93107,-0.41735 0.93164,-0.93164 v -28.16015 c -5.7e-4,-0.51429 -0.41735,-0.93107 -0.93164,-0.93164 h -6.83204 v -0.70899 c -5.7e-4,-0.51429 -0.41735,-0.93107 -0.93164,-0.93164 h -12.72265 c -0.51429,5.7e-4 -0.93107,0.41735 -0.93164,0.93164 v 0.70117 l -14.10581,-0.11506 m -2.63484,-0.0215 -11.75349,-0.0959 0.0352,-0.46875 c 0.0385,-0.52492 -0.36477,-0.97767 -0.89062,-1 l -12.71875,-0.52148 c -0.50227,-0.0209 -0.93073,0.36006 -0.96875,0.86133 l -0.043,0.5625 -28.60156,-1.17188 0.0195,-0.53516 c 0.0192,-0.51299 -0.37969,-0.94508 -0.89258,-0.96679 l -12.61328,-0.51563 c -0.0273,-0.001 -0.0547,-0.001 -0.082,0 h 10e-6 c -0.47072,0.0219 -0.85118,0.39144 -0.88672,0.86133 l -0.043,0.5625 -6.65039,-0.27344 c -0.52948,-0.0216 -0.97056,0.40172 -0.97071,0.93164 v 9.51954 h -2.29687 c -0.51429,5.7e-4 -0.93107,0.41735 -0.93164,0.93164 v 12.79492 c 5.7e-4,0.51429 0.41735,0.93107 0.93164,0.93164 h 2.29687 v 6.82812 c 5.7e-4,0.5143 0.41735,0.93107 0.93165,0.93164 h 6.57421 v 0.57422 c 5.7e-4,0.51429 0.41735,0.93107 0.93164,0.93164 h 12.76954 c 0.51429,-5.7e-4 0.93107,-0.41735 0.93164,-0.93164 v -0.57422 h 13.65515"
       style="fill:none;stroke:#ff0000;stroke-width:0.264583px;stroke-linecap:butt;stroke-linejoin:miter;stroke-opacity:1" />
    <path
       sodipodi:nodetypes="ccssccscc"
       id="path2955"
       transform="translate(-621.10289,-636.91274)"
       d="m 656.78337,714.54688 h -15.67595 c -2.1435,0.1937 -3.24397,1.88575 -3.30859,3.64843 -0.0324,0.88347 0.21945,1.74163 0.74414,2.38867 0.52238,0.64421 1.31325,1.12188 2.56641,1.23633 h 34.57812 c 2.14492,-0.42897 3.23217,-2.02368 3.29688,-3.60937 0.0647,-1.58529 -0.79671,-3.14337 -3.29883,-3.66406 H 659.5897"
       style="fill:none;stroke:#ff0000;stroke-width:0.264583px;stroke-linecap:butt;stroke-linejoin:miter;stroke-opacity:1" />
    <path
       style="display:inline;fill:none;stroke:#ff0000;stroke-width:0.264583px;stroke-linecap:butt;stroke-linejoin:miter;stroke-opacity:1"
       d="M 88.916962,33.914654 H 72.240081 c -2.1435,0.1937 -3.24397,1.88575 -3.30859,3.64843 -0.0324,0.883469 0.21945,1.74163 0.74414,2.388669 0.52238,0.644211 1.31325,1.121881 2.56641,1.236331 h 34.578129 c 2.14492,-0.42897 3.23217,-2.02368 3.29688,-3.60937 0.0647,-1.58529 -0.79671,-3.14337 -3.29883,-3.66406 H 91.656481"
       id="path2752-5"
       sodipodi:nodetypes="ccssccscc" />
    <path
       style="display:inline;fill:none;stroke:#ff0000;stroke-width:0.264583px;stroke-linecap:butt;stroke-linejoin:miter;stroke-opacity:1"
       d="M 89.194975,0.23869309 H 72.518094 c -2.1435,0.19370001 -3.24397,1.88575011 -3.30859,3.64843011 -0.0324,0.8834699 0.21945,1.7416301 0.74414,2.3886699 0.52238,0.6442102 1.31325,1.1218802 2.56641,1.2363302 h 34.578126 c 2.14492,-0.42897 3.23217,-2.0236801 3.29688,-3.6093701 0.0647,-1.58529 -0.79671,-3.1433701 -3.29883,-3.66406011 H 91.934494"
       id="path2752-3"
       sodipodi:nodetypes="ccssccscc" />
    <path
       sodipodi:nodetypes="ccssccscc"
       id="path3079"
       d="M 89.194975,0.23869309 H 72.518094 c -2.1435,0.19370001 -3.24397,1.88575011 -3.30859,3.64843011 -0.0324,0.8834699 0.21945,1.7416301 0.74414,2.3886699 0.52238,0.6442102 1.31325,1.1218802 2.56641,1.2363302 h 34.578126 c 2.14492,-0.42897 3.23217,-2.0236801 3.29688,-3.6093701 0.0647,-1.58529 -0.79671,-3.1433701 -3.29883,-3.66406011 H 91.934494"
       style="display:inline;fill:none;stroke:#ff0000;stroke-width:0.264583px;stroke-linecap:butt;stroke-linejoin:miter;stroke-opacity:1" />
    <path
       style="display:inline;fill:none;stroke:#ff0000;stroke-width:0.264583px;stroke-linecap:butt;stroke-linejoin:miter;stroke-opacity:1"
       d="M 36.542879,0.27783383 H 19.865998 c -2.1435,0.19370001 -3.24397,1.88574997 -3.30859,3.64842997 -0.0324,0.8834699 0.21945,1.7416301 0.74414,2.3886699 0.52238,0.6442102 1.31325,1.1218802 2.56641,1.2363302 h 34.578119 c 2.144922,-0.42897 3.232172,-2.0236801 3.296881,-3.6093701 0.0647,-1.58529 -0.796708,-3.14337 -3.29883,-3.66405997 h -15.16173"
       id="path2752-6"
       sodipodi:nodetypes="ccssccscc" />
    <path
       style="display:inline;fill:none;stroke:#ff0000;stroke-width:0.264583px;stroke-linecap:butt;stroke-linejoin:miter;stroke-opacity:1"
       d="m 36.528574,33.971916 h -16.67688 c -2.1435,0.1937 -3.24397,1.88575 -3.30859,3.64843 -0.0324,0.88347 0.21945,1.74163 0.74414,2.38867 0.52238,0.64421 1.31325,1.12188 2.56641,1.23633 h 34.578118 c 2.144922,-0.42897 3.232172,-2.02368 3.296881,-3.60937 0.0647,-1.58529 -0.796708,-3.14337 -3.29883,-3.66406 h -15.16173"
       id="path2752-8"
       sodipodi:nodetypes="ccssccscc" />
  </g>
  <g
     style="display:inline"
     inkscape:label="Gcode"
     id="layer2"
     inkscape:groupmode="layer"
     sodipodi:insensitive="true">
    <g
       gcodetools="Gcodetools tool definition"
       transform="matrix(0.50142918,0,0,0.52018348,55.545677,120.45842)"
       id="g183">
      <path
         gcodetools="Gcodetools tool background"
         style="fill-opacity:0.5;stroke:#444444"
         d="M -20,-20 H 380 V 155 H -20 Z"
         id="path101" />
      <g
         gcodetools="Gcodetools tool parameter"
         id="g111">
        <text
           x="0"
           xml:space="preserve"
           y="0"
           style="font-style:normal;font-variant:normal;font-weight:normal;font-stretch:normal;font-size:20px;font-family:'DejaVu Sans';fill:#000000;fill-opacity:1;stroke:none"
           gcodetools="Gcodetools tool definition field name"
           id="text105"><tspan
             x="0"
             y="0"
             sodipodi:role="line"
             id="tspan103">name</tspan></text>
        <text
           x="150"
           xml:space="preserve"
           y="0"
           style="font-style:normal;font-variant:normal;font-weight:normal;font-stretch:normal;font-size:20px;font-family:'DejaVu Sans';fill:#000000;fill-opacity:1;stroke:none"
           gcodetools="Gcodetools tool definition field value"
           id="text109"><tspan
             x="150"
             y="0"
             sodipodi:role="line"
             id="tspan107">Cylindrical cutter</tspan></text>
      </g>
      <g
         gcodetools="Gcodetools tool parameter"
         id="g121">
        <text
           x="0"
           xml:space="preserve"
           y="20"
           style="font-style:normal;font-variant:normal;font-weight:normal;font-stretch:normal;font-size:10px;font-family:'DejaVu Sans';fill:#000000;fill-opacity:1;stroke:none"
           gcodetools="Gcodetools tool definition field name"
           id="text115"><tspan
             x="0"
             y="20"
             sodipodi:role="line"
             id="tspan113">id</tspan></text>
        <text
           x="150"
           xml:space="preserve"
           y="20"
           style="font-style:normal;font-variant:normal;font-weight:normal;font-stretch:normal;font-size:10px;font-family:'DejaVu Sans';fill:#000000;fill-opacity:1;stroke:none"
           gcodetools="Gcodetools tool definition field value"
           id="text119"><tspan
             x="150"
             y="20"
             sodipodi:role="line"
             id="tspan117">Cylindrical cutter 0001</tspan></text>
      </g>
      <g
         gcodetools="Gcodetools tool parameter"
         id="g131">
        <text
           x="0"
           xml:space="preserve"
           y="35"
           style="font-style:normal;font-variant:normal;font-weight:normal;font-stretch:normal;font-size:10px;font-family:'DejaVu Sans';fill:#000000;fill-opacity:1;stroke:none"
           gcodetools="Gcodetools tool definition field name"
           id="text125"><tspan
             x="0"
             y="35"
             sodipodi:role="line"
             id="tspan123">diameter</tspan></text>
        <text
           x="150"
           xml:space="preserve"
           y="35"
           style="font-style:normal;font-variant:normal;font-weight:normal;font-stretch:normal;font-size:10px;font-family:'DejaVu Sans';fill:#000000;fill-opacity:1;stroke:none"
           gcodetools="Gcodetools tool definition field value"
           id="text129"><tspan
             x="150"
             y="35"
             sodipodi:role="line"
             id="tspan127">1.6</tspan></text>
      </g>
      <g
         gcodetools="Gcodetools tool parameter"
         id="g141">
        <text
           x="0"
           xml:space="preserve"
           y="50"
           style="font-style:normal;font-variant:normal;font-weight:normal;font-stretch:normal;font-size:10px;font-family:'DejaVu Sans';fill:#000000;fill-opacity:1;stroke:none"
           gcodetools="Gcodetools tool definition field name"
           id="text135"><tspan
             x="0"
             y="50"
             sodipodi:role="line"
             id="tspan133">feed</tspan></text>
        <text
           x="150"
           xml:space="preserve"
           y="50"
           style="font-style:normal;font-variant:normal;font-weight:normal;font-stretch:normal;font-size:10px;font-family:'DejaVu Sans';fill:#000000;fill-opacity:1;stroke:none"
           gcodetools="Gcodetools tool definition field value"
           id="text139"><tspan
             x="150"
             y="50"
             sodipodi:role="line"
             id="tspan137">250</tspan></text>
      </g>
      <g
         gcodetools="Gcodetools tool parameter"
         id="g151">
        <text
           x="0"
           xml:space="preserve"
           y="65"
           style="font-style:normal;font-variant:normal;font-weight:normal;font-stretch:normal;font-size:10px;font-family:'DejaVu Sans';fill:#000000;fill-opacity:1;stroke:none"
           gcodetools="Gcodetools tool definition field name"
           id="text145"><tspan
             x="0"
             y="65"
             sodipodi:role="line"
             id="tspan143">penetration angle</tspan></text>
        <text
           x="150"
           xml:space="preserve"
           y="65"
           style="font-style:normal;font-variant:normal;font-weight:normal;font-stretch:normal;font-size:10px;font-family:'DejaVu Sans';fill:#000000;fill-opacity:1;stroke:none"
           gcodetools="Gcodetools tool definition field value"
           id="text149"><tspan
             x="150"
             y="65"
             sodipodi:role="line"
             id="tspan147">90</tspan></text>
      </g>
      <g
         gcodetools="Gcodetools tool parameter"
         id="g161">
        <text
           x="0"
           xml:space="preserve"
           y="80"
           style="font-style:normal;font-variant:normal;font-weight:normal;font-stretch:normal;font-size:10px;font-family:'DejaVu Sans';fill:#000000;fill-opacity:1;stroke:none"
           gcodetools="Gcodetools tool definition field name"
           id="text155"><tspan
             x="0"
             y="80"
             sodipodi:role="line"
             id="tspan153">penetration feed</tspan></text>
        <text
           x="150"
           xml:space="preserve"
           y="80"
           style="font-style:normal;font-variant:normal;font-weight:normal;font-stretch:normal;font-size:10px;font-family:'DejaVu Sans';fill:#000000;fill-opacity:1;stroke:none"
           gcodetools="Gcodetools tool definition field value"
           id="text159"><tspan
             x="150"
             y="80"
             sodipodi:role="line"
             id="tspan157">100</tspan></text>
      </g>
      <g
         gcodetools="Gcodetools tool parameter"
         id="g171">
        <text
           x="0"
           xml:space="preserve"
           y="95"
           style="font-style:normal;font-variant:normal;font-weight:normal;font-stretch:normal;font-size:10px;font-family:'DejaVu Sans';fill:#000000;fill-opacity:1;stroke:none"
           gcodetools="Gcodetools tool definition field name"
           id="text165"><tspan
             x="0"
             y="95"
             sodipodi:role="line"
             id="tspan163">depth step</tspan></text>
        <text
           x="150"
           xml:space="preserve"
           y="95"
           style="font-style:normal;font-variant:normal;font-weight:normal;font-stretch:normal;font-size:10px;font-family:'DejaVu Sans';fill:#000000;fill-opacity:1;stroke:none"
           gcodetools="Gcodetools tool definition field value"
           id="text169"><tspan
             x="150"
             y="95"
             sodipodi:role="line"
             id="tspan167">2</tspan></text>
      </g>
      <g
         gcodetools="Gcodetools tool parameter"
         id="g181">
        <text
           x="0"
           xml:space="preserve"
           y="110"
           style="font-style:normal;font-variant:normal;font-weight:normal;font-stretch:normal;font-size:10px;font-family:'DejaVu Sans';fill:#000000;fill-opacity:1;stroke:none"
           gcodetools="Gcodetools tool definition field name"
           id="text175"><tspan
             x="0"
             y="110"
             sodipodi:role="line"
             id="tspan173">tool change gcode</tspan></text>
        <text
           x="150"
           xml:space="preserve"
           y="110"
           style="font-style:normal;font-variant:normal;font-weight:normal;font-stretch:normal;font-size:10px;font-family:'DejaVu Sans';fill:#000000;fill-opacity:1;stroke:none"
           gcodetools="Gcodetools tool definition field value"
           id="text179"><tspan
             x="150"
             y="110"
             sodipodi:role="line"
             id="tspan177">(None)</tspan></text>
      </g>
    </g>
    <g
       gcodetools="Gcodetools orientation group"
       id="g296">
      <g
         gcodetools="Gcodetools orientation point (2 points)"
         id="g286">
        <path
           style="fill:#000000;stroke:none"
           gcodetools="Gcodetools orientation point arrow"
           d="M 0,100 2.9375,93.65625 3.75,95.5625 10.59375,88.71875 v 0 l 0.6875,0.6875 L 4.4375,96.25 6.34375,97.0625 Z"
           id="path280" />
        <text
           x="10"
           xml:space="preserve"
           y="90"
           style="font-style:normal;font-variant:normal;font-weight:normal;font-stretch:normal;font-size:10px;font-family:'DejaVu Sans';fill:#000000;fill-opacity:1;stroke:none"
           gcodetools="Gcodetools orientation point text"
           id="text284"><tspan
             x="10"
             y="90"
             sodipodi:role="line"
             id="tspan282">(0.0; 0.0; 0.0)</tspan></text>
      </g>
      <g
         gcodetools="Gcodetools orientation point (2 points)"
         id="g294">
        <path
           style="fill:#000000;stroke:none"
           gcodetools="Gcodetools orientation point arrow"
           d="m 100,100 2.9375,-6.34375 0.8125,1.90625 6.84375,-6.84375 v 0 l 0.6875,0.6875 -6.84375,6.84375 1.90625,0.8125 z"
           id="path288" />
        <text
           x="110"
           xml:space="preserve"
           y="90"
           style="font-style:normal;font-variant:normal;font-weight:normal;font-stretch:normal;font-size:10px;font-family:'DejaVu Sans';fill:#000000;fill-opacity:1;stroke:none"
           gcodetools="Gcodetools orientation point text"
           id="text292"><tspan
             x="110"
             y="90"
             sodipodi:role="line"
             id="tspan290">(100.0; 0.0; -3.174999952316284)</tspan></text>
      </g>
    </g>
  </g>
  <inkscape:templateinfo>
    <inkscape:name>CNC</inkscape:name>
    <inkscape:date>2020-06-17</inkscape:date>
  </inkscape:templateinfo>
</svg>
