<?xml version="1.0" encoding="UTF-8" standalone="no"?>
<svg
   xmlns:dc="http://purl.org/dc/elements/1.1/"
   xmlns:cc="http://creativecommons.org/ns#"
   xmlns:rdf="http://www.w3.org/1999/02/22-rdf-syntax-ns#"
   xmlns:svg="http://www.w3.org/2000/svg"
   xmlns="http://www.w3.org/2000/svg"
   xmlns:sodipodi="http://sodipodi.sourceforge.net/DTD/sodipodi-0.dtd"
   xmlns:inkscape="http://www.inkscape.org/namespaces/inkscape"
   id="svg1028"
   version="1.1"
   viewBox="0 0 290 100"
   height="100mm"
   width="290mm"
   inkscape:version="1.0 (4035a4f, 2020-05-01)"
   sodipodi:docname="Centre section - all.svg">
  <defs
     id="defs1022">
    <marker
       style="overflow:visible"
       refY="-1.687441"
       refX="-4"
       orient="auto"
       id="CheckToolsAndOPMarker">
      <path
         id="path309"
         style="fill:#000044;fill-rule:evenodd;stroke:none"
         d="m 4.588864,-1.687441 0.0,0.0 L 9.177728,0.0 c -0.73311,-0.996261 -0.728882,-2.359329 0.0,-3.374882" />
    </marker>
    <marker
       style="overflow:visible"
       refY="-1.687441"
       refX="-4"
       orient="auto"
       id="DrawCurveMarker">
      <path
         id="path312"
         style="fill:#000044;fill-rule:evenodd;stroke:none"
         d="m 4.588864,-1.687441 0.0,0.0 L 9.177728,0.0 c -0.73311,-0.996261 -0.728882,-2.359329 0.0,-3.374882" />
    </marker>
    <marker
       style="overflow:visible"
       refY="-1.687441"
       refX="4"
       orient="auto"
       id="DrawCurveMarker_r">
      <path
         id="path315"
         style="fill:#000044;fill-rule:evenodd;stroke:none"
         d="m -4.588864,-1.687441 0.0,0.0 L -9.177728,0.0 c 0.73311,-0.996261 0.728882,-2.359329 0.0,-3.374882" />
    </marker>
    <marker
       style="overflow:visible"
       refY="-1.687441"
       refX="-4"
       orient="auto"
       id="InOutPathMarker">
      <path
         id="path318"
         style="fill:#0072a7;fill-rule:evenodd;stroke:none"
         d="m 4.588864,-1.687441 0.0,0.0 L 9.177728,0.0 c -0.73311,-0.996261 -0.728882,-2.359329 0.0,-3.374882" />
    </marker>
  </defs>
  <sodipodi:namedview
     inkscape:window-maximized="0"
     inkscape:window-y="50"
     inkscape:window-x="74"
     inkscape:window-height="891"
     inkscape:window-width="1761"
     showgrid="false"
     inkscape:document-rotation="0"
     inkscape:current-layer="layer1"
     inkscape:document-units="mm"
     inkscape:cy="251.79414"
     inkscape:cx="233.04852"
     inkscape:zoom="2.2919661"
     inkscape:pageshadow="2"
     inkscape:pageopacity="0.0"
     borderopacity="1.0"
     bordercolor="#666666"
     pagecolor="#ffffff"
     id="base"
     inkscape:snap-global="false"
     showguides="true"
     inkscape:guide-bbox="true">
    <sodipodi:guide
       position="39.084278,3.1222494"
       orientation="0,-1"
       id="guide1085" />
    <sodipodi:guide
       position="3.0754842,12.733137"
       orientation="1,0"
       id="guide1087" />
    <sodipodi:guide
       id="guide87"
       orientation="1,0"
       position="39.133977,8.6873871" />
  </sodipodi:namedview>
  <metadata
     id="metadata1025">
    <rdf:RDF>
      <cc:Work
         rdf:about="">
        <dc:format>image/svg+xml</dc:format>
        <dc:type
           rdf:resource="http://purl.org/dc/dcmitype/StillImage" />
        <dc:title />
      </cc:Work>
    </rdf:RDF>
  </metadata>
  <g
     id="layer1"
     inkscape:groupmode="layer"
     inkscape:label="Layer 1">
    <path
       style="display:inline;fill:none;stroke:#ff0000;stroke-width:0.1165"
       d="m 43.693295,83.392242 c 0,0.504311 -0.166527,0.969727 -0.447593,1.34426 m -1.794156,0.89749 c -1.238084,0 -2.24175,-1.003666 -2.24175,-2.24175 0,-0.569269 0.21219,-1.088979 0.561792,-1.484352 m 2.390858,-0.642333 c 0.889625,0.297247 1.530849,1.137083 1.530849,2.126685"
       id="path10268-8-1"
       sodipodi:nodetypes="cccsccc" />
    <path
       style="display:inline;fill:none;stroke:#ff0000;stroke-width:0.1165"
       d="m 113.71429,84.870392 c 0,0.426954 -0.11936,0.82603 -0.32653,1.165682 m -1.91522,1.076068 c -1.23808,0 -2.24175,-1.003666 -2.24175,-2.24175 0,-0.39613 0.10275,-0.768263 0.28304,-1.091202 m 1.95871,-1.150548 c 1.23808,0 2.24175,1.003666 2.24175,2.24175"
       id="path10268-8-1-6"
       sodipodi:nodetypes="cccsccc" />
    <path
       style="display:inline;fill:none;stroke:#ff0000;stroke-width:0.1165"
       d="m 46.110074,82.500824 c 0,0.831591 -0.452801,1.557424 -1.125303,1.944399 m -1.978109,0.125771 c -0.810409,-0.337703 -1.380087,-1.137409 -1.380087,-2.07017 0,-0.820388 0.440684,-1.537848 1.098244,-1.928575 m 2.419509,0.08517 c 0.583584,0.404718 0.965746,1.079435 0.965746,1.84341"
       id="path10268-8-9"
       sodipodi:nodetypes="cccsccc" />
    <path
       style="display:inline;fill:none;stroke:#ff0000;stroke-width:0.1165"
       d="m 116.21216,84.050385 c 0,0.415561 -0.11307,0.804713 -0.31013,1.138367 m -1.93162,1.103382 c -1.23808,0 -2.24175,-1.003665 -2.24175,-2.241749 0,-0.473332 0.1467,-0.912401 0.39711,-1.274223 m 1.84464,-0.967527 c 1.23808,0 2.24175,1.003666 2.24175,2.24175"
       id="path10268-1-7-1-1"
       sodipodi:nodetypes="cccsccc" />
    <path
       style="display:inline;fill:none;stroke:#ff0000;stroke-width:0.1165"
       d="m 48.522458,81.587433 c 0,0.367994 -0.08867,0.715277 -0.245806,1.021652 m -1.995944,1.220098 c -1.238084,0 -2.241749,-1.003666 -2.241749,-2.24175 0,-0.817939 0.438057,-1.533565 1.092362,-1.925068 m 2.433415,0.08725 c 0.579061,0.405324 0.957722,1.077351 0.957722,1.837819"
       id="path10268-8-3"
       sodipodi:nodetypes="cccsccc" />
    <path
       style="display:inline;fill:none;stroke:#ff0000;stroke-width:0.1165"
       d="m 118.57799,83.133148 c 0,0.332322 -0.0723,0.647755 -0.20206,0.931423 m -2.03969,1.310327 c -1.23808,0 -2.24175,-1.003666 -2.24175,-2.24175 0,-0.728405 0.3474,-1.37567 0.88556,-1.785142 m 2.25611,-0.268666 c 0.79002,0.34666 1.34183,1.135793 1.34183,2.053808"
       id="path10268-1-7-1"
       sodipodi:nodetypes="cccsccc" />
    <path
       style="display:inline;fill:none;stroke:#ff0000;stroke-width:0.264583px;stroke-linecap:butt;stroke-linejoin:miter;stroke-opacity:1"
       d="M 16.910167,73.155187 C 10.607083,76.997895 5.6580591,81.504127 2.6875,86.083984 c -0.090122,0.101161 -0.1532685,0.223423 -0.1835938,0.355469 -0.285921,1.242902 0.084628,2.384658 0.734375,3.263672 0.084574,0.113989 0.1977709,0.203604 0.328125,0.259766 2.1296576,0.924603 4.6695426,1.727276 7.3945318,2.464843 l -0.02539,4.548828 c -0.0018,0.44578 0.358903,0.808208 0.804687,0.808594 l 2.600309,-0.0011 m 3.589232,-0.0015 3.406163,-0.0014 c 0.428022,2.55e-4 0.781477,-0.334327 0.804687,-0.761719 l 0.115234,-2.195312 c 3.495871,0.579623 7.124853,1.091571 10.822266,1.501953 0.445043,0.0485 0.844233,-0.275235 0.888672,-0.720703 l 0.228515,-2.320313 1.611329,0.169922 -0.222657,2.363281 c -0.0415,0.442085 0.282629,0.83436 0.72461,0.876953 6.173756,0.58928 12.326108,1.003293 18.065597,1.075083 m 3.96242,-0.01844 c 2.120232,-0.03665 4.300503,-0.08954 6.46611,-0.1582 0.43431,-0.01408 0.779146,-0.37015 0.779297,-0.804688 l 0.0039,-2.435546 1.523437,-0.01367 -0.002,2.310547 c -10e-4,0.457504 0.378761,0.823993 0.835937,0.80664 9.092089,-0.347645 18.567962,-0.924771 27.302735,-1.683593 0.440145,-0.03868 0.766949,-0.424745 0.732422,-0.865235 l -0.175782,-2.261719 1.607422,-0.162109 0.222656,2.271484 c 0.04261,0.441147 0.433642,0.764968 0.875,0.72461 3.605904,-0.336327 7.018024,-0.705889 10.265624,-1.087891 l -0.0312,2.570313 c -0.005,0.448829 0.35778,0.815177 0.80664,0.814453 l 1.82943,-0.0023 m 3.84528,-0.0049 2.01474,-0.0026 c 0.41392,-0.0015 0.75932,-0.316481 0.79883,-0.728516 l 0.37891,-3.947265 c 4.00205,-0.618364 7.48601,-1.25907 9.95898,-1.916016 1.31383,-0.349018 2.37869,-0.69946 3.19141,-1.072265 0.79117,-0.362926 1.40465,-0.690315 1.69726,-1.416016 0.56441,-0.960098 0.89759,-2.27813 0.21094,-3.755859 -0.0716,-0.153632 -0.18984,-0.28076 -0.33789,-0.363282 -5.85466,-3.260617 -12.11998,-6.266223 -18.5852,-8.958563 m -2.40057,-0.981645 c -4.29047,-1.722554 -8.65645,-3.305974 -13.037649,-4.733594 -0.429804,-0.140547 -0.891055,0.100221 -1.021484,0.533203 l -0.662109,2.191407 -1.445313,-0.490235 0.587891,-2.25 C 96.680819,69.46152 96.441471,69.032759 96.029297,68.906155 87.162331,66.18738 78.240414,64.0805 69.845703,63.052639 c -0.471048,-0.0573 -0.889291,0.303003 -0.902344,0.777344 l -0.0625,2.417969 -1.601562,-0.06641 0.123047,-2.603516 c 0.01924,-0.428806 -0.301197,-0.797351 -0.728516,-0.837891 -1.132185,-0.107579 -2.244887,-0.198917 -3.343174,-0.271716 m -2.920091,-0.149341 c -1.216037,-0.04263 -2.419468,-0.05898 -3.617594,-0.04574 l -0.01563,4e-6 c -6.972545,-0.05294 -13.761368,0.899004 -20.083985,2.568359 -0.438049,0.11527 -0.694918,0.568984 -0.568359,1.003906 l 0.636719,2.195313 -1.535157,0.4375 -0.65625,-2.201172 C 34.44219,65.848018 33.988471,65.6058 33.560542,65.73818 28.513101,67.296169 23.812264,69.297039 19.613934,71.5935"
       transform="translate(0.78554047,-1.0583333)"
       id="path10676-3-5-1"
       sodipodi:nodetypes="cccccccccccccccccccccccccccccccccccccccccsscccccccccccccccccccccccccccc" />
    <path
       sodipodi:nodetypes="cccsccc"
       id="path10268-8-1-7"
       d="m 43.597329,44.25921 c 0,0.504311 -0.166526,0.969727 -0.447593,1.34426 m -1.794156,0.89749 c -1.238083,0 -2.241751,-1.003666 -2.241751,-2.24175 0,-0.569269 0.212191,-1.088979 0.561793,-1.484352 m 2.390859,-0.642333 c 0.889625,0.297247 1.530848,1.137083 1.530848,2.126685"
       style="display:inline;fill:none;stroke:#ff0000;stroke-width:0.1165" />
    <path
       sodipodi:nodetypes="cccsccc"
       id="path10268-8-1-6-3"
       d="m 113.61833,45.73736 c 0,0.426954 -0.11936,0.82603 -0.32653,1.165682 m -1.91522,1.076068 c -1.23808,0 -2.24175,-1.003666 -2.24175,-2.24175 0,-0.39613 0.10275,-0.768263 0.28304,-1.091202 m 1.95871,-1.150548 c 1.23808,0 2.24175,1.003666 2.24175,2.24175"
       style="display:inline;fill:none;stroke:#ff0000;stroke-width:0.1165" />
    <path
       sodipodi:nodetypes="cccccccccccccccccccccccccccccccccccccccccsscccccccccccccccccccccccccccc"
       id="path10676-3-5-1-7"
       d="m 17.599742,32.963822 c -6.303085,3.842708 -11.2521091,8.34894 -14.2226681,12.928797 -0.09012,0.101161 -0.153269,0.223423 -0.183594,0.355469 -0.285921,1.242902 0.08463,2.384657 0.734375,3.263671 0.08457,0.113991 0.197771,0.203605 0.328125,0.259765 2.129658,0.924605 4.669543,1.727277 7.3945321,2.464846 l -0.02539,4.548827 c -0.0018,0.445781 0.358903,0.808207 0.804687,0.808593 l 2.600309,-0.0011 m 3.589232,-0.0016 3.406163,-0.0013 c 0.428022,2.56e-4 0.781477,-0.334325 0.804687,-0.761717 l 0.115234,-2.195314 c 3.495871,0.579622 7.124854,1.091573 10.822266,1.501955 0.445042,0.0485 0.844232,-0.275236 0.888672,-0.720704 l 0.228515,-2.320314 1.611328,0.169923 -0.222657,2.36328 c -0.0415,0.442084 0.28263,0.834361 0.724612,0.876953 6.173755,0.58928 12.326105,1.003292 18.065595,1.075084 m 3.962419,-0.01844 c 2.120233,-0.03665 4.300503,-0.08954 6.466112,-0.1582 0.434308,-0.01407 0.779145,-0.370149 0.779296,-0.804688 l 0.0039,-2.435545 1.523438,-0.01368 -0.0021,2.310548 c -0.0011,0.457505 0.378762,0.823992 0.835938,0.806641 9.092089,-0.347647 18.567963,-0.924772 27.302735,-1.683594 0.440145,-0.03868 0.76695,-0.424746 0.732422,-0.865235 l -0.175781,-2.261719 1.60742,-0.162111 0.222658,2.271485 c 0.04261,0.441148 0.433641,0.764969 0.874998,0.724609 3.60591,-0.336325 7.01803,-0.705887 10.26563,-1.08789 l -0.0312,2.570314 c -0.005,0.448828 0.35778,0.815176 0.80664,0.814453 l 1.82943,-0.0024 m 3.84528,-0.0049 2.01474,-0.0026 c 0.41392,-0.0016 0.75932,-0.316482 0.79883,-0.728517 l 0.37891,-3.947266 c 4.00205,-0.618363 7.48601,-1.25907 9.95898,-1.916015 1.31383,-0.349017 2.37869,-0.69946 3.19141,-1.072266 0.79117,-0.362926 1.40465,-0.690314 1.69726,-1.416016 0.56441,-0.960097 0.89759,-2.278129 0.21094,-3.755858 -0.0716,-0.153632 -0.18984,-0.28076 -0.33789,-0.363282 -5.85453,-3.260519 -12.11985,-6.266125 -18.58507,-8.958465 m -2.40057,-0.981646 c -4.2905,-1.722543 -8.65648,-3.305962 -13.037685,-4.733582 -0.429805,-0.140547 -0.891056,0.100221 -1.021485,0.533203 l -0.662109,2.191407 -1.445313,-0.490235 0.587891,-2.25 c 0.108554,-0.417291 -0.130793,-0.846052 -0.542966,-0.972656 -8.866966,-2.718775 -17.788885,-4.825655 -26.183595,-5.853516 -0.471049,-0.0573 -0.889291,0.303003 -0.902343,0.777344 l -0.0625,2.417968 -1.601563,-0.06641 0.123047,-2.603516 c 0.01923,-0.428805 -0.301196,-0.79735 -0.728517,-0.83789 -1.132185,-0.107579 -2.244887,-0.198917 -3.343175,-0.271716 m -2.92009,-0.149341 c -1.216038,-0.04263 -2.419469,-0.05898 -3.617595,-0.04574 l -0.01564,4e-6 c -6.972538,-0.05294 -13.761359,0.899004 -20.083977,2.568359 -0.438047,0.11527 -0.694918,0.568984 -0.568357,1.003905 l 0.63672,2.195314 -1.535157,0.4375 -0.656249,-2.201173 c -0.128117,-0.429229 -0.581837,-0.671447 -1.009767,-0.539067 -5.047439,1.557988 -9.748276,3.558859 -13.946606,5.85532"
       style="display:inline;fill:none;stroke:#ff0000;stroke-width:0.264583px;stroke-linecap:butt;stroke-linejoin:miter;stroke-opacity:1" />
  </g>
  <g
     inkscape:groupmode="layer"
     id="layer2"
     inkscape:label="Gcode"
     style="display:inline;opacity:1">
    <g
       id="g183"
       transform="matrix(0.50142918,0,0,0.52018348,55.545677,120.45842)"
       gcodetools="Gcodetools tool definition">
      <path
         id="path101"
         d="M -20,-20 H 380 V 155 H -20 Z"
         style="fill-opacity:0.5;stroke:#444444"
         gcodetools="Gcodetools tool background" />
      <g
         id="g111"
         gcodetools="Gcodetools tool parameter">
        <text
           id="text105"
           gcodetools="Gcodetools tool definition field name"
           style="font-style:normal;font-variant:normal;font-weight:normal;font-stretch:normal;font-size:20px;font-family:'DejaVu Sans';fill:#000000;fill-opacity:1;stroke:none"
           y="0"
           xml:space="preserve"
           x="0"><tspan
             id="tspan103"
             sodipodi:role="line"
             y="0"
             x="0">name</tspan></text>
        <text
           id="text109"
           gcodetools="Gcodetools tool definition field value"
           style="font-style:normal;font-variant:normal;font-weight:normal;font-stretch:normal;font-size:20px;font-family:'DejaVu Sans';fill:#000000;fill-opacity:1;stroke:none"
           y="0"
           xml:space="preserve"
           x="150"><tspan
             id="tspan107"
             sodipodi:role="line"
             y="0"
             x="150">Cylindrical cutter</tspan></text>
      </g>
      <g
         id="g121"
         gcodetools="Gcodetools tool parameter">
        <text
           id="text115"
           gcodetools="Gcodetools tool definition field name"
           style="font-style:normal;font-variant:normal;font-weight:normal;font-stretch:normal;font-size:10px;font-family:'DejaVu Sans';fill:#000000;fill-opacity:1;stroke:none"
           y="20"
           xml:space="preserve"
           x="0"><tspan
             id="tspan113"
             sodipodi:role="line"
             y="20"
             x="0">id</tspan></text>
        <text
           id="text119"
           gcodetools="Gcodetools tool definition field value"
           style="font-style:normal;font-variant:normal;font-weight:normal;font-stretch:normal;font-size:10px;font-family:'DejaVu Sans';fill:#000000;fill-opacity:1;stroke:none"
           y="20"
           xml:space="preserve"
           x="150"><tspan
             id="tspan117"
             sodipodi:role="line"
             y="20"
             x="150">Cylindrical cutter 0001</tspan></text>
      </g>
      <g
         id="g131"
         gcodetools="Gcodetools tool parameter">
        <text
           id="text125"
           gcodetools="Gcodetools tool definition field name"
           style="font-style:normal;font-variant:normal;font-weight:normal;font-stretch:normal;font-size:10px;font-family:'DejaVu Sans';fill:#000000;fill-opacity:1;stroke:none"
           y="35"
           xml:space="preserve"
           x="0"><tspan
             id="tspan123"
             sodipodi:role="line"
             y="35"
             x="0">diameter</tspan></text>
        <text
           id="text129"
           gcodetools="Gcodetools tool definition field value"
           style="font-style:normal;font-variant:normal;font-weight:normal;font-stretch:normal;font-size:10px;font-family:'DejaVu Sans';fill:#000000;fill-opacity:1;stroke:none"
           y="35"
           xml:space="preserve"
           x="150"><tspan
             id="tspan127"
             sodipodi:role="line"
             y="35"
             x="150">10</tspan></text>
      </g>
      <g
         id="g141"
         gcodetools="Gcodetools tool parameter">
        <text
           id="text135"
           gcodetools="Gcodetools tool definition field name"
           style="font-style:normal;font-variant:normal;font-weight:normal;font-stretch:normal;font-size:10px;font-family:'DejaVu Sans';fill:#000000;fill-opacity:1;stroke:none"
           y="50"
           xml:space="preserve"
           x="0"><tspan
             id="tspan133"
             sodipodi:role="line"
             y="50"
             x="0">feed</tspan></text>
        <text
           id="text139"
           gcodetools="Gcodetools tool definition field value"
           style="font-style:normal;font-variant:normal;font-weight:normal;font-stretch:normal;font-size:10px;font-family:'DejaVu Sans';fill:#000000;fill-opacity:1;stroke:none"
           y="50"
           xml:space="preserve"
           x="150"><tspan
             id="tspan137"
             sodipodi:role="line"
             y="50"
             x="150">150</tspan></text>
      </g>
      <g
         id="g151"
         gcodetools="Gcodetools tool parameter">
        <text
           id="text145"
           gcodetools="Gcodetools tool definition field name"
           style="font-style:normal;font-variant:normal;font-weight:normal;font-stretch:normal;font-size:10px;font-family:'DejaVu Sans';fill:#000000;fill-opacity:1;stroke:none"
           y="65"
           xml:space="preserve"
           x="0"><tspan
             id="tspan143"
             sodipodi:role="line"
             y="65"
             x="0">penetration angle</tspan></text>
        <text
           id="text149"
           gcodetools="Gcodetools tool definition field value"
           style="font-style:normal;font-variant:normal;font-weight:normal;font-stretch:normal;font-size:10px;font-family:'DejaVu Sans';fill:#000000;fill-opacity:1;stroke:none"
           y="65"
           xml:space="preserve"
           x="150"><tspan
             id="tspan147"
             sodipodi:role="line"
             y="65"
             x="150">90</tspan></text>
      </g>
      <g
         id="g161"
         gcodetools="Gcodetools tool parameter">
        <text
           id="text155"
           gcodetools="Gcodetools tool definition field name"
           style="font-style:normal;font-variant:normal;font-weight:normal;font-stretch:normal;font-size:10px;font-family:'DejaVu Sans';fill:#000000;fill-opacity:1;stroke:none"
           y="80"
           xml:space="preserve"
           x="0"><tspan
             id="tspan153"
             sodipodi:role="line"
             y="80"
             x="0">penetration feed</tspan></text>
        <text
           id="text159"
           gcodetools="Gcodetools tool definition field value"
           style="font-style:normal;font-variant:normal;font-weight:normal;font-stretch:normal;font-size:10px;font-family:'DejaVu Sans';fill:#000000;fill-opacity:1;stroke:none"
           y="80"
           xml:space="preserve"
           x="150"><tspan
             id="tspan157"
             sodipodi:role="line"
             y="80"
             x="150">100</tspan></text>
      </g>
      <g
         id="g171"
         gcodetools="Gcodetools tool parameter">
        <text
           id="text165"
           gcodetools="Gcodetools tool definition field name"
           style="font-style:normal;font-variant:normal;font-weight:normal;font-stretch:normal;font-size:10px;font-family:'DejaVu Sans';fill:#000000;fill-opacity:1;stroke:none"
           y="95"
           xml:space="preserve"
           x="0"><tspan
             id="tspan163"
             sodipodi:role="line"
             y="95"
             x="0">depth step</tspan></text>
        <text
           id="text169"
           gcodetools="Gcodetools tool definition field value"
           style="font-style:normal;font-variant:normal;font-weight:normal;font-stretch:normal;font-size:10px;font-family:'DejaVu Sans';fill:#000000;fill-opacity:1;stroke:none"
           y="95"
           xml:space="preserve"
           x="150"><tspan
             id="tspan167"
             sodipodi:role="line"
             y="95"
             x="150">1</tspan></text>
      </g>
      <g
         id="g181"
         gcodetools="Gcodetools tool parameter">
        <text
           id="text175"
           gcodetools="Gcodetools tool definition field name"
           style="font-style:normal;font-variant:normal;font-weight:normal;font-stretch:normal;font-size:10px;font-family:'DejaVu Sans';fill:#000000;fill-opacity:1;stroke:none"
           y="110"
           xml:space="preserve"
           x="0"><tspan
             id="tspan173"
             sodipodi:role="line"
             y="110"
             x="0">tool change gcode</tspan></text>
        <text
           id="text179"
           gcodetools="Gcodetools tool definition field value"
           style="font-style:normal;font-variant:normal;font-weight:normal;font-stretch:normal;font-size:10px;font-family:'DejaVu Sans';fill:#000000;fill-opacity:1;stroke:none"
           y="110"
           xml:space="preserve"
           x="150"><tspan
             id="tspan177"
             sodipodi:role="line"
             y="110"
             x="150">(None)</tspan></text>
      </g>
    </g>
    <g
       id="g296"
       gcodetools="Gcodetools orientation group">
      <g
         id="g286"
         gcodetools="Gcodetools orientation point (2 points)">
        <path
           id="path280"
           d="M 0,100 2.9375,93.65625 3.75,95.5625 10.59375,88.71875 v 0 l 0.6875,0.6875 L 4.4375,96.25 6.34375,97.0625 Z"
           gcodetools="Gcodetools orientation point arrow"
           style="fill:#000000;stroke:none" />
        <text
           id="text284"
           gcodetools="Gcodetools orientation point text"
           style="font-style:normal;font-variant:normal;font-weight:normal;font-stretch:normal;font-size:10px;font-family:'DejaVu Sans';fill:#000000;fill-opacity:1;stroke:none"
           y="90"
           xml:space="preserve"
           x="10"><tspan
             id="tspan282"
             sodipodi:role="line"
             y="90"
             x="10">(0.0; 0.0; 0.0)</tspan></text>
      </g>
      <g
         id="g294"
         gcodetools="Gcodetools orientation point (2 points)">
        <path
           id="path288"
           d="m 100,100 2.9375,-6.34375 0.8125,1.90625 6.84375,-6.84375 v 0 l 0.6875,0.6875 -6.84375,6.84375 1.90625,0.8125 z"
           gcodetools="Gcodetools orientation point arrow"
           style="fill:#000000;stroke:none" />
        <text
           id="text292"
           gcodetools="Gcodetools orientation point text"
           style="font-style:normal;font-variant:normal;font-weight:normal;font-stretch:normal;font-size:10px;font-family:'DejaVu Sans';fill:#000000;fill-opacity:1;stroke:none"
           y="90"
           xml:space="preserve"
           x="110"><tspan
             id="tspan290"
             sodipodi:role="line"
             y="90"
             x="110">(100.0; 0.0; -3.4)</tspan></text>
      </g>
    </g>
  </g>
</svg>
