<?xml version="1.0" encoding="UTF-8" standalone="no"?>
<svg
   xmlns:dc="http://purl.org/dc/elements/1.1/"
   xmlns:cc="http://creativecommons.org/ns#"
   xmlns:rdf="http://www.w3.org/1999/02/22-rdf-syntax-ns#"
   xmlns:svg="http://www.w3.org/2000/svg"
   xmlns="http://www.w3.org/2000/svg"
   xmlns:sodipodi="http://sodipodi.sourceforge.net/DTD/sodipodi-0.dtd"
   xmlns:inkscape="http://www.inkscape.org/namespaces/inkscape"
   sodipodi:docname="F13 - balsa.svg"
   inkscape:version="1.0 (4035a4fb49, 2020-05-01)"
   width="290mm"
   height="100mm"
   viewBox="0 0 290 100"
   version="1.1"
   id="svg1028">
  <defs
     id="defs1022">
    <marker
       id="CheckToolsAndOPMarker"
       orient="auto"
       refX="-4"
       refY="-1.687441"
       style="overflow:visible">
      <path
         d="m 4.588864,-1.687441 0.0,0.0 L 9.177728,0.0 c -0.73311,-0.996261 -0.728882,-2.359329 0.0,-3.374882"
         style="fill:#000044;fill-rule:evenodd;stroke:none"
         id="path309" />
    </marker>
    <marker
       id="DrawCurveMarker"
       orient="auto"
       refX="-4"
       refY="-1.687441"
       style="overflow:visible">
      <path
         d="m 4.588864,-1.687441 0.0,0.0 L 9.177728,0.0 c -0.73311,-0.996261 -0.728882,-2.359329 0.0,-3.374882"
         style="fill:#000044;fill-rule:evenodd;stroke:none"
         id="path312" />
    </marker>
    <marker
       id="DrawCurveMarker_r"
       orient="auto"
       refX="4"
       refY="-1.687441"
       style="overflow:visible">
      <path
         d="m -4.588864,-1.687441 0.0,0.0 L -9.177728,0.0 c 0.73311,-0.996261 0.728882,-2.359329 0.0,-3.374882"
         style="fill:#000044;fill-rule:evenodd;stroke:none"
         id="path315" />
    </marker>
    <marker
       id="InOutPathMarker"
       orient="auto"
       refX="-4"
       refY="-1.687441"
       style="overflow:visible">
      <path
         d="m 4.588864,-1.687441 0.0,0.0 L 9.177728,0.0 c -0.73311,-0.996261 -0.728882,-2.359329 0.0,-3.374882"
         style="fill:#0072a7;fill-rule:evenodd;stroke:none"
         id="path318" />
    </marker>
  </defs>
  <sodipodi:namedview
     id="base"
     pagecolor="#ffffff"
     bordercolor="#666666"
     borderopacity="1.0"
     inkscape:pageopacity="0.0"
     inkscape:pageshadow="2"
     inkscape:zoom="0.7"
     inkscape:cx="376.30681"
     inkscape:cy="426.67714"
     inkscape:document-units="mm"
     inkscape:current-layer="layer1"
     inkscape:document-rotation="0"
     showgrid="false"
     inkscape:window-width="1274"
     inkscape:window-height="696"
     inkscape:window-x="68"
     inkscape:window-y="0"
     inkscape:window-maximized="0" />
  <metadata
     id="metadata1025">
    <rdf:RDF>
      <cc:Work
         rdf:about="">
        <dc:format>image/svg+xml</dc:format>
        <dc:type
           rdf:resource="http://purl.org/dc/dcmitype/StillImage" />
        <dc:title></dc:title>
      </cc:Work>
    </rdf:RDF>
  </metadata>
  <g
     inkscape:label="Layer 1"
     inkscape:groupmode="layer"
     id="layer1">
    <path
       sodipodi:nodetypes="cccccccccccccccccccc"
       id="path2497"
       transform="rotate(90,401.79976,350.90118)"
       d="m 91.805712,712.26611 2.989204,35.81026 c 0.05119,0.61034 0.561343,1.07976 1.173828,1.08008 l 18.139016,-0.0142 m 3.60813,-0.003 23.28996,-0.0182 c 0.61111,-1.5e-4 1.12073,-0.46737 1.17383,-1.07617 l 3.01318,-35.14883 m 0.29763,-3.4719 2.64817,-30.89099 c 0.004,-0.0448 0.005,-0.0898 0.004,-0.13476 -0.43519,-15.51235 -11.56885,-27.95668 -26.69531,-29.47461 -0.0376,-0.004 -0.0755,-0.006 -0.11329,-0.006 l -0.87863,-0.003 m -2.3391,-0.007 -2.54797,-0.008 c -0.047,-1.4e-4 -0.0939,0.003 -0.14063,0.008 -15.704119,1.83437 -26.58434,15.34039 -26.457027,29.35352 2.05e-4,0.0293 0.0015,0.0587 0.0039,0.0879 l 2.548453,30.53012"
       style="fill:none;stroke:#ff0000;stroke-width:0.264583px;stroke-linecap:butt;stroke-linejoin:miter;stroke-opacity:1" />
    <path
       sodipodi:nodetypes="ccsccccssccscc"
       id="path2515"
       transform="rotate(90,401.79976,350.90118)"
       d="m 124.21484,721.59745 v 14.80685 c 0.0148,0.17092 0.0461,0.22987 0.15821,0.34765 0.0846,0.0889 0.28542,0.20442 0.48047,0.31641 l 4.38281,-0.0156 c 2.23265,-0.41576 3.93547,-1.96686 4.50195,-4.12304 l 2.08008,-25.5918 c -0.16993,-0.0622 -0.34759,-0.12692 -0.62109,-0.19727 -0.71914,-0.18497 -1.73074,-0.3718 -2.87696,-0.53906 -2.2525,-0.32869 -5.03091,-0.58946 -7.38476,-0.7539 v -3e-5 c -0.25979,0.0334 -0.39666,0.0957 -0.48243,0.17968 -0.0873,0.0855 -0.17728,0.25763 -0.23828,0.56055 v 11.90255"
       style="fill:none;stroke:#ff0000;stroke-width:0.264583px;stroke-linecap:butt;stroke-linejoin:miter;stroke-opacity:1" />
    <path
       style="fill:none;stroke:#ff0000;stroke-width:0.264583"
       d="m 18.530943,59.092606 a 0.08955477,0.08955477 0 0 1 -0.0896,-0.0896 0.08955477,0.08955477 0 0 1 0.0896,-0.0896 0.08955477,0.08955477 0 0 1 0.0896,0.0896 0.08955477,0.08955477 0 0 1 -0.0896,0.0896 z"
       id="path2521" />
    <path
       sodipodi:nodetypes="ccscsccscccscsc"
       id="path2436-7-6"
       transform="rotate(90,368.95165,382.17787)"
       d="m 52.712804,687.20525 c 0.599656,0.0749 1.203891,0.11315 1.80868,0.11311 3.930329,-2.2e-4 7.836239,-1.61911 10.615235,-4.39844 2.778996,-2.77933 4.396735,-6.6849 4.396484,-10.61523 -2.19e-4,-3.93003 -1.617534,-7.83629 -4.396484,-10.61524 -1.363525,-1.36352 -2.998448,-2.44739 -4.774412,-3.19778 M 57.5929,657.61948 c -1.00884,-0.21486 -2.039308,-0.32645 -3.071416,-0.32651 -0.002,0 -0.0039,0 -0.0059,0 -0.04241,-1.9e-4 -0.08454,-1.7e-4 -0.126953,0 h -0.0058 c -3.906107,0.036 -7.775381,1.66908 -10.52539,4.44336 -2.751379,2.77565 -4.349543,6.66012 -4.34961,10.56836 -2.51e-4,3.93063 1.617106,7.83782 4.396485,10.61719 1.720286,1.72028 3.872633,2.99541 6.195175,3.71734"
       style="fill:none;stroke:#ff0000;stroke-width:0.330782" />
  </g>
  <g
     sodipodi:insensitive="true"
     style="display:inline"
     inkscape:label="Gcode"
     id="layer2"
     inkscape:groupmode="layer">
    <g
       gcodetools="Gcodetools tool definition"
       transform="matrix(0.50142918,0,0,0.52018348,55.545677,120.45842)"
       id="g183">
      <path
         gcodetools="Gcodetools tool background"
         style="fill-opacity:0.5;stroke:#444444"
         d="M -20,-20 H 380 V 155 H -20 Z"
         id="path101" />
      <g
         gcodetools="Gcodetools tool parameter"
         id="g111">
        <text
           x="0"
           xml:space="preserve"
           y="0"
           style="font-style:normal;font-variant:normal;font-weight:normal;font-stretch:normal;font-size:20px;font-family:'DejaVu Sans';fill:#000000;fill-opacity:1;stroke:none"
           gcodetools="Gcodetools tool definition field name"
           id="text105"><tspan
             x="0"
             y="0"
             sodipodi:role="line"
             id="tspan103">name</tspan></text>
        <text
           x="150"
           xml:space="preserve"
           y="0"
           style="font-style:normal;font-variant:normal;font-weight:normal;font-stretch:normal;font-size:20px;font-family:'DejaVu Sans';fill:#000000;fill-opacity:1;stroke:none"
           gcodetools="Gcodetools tool definition field value"
           id="text109"><tspan
             x="150"
             y="0"
             sodipodi:role="line"
             id="tspan107">Cylindrical cutter</tspan></text>
      </g>
      <g
         gcodetools="Gcodetools tool parameter"
         id="g121">
        <text
           x="0"
           xml:space="preserve"
           y="20"
           style="font-style:normal;font-variant:normal;font-weight:normal;font-stretch:normal;font-size:10px;font-family:'DejaVu Sans';fill:#000000;fill-opacity:1;stroke:none"
           gcodetools="Gcodetools tool definition field name"
           id="text115"><tspan
             x="0"
             y="20"
             sodipodi:role="line"
             id="tspan113">id</tspan></text>
        <text
           x="150"
           xml:space="preserve"
           y="20"
           style="font-style:normal;font-variant:normal;font-weight:normal;font-stretch:normal;font-size:10px;font-family:'DejaVu Sans';fill:#000000;fill-opacity:1;stroke:none"
           gcodetools="Gcodetools tool definition field value"
           id="text119"><tspan
             x="150"
             y="20"
             sodipodi:role="line"
             id="tspan117">Cylindrical cutter 0001</tspan></text>
      </g>
      <g
         gcodetools="Gcodetools tool parameter"
         id="g131">
        <text
           x="0"
           xml:space="preserve"
           y="35"
           style="font-style:normal;font-variant:normal;font-weight:normal;font-stretch:normal;font-size:10px;font-family:'DejaVu Sans';fill:#000000;fill-opacity:1;stroke:none"
           gcodetools="Gcodetools tool definition field name"
           id="text125"><tspan
             x="0"
             y="35"
             sodipodi:role="line"
             id="tspan123">diameter</tspan></text>
        <text
           x="150"
           xml:space="preserve"
           y="35"
           style="font-style:normal;font-variant:normal;font-weight:normal;font-stretch:normal;font-size:10px;font-family:'DejaVu Sans';fill:#000000;fill-opacity:1;stroke:none"
           gcodetools="Gcodetools tool definition field value"
           id="text129"><tspan
             x="150"
             y="35"
             sodipodi:role="line"
             id="tspan127">1.6</tspan></text>
      </g>
      <g
         gcodetools="Gcodetools tool parameter"
         id="g141">
        <text
           x="0"
           xml:space="preserve"
           y="50"
           style="font-style:normal;font-variant:normal;font-weight:normal;font-stretch:normal;font-size:10px;font-family:'DejaVu Sans';fill:#000000;fill-opacity:1;stroke:none"
           gcodetools="Gcodetools tool definition field name"
           id="text135"><tspan
             x="0"
             y="50"
             sodipodi:role="line"
             id="tspan133">feed</tspan></text>
        <text
           x="150"
           xml:space="preserve"
           y="50"
           style="font-style:normal;font-variant:normal;font-weight:normal;font-stretch:normal;font-size:10px;font-family:'DejaVu Sans';fill:#000000;fill-opacity:1;stroke:none"
           gcodetools="Gcodetools tool definition field value"
           id="text139"><tspan
             x="150"
             y="50"
             sodipodi:role="line"
             id="tspan137">150</tspan></text>
      </g>
      <g
         gcodetools="Gcodetools tool parameter"
         id="g151">
        <text
           x="0"
           xml:space="preserve"
           y="65"
           style="font-style:normal;font-variant:normal;font-weight:normal;font-stretch:normal;font-size:10px;font-family:'DejaVu Sans';fill:#000000;fill-opacity:1;stroke:none"
           gcodetools="Gcodetools tool definition field name"
           id="text145"><tspan
             x="0"
             y="65"
             sodipodi:role="line"
             id="tspan143">penetration angle</tspan></text>
        <text
           x="150"
           xml:space="preserve"
           y="65"
           style="font-style:normal;font-variant:normal;font-weight:normal;font-stretch:normal;font-size:10px;font-family:'DejaVu Sans';fill:#000000;fill-opacity:1;stroke:none"
           gcodetools="Gcodetools tool definition field value"
           id="text149"><tspan
             x="150"
             y="65"
             sodipodi:role="line"
             id="tspan147">90</tspan></text>
      </g>
      <g
         gcodetools="Gcodetools tool parameter"
         id="g161">
        <text
           x="0"
           xml:space="preserve"
           y="80"
           style="font-style:normal;font-variant:normal;font-weight:normal;font-stretch:normal;font-size:10px;font-family:'DejaVu Sans';fill:#000000;fill-opacity:1;stroke:none"
           gcodetools="Gcodetools tool definition field name"
           id="text155"><tspan
             x="0"
             y="80"
             sodipodi:role="line"
             id="tspan153">penetration feed</tspan></text>
        <text
           x="150"
           xml:space="preserve"
           y="80"
           style="font-style:normal;font-variant:normal;font-weight:normal;font-stretch:normal;font-size:10px;font-family:'DejaVu Sans';fill:#000000;fill-opacity:1;stroke:none"
           gcodetools="Gcodetools tool definition field value"
           id="text159"><tspan
             x="150"
             y="80"
             sodipodi:role="line"
             id="tspan157">100</tspan></text>
      </g>
      <g
         gcodetools="Gcodetools tool parameter"
         id="g171">
        <text
           x="0"
           xml:space="preserve"
           y="95"
           style="font-style:normal;font-variant:normal;font-weight:normal;font-stretch:normal;font-size:10px;font-family:'DejaVu Sans';fill:#000000;fill-opacity:1;stroke:none"
           gcodetools="Gcodetools tool definition field name"
           id="text165"><tspan
             x="0"
             y="95"
             sodipodi:role="line"
             id="tspan163">depth step</tspan></text>
        <text
           x="150"
           xml:space="preserve"
           y="95"
           style="font-style:normal;font-variant:normal;font-weight:normal;font-stretch:normal;font-size:10px;font-family:'DejaVu Sans';fill:#000000;fill-opacity:1;stroke:none"
           gcodetools="Gcodetools tool definition field value"
           id="text169"><tspan
             x="150"
             y="95"
             sodipodi:role="line"
             id="tspan167">2</tspan></text>
      </g>
      <g
         gcodetools="Gcodetools tool parameter"
         id="g181">
        <text
           x="0"
           xml:space="preserve"
           y="110"
           style="font-style:normal;font-variant:normal;font-weight:normal;font-stretch:normal;font-size:10px;font-family:'DejaVu Sans';fill:#000000;fill-opacity:1;stroke:none"
           gcodetools="Gcodetools tool definition field name"
           id="text175"><tspan
             x="0"
             y="110"
             sodipodi:role="line"
             id="tspan173">tool change gcode</tspan></text>
        <text
           x="150"
           xml:space="preserve"
           y="110"
           style="font-style:normal;font-variant:normal;font-weight:normal;font-stretch:normal;font-size:10px;font-family:'DejaVu Sans';fill:#000000;fill-opacity:1;stroke:none"
           gcodetools="Gcodetools tool definition field value"
           id="text179"><tspan
             x="150"
             y="110"
             sodipodi:role="line"
             id="tspan177">(None)</tspan></text>
      </g>
    </g>
    <g
       gcodetools="Gcodetools orientation group"
       id="g296">
      <g
         gcodetools="Gcodetools orientation point (2 points)"
         id="g286">
        <path
           style="fill:#000000;stroke:none"
           gcodetools="Gcodetools orientation point arrow"
           d="M 0,100 2.9375,93.65625 3.75,95.5625 10.59375,88.71875 v 0 l 0.6875,0.6875 L 4.4375,96.25 6.34375,97.0625 Z"
           id="path280" />
        <text
           x="10"
           xml:space="preserve"
           y="90"
           style="font-style:normal;font-variant:normal;font-weight:normal;font-stretch:normal;font-size:10px;font-family:'DejaVu Sans';fill:#000000;fill-opacity:1;stroke:none"
           gcodetools="Gcodetools orientation point text"
           id="text284"><tspan
             x="10"
             y="90"
             sodipodi:role="line"
             id="tspan282">(0.0; 0.0; 0.0)</tspan></text>
      </g>
      <g
         gcodetools="Gcodetools orientation point (2 points)"
         id="g294">
        <path
           style="fill:#000000;stroke:none"
           gcodetools="Gcodetools orientation point arrow"
           d="m 100,100 2.9375,-6.34375 0.8125,1.90625 6.84375,-6.84375 v 0 l 0.6875,0.6875 -6.84375,6.84375 1.90625,0.8125 z"
           id="path288" />
        <text
           x="110"
           xml:space="preserve"
           y="90"
           style="font-style:normal;font-variant:normal;font-weight:normal;font-stretch:normal;font-size:10px;font-family:'DejaVu Sans';fill:#000000;fill-opacity:1;stroke:none"
           gcodetools="Gcodetools orientation point text"
           id="text292"><tspan
             x="110"
             y="90"
             sodipodi:role="line"
             id="tspan290">(100.0; 0.0; -13)</tspan></text>
      </g>
    </g>
  </g>
  <inkscape:templateinfo>
    <inkscape:name>CNC</inkscape:name>
    <inkscape:date>2020-06-17</inkscape:date>
  </inkscape:templateinfo>
</svg>
