<?xml version="1.0" encoding="UTF-8" standalone="no"?>
<svg
   xmlns:dc="http://purl.org/dc/elements/1.1/"
   xmlns:cc="http://creativecommons.org/ns#"
   xmlns:rdf="http://www.w3.org/1999/02/22-rdf-syntax-ns#"
   xmlns:svg="http://www.w3.org/2000/svg"
   xmlns="http://www.w3.org/2000/svg"
   xmlns:sodipodi="http://sodipodi.sourceforge.net/DTD/sodipodi-0.dtd"
   xmlns:inkscape="http://www.inkscape.org/namespaces/inkscape"
   id="svg1028"
   version="1.1"
   viewBox="0 0 290 100"
   height="100mm"
   width="290mm"
   inkscape:version="1.0 (4035a4fb49, 2020-05-01)"
   sodipodi:docname="F17.svg">
  <defs
     id="defs1022">
    <marker
       style="overflow:visible"
       refY="-1.687441"
       refX="-4"
       orient="auto"
       id="CheckToolsAndOPMarker">
      <path
         id="path309"
         style="fill:#000044;fill-rule:evenodd;stroke:none"
         d="m 4.588864,-1.687441 0.0,0.0 L 9.177728,0.0 c -0.73311,-0.996261 -0.728882,-2.359329 0.0,-3.374882" />
    </marker>
    <marker
       style="overflow:visible"
       refY="-1.687441"
       refX="-4"
       orient="auto"
       id="DrawCurveMarker">
      <path
         id="path312"
         style="fill:#000044;fill-rule:evenodd;stroke:none"
         d="m 4.588864,-1.687441 0.0,0.0 L 9.177728,0.0 c -0.73311,-0.996261 -0.728882,-2.359329 0.0,-3.374882" />
    </marker>
    <marker
       style="overflow:visible"
       refY="-1.687441"
       refX="4"
       orient="auto"
       id="DrawCurveMarker_r">
      <path
         id="path315"
         style="fill:#000044;fill-rule:evenodd;stroke:none"
         d="m -4.588864,-1.687441 0.0,0.0 L -9.177728,0.0 c 0.73311,-0.996261 0.728882,-2.359329 0.0,-3.374882" />
    </marker>
    <marker
       style="overflow:visible"
       refY="-1.687441"
       refX="-4"
       orient="auto"
       id="InOutPathMarker">
      <path
         id="path318"
         style="fill:#0072a7;fill-rule:evenodd;stroke:none"
         d="m 4.588864,-1.687441 0.0,0.0 L 9.177728,0.0 c -0.73311,-0.996261 -0.728882,-2.359329 0.0,-3.374882" />
    </marker>
  </defs>
  <sodipodi:namedview
     inkscape:snap-global="false"
     inkscape:window-maximized="0"
     inkscape:window-y="0"
     inkscape:window-x="68"
     inkscape:window-height="696"
     inkscape:window-width="1274"
     showgrid="false"
     inkscape:document-rotation="0"
     inkscape:current-layer="layer1"
     inkscape:document-units="mm"
     inkscape:cy="135.07744"
     inkscape:cx="150.66736"
     inkscape:zoom="0.98994949"
     inkscape:pageshadow="2"
     inkscape:pageopacity="0.0"
     borderopacity="1.0"
     bordercolor="#666666"
     pagecolor="#ffffff"
     id="base" />
  <metadata
     id="metadata1025">
    <rdf:RDF>
      <cc:Work
         rdf:about="">
        <dc:format>image/svg+xml</dc:format>
        <dc:type
           rdf:resource="http://purl.org/dc/dcmitype/StillImage" />
        <dc:title />
      </cc:Work>
    </rdf:RDF>
  </metadata>
  <g
     id="layer1"
     inkscape:groupmode="layer"
     inkscape:label="Layer 1">
    <path
       sodipodi:nodetypes="cscccssscccsscccccscsscccccsc"
       id="path3235"
       d="m 53.124009,57.933354 c -1.55529,-0.331969 -3.16995,-0.605727 -4.845262,-0.8168 -0.687985,-0.08668 -1.29628,0.0945 -1.29687,0.78796 v 2.49525 h -4.1543 v -2.65989 c 0,-0.63483 -0.5136,-0.63077 -1.14843,-0.63308 v -1.4e-4 c -0.0378,1.4e-4 -0.0756,0.002 -0.11329,0.006 -11.211288,1.07617 -19.654665,5.738087 -25.754159,11.614969 m -2.790037,2.951512 c -0.700387,0.813045 -1.361768,1.640316 -1.985094,2.476489 -6.1573001,8.25983 -8.6937303,17.29003 -8.7011703,22.564451 -9.2e-4,0.63712 -0.0579,1.154139 0.57919,1.154298 h 4.7025948 m 4.1426775,0 h 6.790598 c 0.55562,-2.65e-4 0.4946,-0.396968 0.59548,-0.943359 0.55051,-2.988389 1.86388,-8.411821 5.5918,-13.181639 3.72278,-4.763261 9.80104,-8.935201 20.29687,-9.503911 8.94739,0.11751 15.01589,3.67306 19.09571,8.25391 4.08561,4.587349 6.12584,10.260759 6.70508,14.382809 0.0799,0.568701 0.13647,0.991801 0.71076,0.99219 h 5.828371 m 4.142678,0 h 5.406911 c 0.68015,-5.29e-4 0.74634,-0.58669 0.68081,-1.263668 C 86.790837,88.153624 83.672826,79.136245 77.376407,71.784524 72.380448,65.951226 65.377329,61.196544 56.045259,58.6432"
       style="fill:none;stroke:#ff0000;stroke-width:0.264583px;stroke-linecap:butt;stroke-linejoin:miter;stroke-opacity:1" />
    <path
       sodipodi:nodetypes="cccccccccccccccccccccccc"
       id="path4287"
       transform="translate(-239.24599,-678.40108)"
       d="m 261.54659,731.33998 h 17.85825 c 0.55637,-5.6e-4 0.44029,-0.45144 0.44085,-1.00781 v -4.05078 h 1.22461 v 4.05078 c 5.6e-4,0.55637 -0.12734,1.00725 0.42903,1.00781 h 39.29502 m 2.26786,0 h 26.55887 c 0.55637,-5.5e-4 1.00726,0.033 1.00782,-0.52338 v -16.78912 c -4.7e-4,-0.56408 -0.46337,-1.01817 -1.02735,-1.00781 l 1e-5,-1.4e-4 c -0.0307,6e-4 -0.0613,0.003 -0.0918,0.006 l -18.30445,2.02594 m -3.74032,0.41398 -62.42661,6.90938 m -3.5937,0.39775 -16.15563,1.78811 c -0.51026,0.0572 -0.89618,0.0869 -0.89648,0.60035 v 5.6436 c 5.6e-4,0.55637 0.0735,0.53478 0.62983,0.53534 h 14.6343"
       style="fill:none;stroke:#ff0000;stroke-width:0.264583px;stroke-linecap:butt;stroke-linejoin:miter;stroke-opacity:1" />
    <path
       style="fill:none;stroke:#ff0000;stroke-width:0.264583px;stroke-linecap:butt;stroke-linejoin:miter;stroke-opacity:1"
       d="m 94.228905,23.964935 h -17.85825 c -0.556371,5.56e-4 -0.44029,0.45144 -0.440849,1.00781 v 4.050781 h -1.22461 v -4.050781 c -5.29e-4,-0.55637 0.127338,-1.00725 -0.42903,-1.00781 H 34.981144 m -2.267861,0 H 6.154413 c -0.55637,5.56e-4 -1.00726,-0.033 -1.00782,0.52338 v 16.78912 c 5.3e-4,0.56408 0.46337,1.01817 1.02735,1.00781 l -1e-5,1.4e-4 c 0.0307,-6e-4 0.0613,-0.003 0.0918,-0.006 l 18.304451,-2.02594 m 3.740322,-0.41398 62.426609,-6.90938 m 3.5937,-0.39775 16.155635,-1.788109 c 0.51026,-0.0572 0.89618,-0.0869 0.89648,-0.600351 v -5.6436 c -5.6e-4,-0.55637 -0.0735,-0.53478 -0.62983,-0.53534 H 96.118795"
       id="path4287-5"
       sodipodi:nodetypes="cccccccccccccccccccccccc" />
  </g>
  <g
     sodipodi:insensitive="true"
     inkscape:groupmode="layer"
     id="layer2"
     inkscape:label="Gcode"
     style="display:inline">
    <g
       id="g183"
       transform="matrix(0.50142918,0,0,0.52018348,55.545677,120.45842)"
       gcodetools="Gcodetools tool definition">
      <path
         id="path101"
         d="M -20,-20 H 380 V 155 H -20 Z"
         style="fill-opacity:0.5;stroke:#444444"
         gcodetools="Gcodetools tool background" />
      <g
         id="g111"
         gcodetools="Gcodetools tool parameter">
        <text
           id="text105"
           gcodetools="Gcodetools tool definition field name"
           style="font-style:normal;font-variant:normal;font-weight:normal;font-stretch:normal;font-size:20px;font-family:'DejaVu Sans';fill:#000000;fill-opacity:1;stroke:none"
           y="0"
           xml:space="preserve"
           x="0"><tspan
             id="tspan103"
             sodipodi:role="line"
             y="0"
             x="0">name</tspan></text>
        <text
           id="text109"
           gcodetools="Gcodetools tool definition field value"
           style="font-style:normal;font-variant:normal;font-weight:normal;font-stretch:normal;font-size:20px;font-family:'DejaVu Sans';fill:#000000;fill-opacity:1;stroke:none"
           y="0"
           xml:space="preserve"
           x="150"><tspan
             id="tspan107"
             sodipodi:role="line"
             y="0"
             x="150">Cylindrical cutter</tspan></text>
      </g>
      <g
         id="g121"
         gcodetools="Gcodetools tool parameter">
        <text
           id="text115"
           gcodetools="Gcodetools tool definition field name"
           style="font-style:normal;font-variant:normal;font-weight:normal;font-stretch:normal;font-size:10px;font-family:'DejaVu Sans';fill:#000000;fill-opacity:1;stroke:none"
           y="20"
           xml:space="preserve"
           x="0"><tspan
             id="tspan113"
             sodipodi:role="line"
             y="20"
             x="0">id</tspan></text>
        <text
           id="text119"
           gcodetools="Gcodetools tool definition field value"
           style="font-style:normal;font-variant:normal;font-weight:normal;font-stretch:normal;font-size:10px;font-family:'DejaVu Sans';fill:#000000;fill-opacity:1;stroke:none"
           y="20"
           xml:space="preserve"
           x="150"><tspan
             id="tspan117"
             sodipodi:role="line"
             y="20"
             x="150">Cylindrical cutter 0001</tspan></text>
      </g>
      <g
         id="g131"
         gcodetools="Gcodetools tool parameter">
        <text
           id="text125"
           gcodetools="Gcodetools tool definition field name"
           style="font-style:normal;font-variant:normal;font-weight:normal;font-stretch:normal;font-size:10px;font-family:'DejaVu Sans';fill:#000000;fill-opacity:1;stroke:none"
           y="35"
           xml:space="preserve"
           x="0"><tspan
             id="tspan123"
             sodipodi:role="line"
             y="35"
             x="0">diameter</tspan></text>
        <text
           id="text129"
           gcodetools="Gcodetools tool definition field value"
           style="font-style:normal;font-variant:normal;font-weight:normal;font-stretch:normal;font-size:10px;font-family:'DejaVu Sans';fill:#000000;fill-opacity:1;stroke:none"
           y="35"
           xml:space="preserve"
           x="150"><tspan
             id="tspan127"
             sodipodi:role="line"
             y="35"
             x="150">1.6</tspan></text>
      </g>
      <g
         id="g141"
         gcodetools="Gcodetools tool parameter">
        <text
           id="text135"
           gcodetools="Gcodetools tool definition field name"
           style="font-style:normal;font-variant:normal;font-weight:normal;font-stretch:normal;font-size:10px;font-family:'DejaVu Sans';fill:#000000;fill-opacity:1;stroke:none"
           y="50"
           xml:space="preserve"
           x="0"><tspan
             id="tspan133"
             sodipodi:role="line"
             y="50"
             x="0">feed</tspan></text>
        <text
           id="text139"
           gcodetools="Gcodetools tool definition field value"
           style="font-style:normal;font-variant:normal;font-weight:normal;font-stretch:normal;font-size:10px;font-family:'DejaVu Sans';fill:#000000;fill-opacity:1;stroke:none"
           y="50"
           xml:space="preserve"
           x="150"><tspan
             id="tspan137"
             sodipodi:role="line"
             y="50"
             x="150">150</tspan></text>
      </g>
      <g
         id="g151"
         gcodetools="Gcodetools tool parameter">
        <text
           id="text145"
           gcodetools="Gcodetools tool definition field name"
           style="font-style:normal;font-variant:normal;font-weight:normal;font-stretch:normal;font-size:10px;font-family:'DejaVu Sans';fill:#000000;fill-opacity:1;stroke:none"
           y="65"
           xml:space="preserve"
           x="0"><tspan
             id="tspan143"
             sodipodi:role="line"
             y="65"
             x="0">penetration angle</tspan></text>
        <text
           id="text149"
           gcodetools="Gcodetools tool definition field value"
           style="font-style:normal;font-variant:normal;font-weight:normal;font-stretch:normal;font-size:10px;font-family:'DejaVu Sans';fill:#000000;fill-opacity:1;stroke:none"
           y="65"
           xml:space="preserve"
           x="150"><tspan
             id="tspan147"
             sodipodi:role="line"
             y="65"
             x="150">90</tspan></text>
      </g>
      <g
         id="g161"
         gcodetools="Gcodetools tool parameter">
        <text
           id="text155"
           gcodetools="Gcodetools tool definition field name"
           style="font-style:normal;font-variant:normal;font-weight:normal;font-stretch:normal;font-size:10px;font-family:'DejaVu Sans';fill:#000000;fill-opacity:1;stroke:none"
           y="80"
           xml:space="preserve"
           x="0"><tspan
             id="tspan153"
             sodipodi:role="line"
             y="80"
             x="0">penetration feed</tspan></text>
        <text
           id="text159"
           gcodetools="Gcodetools tool definition field value"
           style="font-style:normal;font-variant:normal;font-weight:normal;font-stretch:normal;font-size:10px;font-family:'DejaVu Sans';fill:#000000;fill-opacity:1;stroke:none"
           y="80"
           xml:space="preserve"
           x="150"><tspan
             id="tspan157"
             sodipodi:role="line"
             y="80"
             x="150">100</tspan></text>
      </g>
      <g
         id="g171"
         gcodetools="Gcodetools tool parameter">
        <text
           id="text165"
           gcodetools="Gcodetools tool definition field name"
           style="font-style:normal;font-variant:normal;font-weight:normal;font-stretch:normal;font-size:10px;font-family:'DejaVu Sans';fill:#000000;fill-opacity:1;stroke:none"
           y="95"
           xml:space="preserve"
           x="0"><tspan
             id="tspan163"
             sodipodi:role="line"
             y="95"
             x="0">depth step</tspan></text>
        <text
           id="text169"
           gcodetools="Gcodetools tool definition field value"
           style="font-style:normal;font-variant:normal;font-weight:normal;font-stretch:normal;font-size:10px;font-family:'DejaVu Sans';fill:#000000;fill-opacity:1;stroke:none"
           y="95"
           xml:space="preserve"
           x="150"><tspan
             id="tspan167"
             sodipodi:role="line"
             y="95"
             x="150">2</tspan></text>
      </g>
      <g
         id="g181"
         gcodetools="Gcodetools tool parameter">
        <text
           id="text175"
           gcodetools="Gcodetools tool definition field name"
           style="font-style:normal;font-variant:normal;font-weight:normal;font-stretch:normal;font-size:10px;font-family:'DejaVu Sans';fill:#000000;fill-opacity:1;stroke:none"
           y="110"
           xml:space="preserve"
           x="0"><tspan
             id="tspan173"
             sodipodi:role="line"
             y="110"
             x="0">tool change gcode</tspan></text>
        <text
           id="text179"
           gcodetools="Gcodetools tool definition field value"
           style="font-style:normal;font-variant:normal;font-weight:normal;font-stretch:normal;font-size:10px;font-family:'DejaVu Sans';fill:#000000;fill-opacity:1;stroke:none"
           y="110"
           xml:space="preserve"
           x="150"><tspan
             id="tspan177"
             sodipodi:role="line"
             y="110"
             x="150">(None)</tspan></text>
      </g>
    </g>
    <g
       id="g296"
       gcodetools="Gcodetools orientation group">
      <g
         id="g286"
         gcodetools="Gcodetools orientation point (2 points)">
        <path
           id="path280"
           d="M 0,100 2.9375,93.65625 3.75,95.5625 10.59375,88.71875 v 0 l 0.6875,0.6875 L 4.4375,96.25 6.34375,97.0625 Z"
           gcodetools="Gcodetools orientation point arrow"
           style="fill:#000000;stroke:none" />
        <text
           id="text284"
           gcodetools="Gcodetools orientation point text"
           style="font-style:normal;font-variant:normal;font-weight:normal;font-stretch:normal;font-size:10px;font-family:'DejaVu Sans';fill:#000000;fill-opacity:1;stroke:none"
           y="90"
           xml:space="preserve"
           x="10"><tspan
             id="tspan282"
             sodipodi:role="line"
             y="90"
             x="10">(0.0; 0.0; 0.0)</tspan></text>
      </g>
      <g
         id="g294"
         gcodetools="Gcodetools orientation point (2 points)">
        <path
           id="path288"
           d="m 100,100 2.9375,-6.34375 0.8125,1.90625 6.84375,-6.84375 v 0 l 0.6875,0.6875 -6.84375,6.84375 1.90625,0.8125 z"
           gcodetools="Gcodetools orientation point arrow"
           style="fill:#000000;stroke:none" />
        <text
           id="text292"
           gcodetools="Gcodetools orientation point text"
           style="font-style:normal;font-variant:normal;font-weight:normal;font-stretch:normal;font-size:10px;font-family:'DejaVu Sans';fill:#000000;fill-opacity:1;stroke:none"
           y="90"
           xml:space="preserve"
           x="110"><tspan
             id="tspan290"
             sodipodi:role="line"
             y="90"
             x="110">(100.0; 0.0; -2)</tspan></text>
      </g>
    </g>
  </g>
  <inkscape:templateinfo>
    <inkscape:name>CNC</inkscape:name>
    <inkscape:date>2020-06-17</inkscape:date>
  </inkscape:templateinfo>
</svg>
