<?xml version="1.0" encoding="UTF-8" standalone="no"?>
<svg
   xmlns:dc="http://purl.org/dc/elements/1.1/"
   xmlns:cc="http://creativecommons.org/ns#"
   xmlns:rdf="http://www.w3.org/1999/02/22-rdf-syntax-ns#"
   xmlns:svg="http://www.w3.org/2000/svg"
   xmlns="http://www.w3.org/2000/svg"
   xmlns:sodipodi="http://sodipodi.sourceforge.net/DTD/sodipodi-0.dtd"
   xmlns:inkscape="http://www.inkscape.org/namespaces/inkscape"
   id="svg1028"
   version="1.1"
   viewBox="0 0 290 100"
   height="100mm"
   width="290mm"
   inkscape:version="1.0 (4035a4fb49, 2020-05-01)"
   sodipodi:docname="F5.svg">
  <defs
     id="defs1022">
    <marker
       id="CheckToolsAndOPMarker"
       orient="auto"
       refX="-4"
       refY="-1.687441"
       style="overflow:visible">
      <path
         d="m 4.588864,-1.687441 0.0,0.0 L 9.177728,0.0 c -0.73311,-0.996261 -0.728882,-2.359329 0.0,-3.374882"
         style="fill:#000044;fill-rule:evenodd;stroke:none"
         id="path309" />
    </marker>
    <marker
       id="DrawCurveMarker"
       orient="auto"
       refX="-4"
       refY="-1.687441"
       style="overflow:visible">
      <path
         d="m 4.588864,-1.687441 0.0,0.0 L 9.177728,0.0 c -0.73311,-0.996261 -0.728882,-2.359329 0.0,-3.374882"
         style="fill:#000044;fill-rule:evenodd;stroke:none"
         id="path312" />
    </marker>
    <marker
       id="DrawCurveMarker_r"
       orient="auto"
       refX="4"
       refY="-1.687441"
       style="overflow:visible">
      <path
         d="m -4.588864,-1.687441 0.0,0.0 L -9.177728,0.0 c 0.73311,-0.996261 0.728882,-2.359329 0.0,-3.374882"
         style="fill:#000044;fill-rule:evenodd;stroke:none"
         id="path315" />
    </marker>
    <marker
       id="InOutPathMarker"
       orient="auto"
       refX="-4"
       refY="-1.687441"
       style="overflow:visible">
      <path
         d="m 4.588864,-1.687441 0.0,0.0 L 9.177728,0.0 c -0.73311,-0.996261 -0.728882,-2.359329 0.0,-3.374882"
         style="fill:#0072a7;fill-rule:evenodd;stroke:none"
         id="path318" />
    </marker>
  </defs>
  <sodipodi:namedview
     inkscape:snap-global="false"
     inkscape:guide-bbox="true"
     showguides="true"
     id="base"
     pagecolor="#ffffff"
     bordercolor="#666666"
     borderopacity="1.0"
     inkscape:pageopacity="0.0"
     inkscape:pageshadow="2"
     inkscape:zoom="0.49497475"
     inkscape:cx="536.63154"
     inkscape:cy="249.30041"
     inkscape:document-units="mm"
     inkscape:current-layer="layer2"
     inkscape:document-rotation="0"
     showgrid="false"
     inkscape:window-width="1274"
     inkscape:window-height="696"
     inkscape:window-x="68"
     inkscape:window-y="0"
     inkscape:window-maximized="0" />
  <metadata
     id="metadata1025">
    <rdf:RDF>
      <cc:Work
         rdf:about="">
        <dc:format>image/svg+xml</dc:format>
        <dc:type
           rdf:resource="http://purl.org/dc/dcmitype/StillImage" />
        <dc:title />
      </cc:Work>
    </rdf:RDF>
  </metadata>
  <g
     sodipodi:insensitive="true"
     inkscape:label="Layer 1"
     inkscape:groupmode="layer"
     id="layer1">
    <path
       style="fill:none;stroke:#ff0000;stroke-width:0.264583px;stroke-linecap:butt;stroke-linejoin:miter;stroke-opacity:1"
       d="m 43.965837,97.870955 h 20.510307 c 0.650504,1.6e-4 1.177891,-0.527217 1.177731,-1.177724 v -3.587882 l 17.973358,0.06578 c 0.632907,-0.023 1.225264,-0.701428 1.225744,-1.334758 V 67.773319 h 1.980458 c 0.650507,1.6e-4 1.177894,-0.52723 1.177734,-1.17774 V 52.538691 m 0,-3.779762 v -9.805921 c 1.6e-4,-0.65051 -0.527227,-1.177902 -1.177734,-1.177743 H 84.852977 V 11.195186 c 1.6e-4,-0.65051 -0.527217,-0.990801 -1.177724,-0.990639 h -1.228501 c 0.0908,-0.170112 0.138397,-0.5470097 0.138667,-0.7398304 V 6.9925595 m 0,-3.0238095 V 0.42174986 h 2.177718 c 0.792977,9e-5 1.359324,-0.76782092 1.124994,-1.52539096 C 82.794399,-11.140902 78.413633,-20.234464 72.276879,-27.027464 66.140132,-33.820475 58.19372,-38.285565 48.247724,-38.904425 c -0.677754,-0.0418 -1.250321,0.49673 -1.249991,1.17578 v 1.62891 h -3.982409 v -1.62891 c 2.7e-4,-0.64146 -0.512947,-1.16511 -1.154284,-1.17773 v -9e-5 c -0.0398,-6.8e-4 -0.0795,6.6e-4 -0.119137,0.004 -9.629126,0.78417 -17.378344,4.88423 -23.478388,11.464841 -6.100047,6.58061 -10.5902985,15.601693 -13.9901487,26.3261719 -0.2406867,0.75938104 0.32643,1.53361996 1.1230334,1.53320196 H 7.4061565 V 3.0238095 m 0,2.8348215 v 3.6060856 c 2.7e-4,0.1928207 0.0479,0.5697184 0.13867,0.7398304 H 6.5487431 C 5.8982364,10.204385 5.3708497,10.544676 5.3710097,11.195186 V 37.775265 H 3.2753229 c -0.6505037,-1.59e-4 -1.1778804,0.527233 -1.1777204,1.177743 v 9.238956 m 0,4.346727 v 14.056888 c -1.6e-4,0.65051 0.5272167,1.1779 1.1777204,1.17774 h 2.0956868 v 24.19726 c -1.6e-4,0.65051 0.5272267,1.1779 1.1777334,1.17774 H 24.431449 v 3.544912 c -1.6e-4,0.650507 0.527217,1.177884 1.177724,1.177724 h 15.77922"
       id="path2525"
       sodipodi:nodetypes="cccccccccccccccccccccccscccccsscsscccccccccccccccccccccc" />
    <path
       sodipodi:nodetypes="ccscccscscccsccccscc"
       id="path2533"
       transform="translate(-487.225, -504.281)"
       d="m 531.59197,582.07227 h 22.80647 c 1.03373,-0.34015 1.93861,-0.69372 2.57617,-1.26563 0.66008,-0.59212 1.15352,-1.41855 1.33594,-3.0332 v -20.95325 m 0,-4.53571 v -36.66729 c 0,-0.1125 -0.0448,-0.86318 -0.17578,-1.89844 -0.13094,-1.03526 -0.3448,-2.41613 -0.67579,-4.02148 -0.66197,-3.21072 -1.79234,-7.31839 -3.64257,-11.3711 -3.69426,-8.09178 -10.09412,-15.85523 -21.54493,-16.41797 m -2.95513,0.34503 c -8.02158,1.44908 -13.37252,6.80699 -16.96479,13.15107 -4.02186,7.10276 -5.69707,15.41114 -6.03515,20.23047 v 37.21667 m 0,3.40179 v 21.46357 c 0.13786,1.11986 0.42481,2.04049 0.98828,2.74804 0.5579,0.70057 1.42383,1.26616 2.95312,1.60743 h 19.46327"
       style="fill:none;stroke:#ff0000;stroke-width:0.264583px;stroke-linecap:butt;stroke-linejoin:miter;stroke-opacity:1" />
  </g>
  <g
     style="display:inline;opacity:1"
     inkscape:label="Gcode"
     id="layer2"
     inkscape:groupmode="layer">
    <g
       gcodetools="Gcodetools tool definition"
       transform="matrix(0.50142918,0,0,0.52018348,55.545677,120.45842)"
       id="g183">
      <path
         gcodetools="Gcodetools tool background"
         style="fill-opacity:0.5;stroke:#444444"
         d="M -20,-20 H 380 V 155 H -20 Z"
         id="path101" />
      <g
         gcodetools="Gcodetools tool parameter"
         id="g111">
        <text
           x="0"
           xml:space="preserve"
           y="0"
           style="font-style:normal;font-variant:normal;font-weight:normal;font-stretch:normal;font-size:20px;font-family:'DejaVu Sans';fill:#000000;fill-opacity:1;stroke:none"
           gcodetools="Gcodetools tool definition field name"
           id="text105"><tspan
             x="0"
             y="0"
             sodipodi:role="line"
             id="tspan103">name</tspan></text>
        <text
           x="150"
           xml:space="preserve"
           y="0"
           style="font-style:normal;font-variant:normal;font-weight:normal;font-stretch:normal;font-size:20px;font-family:'DejaVu Sans';fill:#000000;fill-opacity:1;stroke:none"
           gcodetools="Gcodetools tool definition field value"
           id="text109"><tspan
             x="150"
             y="0"
             sodipodi:role="line"
             id="tspan107">Cylindrical cutter</tspan></text>
      </g>
      <g
         gcodetools="Gcodetools tool parameter"
         id="g121">
        <text
           x="0"
           xml:space="preserve"
           y="20"
           style="font-style:normal;font-variant:normal;font-weight:normal;font-stretch:normal;font-size:10px;font-family:'DejaVu Sans';fill:#000000;fill-opacity:1;stroke:none"
           gcodetools="Gcodetools tool definition field name"
           id="text115"><tspan
             x="0"
             y="20"
             sodipodi:role="line"
             id="tspan113">id</tspan></text>
        <text
           x="150"
           xml:space="preserve"
           y="20"
           style="font-style:normal;font-variant:normal;font-weight:normal;font-stretch:normal;font-size:10px;font-family:'DejaVu Sans';fill:#000000;fill-opacity:1;stroke:none"
           gcodetools="Gcodetools tool definition field value"
           id="text119"><tspan
             x="150"
             y="20"
             sodipodi:role="line"
             id="tspan117">Cylindrical cutter 0001</tspan></text>
      </g>
      <g
         gcodetools="Gcodetools tool parameter"
         id="g131">
        <text
           x="0"
           xml:space="preserve"
           y="35"
           style="font-style:normal;font-variant:normal;font-weight:normal;font-stretch:normal;font-size:10px;font-family:'DejaVu Sans';fill:#000000;fill-opacity:1;stroke:none"
           gcodetools="Gcodetools tool definition field name"
           id="text125"><tspan
             x="0"
             y="35"
             sodipodi:role="line"
             id="tspan123">diameter</tspan></text>
        <text
           x="150"
           xml:space="preserve"
           y="35"
           style="font-style:normal;font-variant:normal;font-weight:normal;font-stretch:normal;font-size:10px;font-family:'DejaVu Sans';fill:#000000;fill-opacity:1;stroke:none"
           gcodetools="Gcodetools tool definition field value"
           id="text129"><tspan
             x="150"
             y="35"
             sodipodi:role="line"
             id="tspan127">1.6</tspan></text>
      </g>
      <g
         gcodetools="Gcodetools tool parameter"
         id="g141">
        <text
           x="0"
           xml:space="preserve"
           y="50"
           style="font-style:normal;font-variant:normal;font-weight:normal;font-stretch:normal;font-size:10px;font-family:'DejaVu Sans';fill:#000000;fill-opacity:1;stroke:none"
           gcodetools="Gcodetools tool definition field name"
           id="text135"><tspan
             x="0"
             y="50"
             sodipodi:role="line"
             id="tspan133">feed</tspan></text>
        <text
           x="150"
           xml:space="preserve"
           y="50"
           style="font-style:normal;font-variant:normal;font-weight:normal;font-stretch:normal;font-size:10px;font-family:'DejaVu Sans';fill:#000000;fill-opacity:1;stroke:none"
           gcodetools="Gcodetools tool definition field value"
           id="text139"><tspan
             x="150"
             y="50"
             sodipodi:role="line"
             id="tspan137">250</tspan></text>
      </g>
      <g
         gcodetools="Gcodetools tool parameter"
         id="g151">
        <text
           x="0"
           xml:space="preserve"
           y="65"
           style="font-style:normal;font-variant:normal;font-weight:normal;font-stretch:normal;font-size:10px;font-family:'DejaVu Sans';fill:#000000;fill-opacity:1;stroke:none"
           gcodetools="Gcodetools tool definition field name"
           id="text145"><tspan
             x="0"
             y="65"
             sodipodi:role="line"
             id="tspan143">penetration angle</tspan></text>
        <text
           x="150"
           xml:space="preserve"
           y="65"
           style="font-style:normal;font-variant:normal;font-weight:normal;font-stretch:normal;font-size:10px;font-family:'DejaVu Sans';fill:#000000;fill-opacity:1;stroke:none"
           gcodetools="Gcodetools tool definition field value"
           id="text149"><tspan
             x="150"
             y="65"
             sodipodi:role="line"
             id="tspan147">90</tspan></text>
      </g>
      <g
         gcodetools="Gcodetools tool parameter"
         id="g161">
        <text
           x="0"
           xml:space="preserve"
           y="80"
           style="font-style:normal;font-variant:normal;font-weight:normal;font-stretch:normal;font-size:10px;font-family:'DejaVu Sans';fill:#000000;fill-opacity:1;stroke:none"
           gcodetools="Gcodetools tool definition field name"
           id="text155"><tspan
             x="0"
             y="80"
             sodipodi:role="line"
             id="tspan153">penetration feed</tspan></text>
        <text
           x="150"
           xml:space="preserve"
           y="80"
           style="font-style:normal;font-variant:normal;font-weight:normal;font-stretch:normal;font-size:10px;font-family:'DejaVu Sans';fill:#000000;fill-opacity:1;stroke:none"
           gcodetools="Gcodetools tool definition field value"
           id="text159"><tspan
             x="150"
             y="80"
             sodipodi:role="line"
             id="tspan157">100</tspan></text>
      </g>
      <g
         gcodetools="Gcodetools tool parameter"
         id="g171">
        <text
           x="0"
           xml:space="preserve"
           y="95"
           style="font-style:normal;font-variant:normal;font-weight:normal;font-stretch:normal;font-size:10px;font-family:'DejaVu Sans';fill:#000000;fill-opacity:1;stroke:none"
           gcodetools="Gcodetools tool definition field name"
           id="text165"><tspan
             x="0"
             y="95"
             sodipodi:role="line"
             id="tspan163">depth step</tspan></text>
        <text
           x="150"
           xml:space="preserve"
           y="95"
           style="font-style:normal;font-variant:normal;font-weight:normal;font-stretch:normal;font-size:10px;font-family:'DejaVu Sans';fill:#000000;fill-opacity:1;stroke:none"
           gcodetools="Gcodetools tool definition field value"
           id="text169"><tspan
             x="150"
             y="95"
             sodipodi:role="line"
             id="tspan167">2</tspan></text>
      </g>
      <g
         gcodetools="Gcodetools tool parameter"
         id="g181">
        <text
           x="0"
           xml:space="preserve"
           y="110"
           style="font-style:normal;font-variant:normal;font-weight:normal;font-stretch:normal;font-size:10px;font-family:'DejaVu Sans';fill:#000000;fill-opacity:1;stroke:none"
           gcodetools="Gcodetools tool definition field name"
           id="text175"><tspan
             x="0"
             y="110"
             sodipodi:role="line"
             id="tspan173">tool change gcode</tspan></text>
        <text
           x="150"
           xml:space="preserve"
           y="110"
           style="font-style:normal;font-variant:normal;font-weight:normal;font-stretch:normal;font-size:10px;font-family:'DejaVu Sans';fill:#000000;fill-opacity:1;stroke:none"
           gcodetools="Gcodetools tool definition field value"
           id="text179"><tspan
             x="150"
             y="110"
             sodipodi:role="line"
             id="tspan177">(None)</tspan></text>
      </g>
    </g>
    <g
       gcodetools="Gcodetools orientation group"
       id="g296">
      <g
         gcodetools="Gcodetools orientation point (2 points)"
         id="g286">
        <path
           style="fill:#000000;stroke:none"
           gcodetools="Gcodetools orientation point arrow"
           d="M 0,100 2.9375,93.65625 3.75,95.5625 10.59375,88.71875 v 0 l 0.6875,0.6875 L 4.4375,96.25 6.34375,97.0625 Z"
           id="path280" />
        <text
           x="10"
           xml:space="preserve"
           y="90"
           style="font-style:normal;font-variant:normal;font-weight:normal;font-stretch:normal;font-size:10px;font-family:'DejaVu Sans';fill:#000000;fill-opacity:1;stroke:none"
           gcodetools="Gcodetools orientation point text"
           id="text284"><tspan
             x="10"
             y="90"
             sodipodi:role="line"
             id="tspan282">(0.0; 0.0; 0.0)</tspan></text>
      </g>
      <g
         gcodetools="Gcodetools orientation point (2 points)"
         id="g294">
        <path
           style="fill:#000000;stroke:none"
           gcodetools="Gcodetools orientation point arrow"
           d="m 100,100 2.9375,-6.34375 0.8125,1.90625 6.84375,-6.84375 v 0 l 0.6875,0.6875 -6.84375,6.84375 1.90625,0.8125 z"
           id="path288" />
        <text
           x="110"
           xml:space="preserve"
           y="90"
           style="font-style:normal;font-variant:normal;font-weight:normal;font-stretch:normal;font-size:10px;font-family:'DejaVu Sans';fill:#000000;fill-opacity:1;stroke:none"
           gcodetools="Gcodetools orientation point text"
           id="text292"><tspan
             dx="0 0 0 0 0 0 0 0 0 0 0 0 0 0 0 0 0 0 0 0"
             x="110"
             y="90"
             sodipodi:role="line"
             id="tspan290">(100.0; 0.0; -1.5875)</tspan></text>
      </g>
    </g>
  </g>
  <inkscape:templateinfo>
    <inkscape:name>CNC</inkscape:name>
    <inkscape:date>2020-06-17</inkscape:date>
  </inkscape:templateinfo>
  <g
     id="g2928" />
</svg>
