<?xml version="1.0" encoding="UTF-8" standalone="no"?>
<svg
   xmlns:dc="http://purl.org/dc/elements/1.1/"
   xmlns:cc="http://creativecommons.org/ns#"
   xmlns:rdf="http://www.w3.org/1999/02/22-rdf-syntax-ns#"
   xmlns:svg="http://www.w3.org/2000/svg"
   xmlns="http://www.w3.org/2000/svg"
   xmlns:sodipodi="http://sodipodi.sourceforge.net/DTD/sodipodi-0.dtd"
   xmlns:inkscape="http://www.inkscape.org/namespaces/inkscape"
   id="svg1028"
   version="1.1"
   viewBox="0 0 290 100"
   height="100mm"
   width="290mm"
   inkscape:version="1.0 (4035a4f, 2020-05-01)"
   sodipodi:docname="Riblet.svg">
  <defs
     id="defs1022">
    <marker
       id="CheckToolsAndOPMarker"
       orient="auto"
       refX="-4"
       refY="-1.687441"
       style="overflow:visible">
      <path
         d="m 4.588864,-1.687441 0.0,0.0 L 9.177728,0.0 c -0.73311,-0.996261 -0.728882,-2.359329 0.0,-3.374882"
         style="fill:#000044;fill-rule:evenodd;stroke:none"
         id="path309" />
    </marker>
    <marker
       id="DrawCurveMarker"
       orient="auto"
       refX="-4"
       refY="-1.687441"
       style="overflow:visible">
      <path
         d="m 4.588864,-1.687441 0.0,0.0 L 9.177728,0.0 c -0.73311,-0.996261 -0.728882,-2.359329 0.0,-3.374882"
         style="fill:#000044;fill-rule:evenodd;stroke:none"
         id="path312" />
    </marker>
    <marker
       id="DrawCurveMarker_r"
       orient="auto"
       refX="4"
       refY="-1.687441"
       style="overflow:visible">
      <path
         d="m -4.588864,-1.687441 0.0,0.0 L -9.177728,0.0 c 0.73311,-0.996261 0.728882,-2.359329 0.0,-3.374882"
         style="fill:#000044;fill-rule:evenodd;stroke:none"
         id="path315" />
    </marker>
    <marker
       id="InOutPathMarker"
       orient="auto"
       refX="-4"
       refY="-1.687441"
       style="overflow:visible">
      <path
         d="m 4.588864,-1.687441 0.0,0.0 L 9.177728,0.0 c -0.73311,-0.996261 -0.728882,-2.359329 0.0,-3.374882"
         style="fill:#0072a7;fill-rule:evenodd;stroke:none"
         id="path318" />
    </marker>
  </defs>
  <sodipodi:namedview
     inkscape:snap-global="false"
     id="base"
     pagecolor="#ffffff"
     bordercolor="#666666"
     borderopacity="1.0"
     inkscape:pageopacity="0.0"
     inkscape:pageshadow="2"
     inkscape:zoom="1.7117331"
     inkscape:cx="426.8289"
     inkscape:cy="504.02671"
     inkscape:document-units="mm"
     inkscape:current-layer="layer2"
     inkscape:document-rotation="0"
     showgrid="false"
     inkscape:window-width="1920"
     inkscape:window-height="1056"
     inkscape:window-x="0"
     inkscape:window-y="24"
     inkscape:window-maximized="0" />
  <metadata
     id="metadata1025">
    <rdf:RDF>
      <cc:Work
         rdf:about="">
        <dc:format>image/svg+xml</dc:format>
        <dc:type
           rdf:resource="http://purl.org/dc/dcmitype/StillImage" />
        <dc:title></dc:title>
      </cc:Work>
    </rdf:RDF>
  </metadata>
  <g
     sodipodi:insensitive="true"
     inkscape:label="Layer 1"
     inkscape:groupmode="layer"
     id="layer1">
    <path
       style="fill:none;stroke:#ff0000;stroke-width:0.264583px;stroke-linecap:butt;stroke-linejoin:miter;stroke-opacity:1"
       d="m 27.102206,14.274196 -12.950045,0.004 c -0.444517,-5.8e-5 -0.803971,0.362066 -0.800846,0.806573 l 0.03686,5.722583 -8.7457739,0.147465 c -0.434599,0.0074 -0.783941,0.360165 -0.7872,0.794818 l -0.01987,3.187557 c -5.77e-4,0.09241 0.01482,0.184222 0.04556,0.271377 0.217547,0.619767 0.46329,1.179337 0.831986,1.644537 0.368694,0.465201 0.951012,0.854368 1.621114,0.839951 0.0033,1.4e-5 0.0065,6e-6 0.0098,-2.3e-5 l -4e-5,3e-6 C 11.197615,27.522034 16.370072,26.639802 21.362742,25.241114 m 3.937814,-1.222523 c 6.267541,-2.139676 12.015897,-5.051523 16.177271,-8.318178 0.597105,-0.469622 0.266066,-1.429011 -0.493591,-1.430488 l -10.94736,0.0034"
       id="path31-83"
       sodipodi:nodetypes="ccccccccscccccccc" />
    <path
       sodipodi:nodetypes="ccccccccscccccccc"
       id="path31-8-0"
       d="m 27.102192,31.61654 -12.950046,0.004 c -0.444517,-5.7e-5 -0.803971,0.362064 -0.800844,0.806571 l 0.03686,5.722586 -8.7457739,0.147464 c -0.434599,0.0074 -0.783941,0.360166 -0.787197,0.794819 l -0.01986,3.187554 c -5.77e-4,0.09241 0.01482,0.184224 0.04556,0.27138 0.217545,0.619767 0.46329,1.179337 0.831984,1.644537 0.368694,0.4652 0.951012,0.854368 1.621114,0.839951 0.0033,1.1e-5 0.0065,3e-6 0.0098,-2.3e-5 l -3.9e-5,3e-6 C 11.197614,44.864409 16.370071,43.982175 21.362742,42.583489 m 3.937814,-1.222526 c 6.267546,-2.139672 12.015902,-5.051521 16.177276,-8.318174 0.597105,-0.46962 0.266066,-1.429012 -0.493591,-1.43049 l -10.94736,0.0034"
       style="fill:none;stroke:#ff0000;stroke-width:0.264583px;stroke-linecap:butt;stroke-linejoin:miter;stroke-opacity:1" />
    <path
       sodipodi:nodetypes="ccccccccscccccccc"
       id="path31-2-6"
       d="m 27.102194,48.958916 -12.950045,0.004 c -0.444518,-5.8e-5 -0.80397,0.362063 -0.800843,0.80657 l 0.03686,5.722587 -8.7457749,0.147465 c -0.434598,0.0074 -0.78394,0.360164 -0.7872,0.794817 l -0.01986,3.187555 c -5.77e-4,0.09241 0.01482,0.184224 0.04556,0.271378 0.217547,0.619769 0.46329,1.179338 0.831984,1.644539 0.368693,0.4652 0.951013,0.854366 1.621115,0.839948 0.0033,1.3e-5 0.0065,6e-6 0.0098,-2.3e-5 l -3.7e-5,3e-6 C 11.197618,62.206782 16.370075,61.32455 21.362743,59.925865 m 3.937821,-1.222521 c 6.267546,-2.139672 12.015901,-5.051521 16.177275,-8.318173 0.597105,-0.469625 0.266066,-1.429013 -0.493591,-1.430491 l -10.947359,0.0034"
       style="fill:none;stroke:#ff0000;stroke-width:0.264583px;stroke-linecap:butt;stroke-linejoin:miter;stroke-opacity:1" />
    <path
       sodipodi:nodetypes="ccccccccscccccccc"
       id="path31-0-2"
       d="m 27.102194,66.301281 -12.950045,0.004 c -0.444518,-5.7e-5 -0.803972,0.362064 -0.800844,0.806572 l 0.03686,5.722584 -8.7457739,0.147465 c -0.434599,0.0074 -0.783941,0.360165 -0.7872,0.794818 l -0.01986,3.187555 c -5.77e-4,0.09241 0.01482,0.184224 0.04556,0.271378 0.217547,0.619768 0.46329,1.179338 0.831986,1.644539 0.368691,0.4652 0.951011,0.854366 1.621113,0.839949 0.0033,1.4e-5 0.0065,6e-6 0.0098,-2.3e-5 l -4e-5,3e-6 C 11.197615,79.549148 16.370072,78.666915 21.362741,77.268229 m 3.937823,-1.222519 c 6.267546,-2.139672 12.015901,-5.051521 16.177276,-8.318174 0.597106,-0.469624 0.266067,-1.429013 -0.493591,-1.43049 l -10.94736,0.0034"
       style="fill:none;stroke:#ff0000;stroke-width:0.264583px;stroke-linecap:butt;stroke-linejoin:miter;stroke-opacity:1" />
    <path
       sodipodi:nodetypes="ccccccccscccccccc"
       id="path31-7-2"
       d="m 27.102194,83.643662 -12.950045,0.004 c -0.444517,4.2e-5 -0.803971,0.362062 -0.800844,0.80657 l 0.03686,5.722585 -8.745775,0.147465 c -0.434598,0.0074 -0.78394,0.360165 -0.787199,0.794818 l -0.01986,3.187556 c -5.76e-4,0.09241 0.01482,0.184222 0.04556,0.271377 0.217545,0.619768 0.46329,1.179337 0.831984,1.644538 0.368693,0.4652 0.951012,0.854367 1.621114,0.83995 0.0033,1.2e-5 0.0065,5e-6 0.0098,-2.3e-5 l -3.9e-5,2e-6 c 4.853864,-0.170971 10.026321,-1.053204 15.01899,-2.45189 m 3.937815,-1.222525 c 6.267546,-2.139672 12.015901,-5.051521 16.177276,-8.318173 0.597105,-0.469623 0.266066,-1.429012 -0.493592,-1.430491 l -10.947359,0.0034"
       style="fill:none;stroke:#ff0000;stroke-width:0.264583px;stroke-linecap:butt;stroke-linejoin:miter;stroke-opacity:1" />
    <path
       sodipodi:nodetypes="ccccccccscccccccc"
       id="path31-83-1"
       d="m 49.318958,96.245766 12.949941,0.05204 c 0.444513,0.002 0.80553,-0.358583 0.804329,-0.803099 l -0.01209,-5.72269 8.74633,-0.109614 c 0.434627,-0.0055 0.785493,-0.356769 0.790633,-0.791404 l 0.03366,-3.187441 c 9.77e-4,-0.09241 -0.01402,-0.184284 -0.04438,-0.271572 -0.214862,-0.620702 -0.458181,-1.181331 -0.824861,-1.648122 -0.366677,-0.466792 -0.947305,-0.858476 -1.617464,-0.846959 -0.0033,-2.8e-5 -0.0065,-3.4e-5 -0.0098,-1.9e-5 l 4e-5,-3e-6 c -4.854558,0.149995 -10.030785,1.009834 -15.029461,2.386902 m -3.943068,1.20547 c -6.276742,2.112532 -12.037646,4.999474 -16.213118,8.24809 -0.599134,0.467033 -0.272247,1.427846 0.487395,1.43261 l 10.947273,0.04398"
       style="fill:none;stroke:#ff0000;stroke-width:0.264583px;stroke-linecap:butt;stroke-linejoin:miter;stroke-opacity:1" />
    <path
       style="fill:none;stroke:#ff0000;stroke-width:0.264583px;stroke-linecap:butt;stroke-linejoin:miter;stroke-opacity:1"
       d="m 49.394025,78.903584 12.949942,0.05204 c 0.444512,0.002 0.80553,-0.358581 0.804327,-0.803097 l -0.01209,-5.722692 8.74633,-0.109614 c 0.434627,-0.0055 0.785493,-0.35677 0.79063,-0.791404 l 0.03365,-3.187439 c 9.77e-4,-0.09241 -0.01402,-0.184286 -0.04438,-0.271574 -0.214861,-0.620702 -0.458182,-1.18133 -0.824859,-1.648122 -0.366677,-0.466793 -0.947306,-0.858476 -1.617464,-0.846959 -0.0033,-2.6e-5 -0.0065,-3.1e-5 -0.0098,-1.9e-5 l 3.9e-5,-3e-6 c -4.854558,0.149964 -10.030785,1.009805 -15.029462,2.386871 m -3.943068,1.205472 c -6.276747,2.112529 -12.037651,4.999474 -16.213124,8.248087 -0.59913,0.467031 -0.272247,1.427847 0.487395,1.432612 l 10.947274,0.04398"
       id="path31-8-0-5"
       sodipodi:nodetypes="ccccccccscccccccc" />
    <path
       style="fill:none;stroke:#ff0000;stroke-width:0.264583px;stroke-linecap:butt;stroke-linejoin:miter;stroke-opacity:1"
       d="m 49.469076,61.56137 12.949941,0.05204 c 0.444513,0.002 0.805529,-0.358579 0.804326,-0.803096 l -0.01209,-5.722694 8.746331,-0.109612 c 0.434626,-0.0055 0.785492,-0.356768 0.790633,-0.791405 l 0.03365,-3.187442 c 9.77e-4,-0.0924 -0.01402,-0.184283 -0.04439,-0.271565 -0.214863,-0.620706 -0.458182,-1.181334 -0.824859,-1.648125 -0.366676,-0.466791 -0.947307,-0.858478 -1.617465,-0.846958 -0.0033,-3.4e-5 -0.0065,-3.8e-5 -0.0098,-2.2e-5 h 3.7e-5 C 65.430831,48.382463 60.254604,49.2423 55.25593,50.61936 m -3.943075,1.205467 c -6.276747,2.112532 -12.037651,4.999476 -16.213123,8.248088 -0.599131,0.467037 -0.272247,1.42785 0.487394,1.432614 l 10.947273,0.04398"
       id="path31-2-6-2"
       sodipodi:nodetypes="ccccccccscccccccc" />
    <path
       style="fill:none;stroke:#ff0000;stroke-width:0.264583px;stroke-linecap:butt;stroke-linejoin:miter;stroke-opacity:1"
       d="m 49.544129,44.219166 12.949941,0.05204 c 0.444513,0.002 0.805531,-0.358577 0.804327,-0.803097 l -0.01209,-5.722695 8.74633,-0.10961 c 0.434625,-0.0051 0.785492,-0.356774 0.790632,-0.791406 l 0.03365,-3.187444 c 9.77e-4,-0.0924 -0.01402,-0.184282 -0.04439,-0.271564 -0.214863,-0.620706 -0.458182,-1.181334 -0.824861,-1.648126 -0.366674,-0.466791 -0.947305,-0.858477 -1.617463,-0.846957 -0.0033,-3.5e-5 -0.0065,-3.9e-5 -0.0098,-2.3e-5 h 4e-5 c -4.854559,0.149973 -10.030786,1.009809 -15.029461,2.386879 m -3.943077,1.205467 c -6.276747,2.112526 -12.037651,4.999471 -16.213123,8.248081 -0.599134,0.467032 -0.27225,1.427846 0.487394,1.432613 l 10.947272,0.04438"
       id="path31-0-2-1"
       sodipodi:nodetypes="ccccccccscccccccc" />
    <path
       style="fill:none;stroke:#ff0000;stroke-width:0.264583px;stroke-linecap:butt;stroke-linejoin:miter;stroke-opacity:1"
       d="m 49.619181,26.876948 12.949942,0.05204 c 0.444513,0.0019 0.80553,-0.358577 0.804327,-0.803096 l -0.01209,-5.722686 8.746331,-0.109619 c 0.434624,-0.0051 0.785491,-0.356764 0.790631,-0.791406 l 0.03365,-3.187435 c 9.77e-4,-0.09239 -0.01402,-0.184288 -0.04438,-0.27157 -0.214861,-0.620706 -0.458182,-1.181334 -0.824859,-1.648125 -0.366676,-0.466792 -0.947306,-0.858468 -1.617464,-0.846958 -0.0033,-2.5e-5 -0.0065,-2.8e-5 -0.0098,-1.3e-5 l 3.9e-5,-9e-6 C 65.58095,13.698033 60.404723,14.55787 55.406048,15.93494 m -3.943069,1.205466 c -6.276748,2.112536 -12.037649,4.999472 -16.213125,8.248092 -0.59913,0.467031 -0.272247,1.427845 0.487398,1.432613 l 10.94727,0.04438"
       id="path31-7-2-1"
       sodipodi:nodetypes="ccccccccscccccccc" />
    <path
       sodipodi:nodetypes="ccccccccscccccccc"
       id="path31-83-8"
       d="m 99.854678,14.459604 -12.950045,0.004 c -0.444517,-5.8e-5 -0.803971,0.362066 -0.800846,0.806573 l 0.03686,5.722583 -8.745774,0.147465 c -0.434599,0.0074 -0.783941,0.360165 -0.7872,0.794818 l -0.01987,3.187557 c -5.77e-4,0.09241 0.01482,0.184222 0.04556,0.271377 0.217547,0.619767 0.46329,1.179337 0.831986,1.644537 0.368694,0.465201 0.951012,0.854368 1.621114,0.839951 0.0033,1.4e-5 0.0065,6e-6 0.0098,-2.3e-5 l -4e-5,3e-6 c 4.853865,-0.171003 10.026321,-1.053235 15.018991,-2.451923 m 3.937814,-1.222523 c 6.267542,-2.139676 12.015892,-5.051523 16.177272,-8.318178 0.59711,-0.469622 0.26606,-1.429011 -0.49359,-1.430488 l -10.94736,0.0034"
       style="fill:none;stroke:#ff0000;stroke-width:0.264583px;stroke-linecap:butt;stroke-linejoin:miter;stroke-opacity:1" />
    <path
       style="fill:none;stroke:#ff0000;stroke-width:0.264583px;stroke-linecap:butt;stroke-linejoin:miter;stroke-opacity:1"
       d="m 99.854664,31.801948 -12.950046,0.004 c -0.444517,-5.7e-5 -0.80397,0.362064 -0.800844,0.806572 l 0.03686,5.722585 -8.745774,0.147465 c -0.434599,0.0074 -0.783941,0.360166 -0.787197,0.794819 l -0.01986,3.187553 c -5.77e-4,0.09241 0.01482,0.184224 0.04556,0.271381 0.217545,0.619765 0.46329,1.179335 0.831984,1.644536 0.368694,0.465201 0.951012,0.854369 1.621114,0.839951 0.0033,1.1e-5 0.0065,3e-6 0.0098,-2.3e-5 l -3.9e-5,2e-6 c 4.853864,-0.170971 10.026321,-1.053205 15.018992,-2.451891 m 3.937814,-1.222528 c 6.267542,-2.139671 12.015902,-5.05152 16.177272,-8.318173 0.59711,-0.46962 0.26607,-1.429012 -0.49359,-1.43049 l -10.94736,0.0034"
       id="path31-8-0-7"
       sodipodi:nodetypes="ccccccccscccccccc" />
    <path
       style="fill:none;stroke:#ff0000;stroke-width:0.264583px;stroke-linecap:butt;stroke-linejoin:miter;stroke-opacity:1"
       d="m 99.854666,49.144325 -12.950045,0.004 c -0.444518,-5.8e-5 -0.803969,0.362061 -0.800843,0.806569 l 0.03686,5.722588 -8.745775,0.147463 c -0.434598,0.0074 -0.78394,0.360164 -0.7872,0.794819 l -0.01986,3.187554 c -5.77e-4,0.09241 0.01482,0.184225 0.04556,0.271378 0.217547,0.619772 0.46329,1.179342 0.831984,1.644542 0.368693,0.4652 0.951013,0.85436 1.621115,0.83995 0.0033,1e-5 0.0065,0 0.0098,-3e-5 l -3.7e-5,10e-6 c 4.853865,-0.17098 10.026322,-1.05322 15.01899,-2.451901 m 3.937821,-1.222521 c 6.267544,-2.139672 12.015904,-5.05152 16.177274,-8.318172 0.59711,-0.469625 0.26607,-1.429014 -0.49359,-1.430491 l -10.94736,0.0034"
       id="path31-2-6-6"
       sodipodi:nodetypes="ccccccccscccccccc" />
    <path
       style="fill:none;stroke:#ff0000;stroke-width:0.264583px;stroke-linecap:butt;stroke-linejoin:miter;stroke-opacity:1"
       d="m 99.854666,66.486688 -12.950045,0.004 c -0.444518,-5e-5 -0.803972,0.36207 -0.800843,0.80657 l 0.03686,5.72259 -8.745774,0.14747 c -0.434599,0.007 -0.783941,0.36016 -0.7872,0.79481 l -0.01986,3.18756 c -5.77e-4,0.0924 0.01482,0.18422 0.04556,0.27138 0.217547,0.61977 0.46329,1.17934 0.831986,1.64454 0.368691,0.46519 0.951011,0.85436 1.621113,0.83995 0.0033,1e-5 0.0065,0 0.0098,-3e-5 h -4e-5 c 4.853865,-0.17097 10.026321,-1.05321 15.01899,-2.45189 m 3.937823,-1.22252 c 6.267544,-2.13967 12.015904,-5.05152 16.177274,-8.31817 0.59711,-0.46963 0.26607,-1.42902 -0.49359,-1.4305 l -10.94736,0.003"
       id="path31-0-2-0"
       sodipodi:nodetypes="ccccccccscccccccc" />
    <path
       style="fill:none;stroke:#ff0000;stroke-width:0.264583px;stroke-linecap:butt;stroke-linejoin:miter;stroke-opacity:1"
       d="m 99.854666,83.829068 -12.950045,0.004 c -0.444517,4e-5 -0.80397,0.36206 -0.800843,0.80657 l 0.03686,5.72259 -8.745776,0.14746 c -0.434597,0.007 -0.78394,0.36017 -0.787199,0.79482 l -0.01986,3.18756 c -5.75e-4,0.0924 0.01482,0.18422 0.04556,0.27137 0.217545,0.61977 0.46329,1.17934 0.831985,1.64454 0.368693,0.4652 0.951012,0.85437 1.621114,0.83995 0.0033,1e-5 0.0065,1e-5 0.0098,-2e-5 h -3.9e-5 c 4.853864,-0.17097 10.02632,-1.0532 15.018989,-2.45188 m 3.937815,-1.22253 c 6.267543,-2.13967 12.015903,-5.05152 16.177273,-8.31817 0.59711,-0.46963 0.26607,-1.42902 -0.49359,-1.43049 l -10.94736,0.003"
       id="path31-7-2-0"
       sodipodi:nodetypes="ccccccccscccccccc" />
    <path
       style="fill:none;stroke:#ff0000;stroke-width:0.264583px;stroke-linecap:butt;stroke-linejoin:miter;stroke-opacity:1"
       d="m 122.07143,96.431178 12.94994,0.052 c 0.44452,0.002 0.80553,-0.35859 0.80433,-0.8031 l -0.0121,-5.72269 8.74633,-0.10962 c 0.43463,-0.005 0.78549,-0.35677 0.79063,-0.7914 l 0.0337,-3.18744 c 10e-4,-0.0924 -0.014,-0.18429 -0.0444,-0.27157 -0.21486,-0.62071 -0.45818,-1.18133 -0.82486,-1.64813 -0.36667,-0.46679 -0.9473,-0.85847 -1.61746,-0.84696 -0.003,-2e-5 -0.007,-3e-5 -0.01,-10e-6 l 4e-5,-1e-5 c -4.85456,0.15 -10.03078,1.00984 -15.02946,2.3869 m -3.94307,1.20547 c -6.27674,2.11254 -12.03765,4.99948 -16.21312,8.24809 -0.59913,0.46704 -0.27225,1.42785 0.48739,1.43261 l 10.94728,0.044"
       id="path31-83-1-9"
       sodipodi:nodetypes="ccccccccscccccccc" />
    <path
       sodipodi:nodetypes="ccccccccscccccccc"
       id="path31-8-0-5-5"
       d="m 122.1465,79.088998 12.94994,0.052 c 0.44451,0.002 0.80553,-0.35858 0.80433,-0.8031 l -0.0121,-5.72269 8.74633,-0.10962 c 0.43463,-0.005 0.78549,-0.35677 0.79063,-0.7914 l 0.0337,-3.18744 c 0.001,-0.0924 -0.014,-0.18429 -0.0444,-0.27157 -0.21486,-0.6207 -0.45818,-1.18133 -0.82486,-1.64813 -0.36668,-0.46679 -0.9473,-0.85847 -1.61746,-0.84695 -0.003,-3e-5 -0.007,-4e-5 -0.01,-2e-5 l 4e-5,-10e-6 c -4.85456,0.14997 -10.03079,1.00981 -15.02946,2.38687 m -3.94308,1.20548 c -6.27674,2.11253 -12.03765,4.99947 -16.21312,8.24808 -0.59913,0.46703 -0.27225,1.42785 0.4874,1.43261 l 10.94727,0.044"
       style="fill:none;stroke:#ff0000;stroke-width:0.264583px;stroke-linecap:butt;stroke-linejoin:miter;stroke-opacity:1" />
    <path
       sodipodi:nodetypes="ccccccccscccccccc"
       id="path31-2-6-2-6"
       d="m 122.22155,61.746778 12.94994,0.052 c 0.44452,0.002 0.80553,-0.35858 0.80433,-0.8031 l -0.0121,-5.722692 8.74633,-0.109611 c 0.43462,-0.0055 0.78549,-0.356767 0.79063,-0.791404 l 0.0336,-3.187443 c 0.001,-0.0924 -0.014,-0.184282 -0.0444,-0.271566 -0.21486,-0.620704 -0.45818,-1.181332 -0.82486,-1.648124 -0.36667,-0.466791 -0.9473,-0.858477 -1.61746,-0.846957 -0.003,-3.5e-5 -0.007,-4e-5 -0.01,-2.4e-5 h 3e-5 c -4.85455,0.149974 -10.03078,1.009811 -15.02946,2.38687 m -3.94307,1.205468 c -6.27675,2.112531 -12.03765,4.999476 -16.21313,8.248083 -0.59913,0.46704 -0.27224,1.42785 0.4874,1.43262 l 10.94727,0.044"
       style="fill:none;stroke:#ff0000;stroke-width:0.264583px;stroke-linecap:butt;stroke-linejoin:miter;stroke-opacity:1" />
    <path
       sodipodi:nodetypes="ccccccccscccccccc"
       id="path31-0-2-1-2"
       d="m 122.2966,44.404574 12.94994,0.05204 c 0.44452,0.0021 0.80554,-0.358576 0.80433,-0.803097 l -0.0121,-5.722695 8.74633,-0.10961 c 0.43463,-0.0051 0.7855,-0.356774 0.79063,-0.791406 l 0.0336,-3.187444 c 0.001,-0.0924 -0.014,-0.184282 -0.0444,-0.271564 -0.21486,-0.620706 -0.45818,-1.181334 -0.82486,-1.648126 -0.36667,-0.466791 -0.9473,-0.858477 -1.61746,-0.846957 -0.003,-3.5e-5 -0.007,-3.9e-5 -0.01,-2.3e-5 h 4e-5 c -4.85456,0.149973 -10.03079,1.009809 -15.02946,2.386879 m -3.94308,1.205467 c -6.27675,2.112526 -12.03765,4.999471 -16.21312,8.248082 -0.59914,0.467032 -0.27225,1.427845 0.48739,1.432613 l 10.94727,0.04438"
       style="fill:none;stroke:#ff0000;stroke-width:0.264583px;stroke-linecap:butt;stroke-linejoin:miter;stroke-opacity:1" />
    <path
       sodipodi:nodetypes="ccccccccscccccccc"
       id="path31-7-2-1-8"
       d="m 122.37165,27.062356 12.94995,0.05204 c 0.44451,0.0019 0.80553,-0.358577 0.80432,-0.803096 l -0.0121,-5.722686 8.74633,-0.109619 c 0.43463,-0.0051 0.78549,-0.356764 0.79063,-0.791406 l 0.0337,-3.187435 c 0.001,-0.09239 -0.014,-0.184288 -0.0444,-0.27157 -0.21486,-0.620706 -0.45818,-1.181334 -0.82485,-1.648125 -0.36668,-0.466792 -0.94731,-0.858468 -1.61747,-0.846958 -0.003,-2.5e-5 -0.007,-2.8e-5 -0.01,-1.3e-5 l 4e-5,-9e-6 c -4.85456,0.149962 -10.03078,1.009799 -15.02946,2.386869 m -3.94307,1.205466 c -6.27675,2.112536 -12.03765,4.999472 -16.21313,8.248092 -0.59912,0.467031 -0.27224,1.427845 0.4874,1.432613 l 10.94727,0.04438"
       style="fill:none;stroke:#ff0000;stroke-width:0.264583px;stroke-linecap:butt;stroke-linejoin:miter;stroke-opacity:1" />
  </g>
  <g
     style="display:inline;opacity:1"
     inkscape:label="Gcode"
     id="layer2"
     inkscape:groupmode="layer">
    <g
       gcodetools="Gcodetools tool definition"
       transform="matrix(0.50142918,0,0,0.52018348,55.545677,120.45842)"
       id="g183">
      <path
         gcodetools="Gcodetools tool background"
         style="fill-opacity:0.5;stroke:#444444"
         d="M -20,-20 H 380 V 155 H -20 Z"
         id="path101" />
      <g
         gcodetools="Gcodetools tool parameter"
         id="g111">
        <text
           x="0"
           xml:space="preserve"
           y="0"
           style="font-style:normal;font-variant:normal;font-weight:normal;font-stretch:normal;font-size:20px;font-family:'DejaVu Sans';fill:#000000;fill-opacity:1;stroke:none"
           gcodetools="Gcodetools tool definition field name"
           id="text105"><tspan
             x="0"
             y="0"
             sodipodi:role="line"
             id="tspan103">name</tspan></text>
        <text
           x="150"
           xml:space="preserve"
           y="0"
           style="font-style:normal;font-variant:normal;font-weight:normal;font-stretch:normal;font-size:20px;font-family:'DejaVu Sans';fill:#000000;fill-opacity:1;stroke:none"
           gcodetools="Gcodetools tool definition field value"
           id="text109"><tspan
             x="150"
             y="0"
             sodipodi:role="line"
             id="tspan107">Cylindrical cutter</tspan></text>
      </g>
      <g
         gcodetools="Gcodetools tool parameter"
         id="g121">
        <text
           x="0"
           xml:space="preserve"
           y="20"
           style="font-style:normal;font-variant:normal;font-weight:normal;font-stretch:normal;font-size:10px;font-family:'DejaVu Sans';fill:#000000;fill-opacity:1;stroke:none"
           gcodetools="Gcodetools tool definition field name"
           id="text115"><tspan
             x="0"
             y="20"
             sodipodi:role="line"
             id="tspan113">id</tspan></text>
        <text
           x="150"
           xml:space="preserve"
           y="20"
           style="font-style:normal;font-variant:normal;font-weight:normal;font-stretch:normal;font-size:10px;font-family:'DejaVu Sans';fill:#000000;fill-opacity:1;stroke:none"
           gcodetools="Gcodetools tool definition field value"
           id="text119"><tspan
             x="150"
             y="20"
             sodipodi:role="line"
             id="tspan117">Cylindrical cutter 0001</tspan></text>
      </g>
      <g
         gcodetools="Gcodetools tool parameter"
         id="g131">
        <text
           x="0"
           xml:space="preserve"
           y="35"
           style="font-style:normal;font-variant:normal;font-weight:normal;font-stretch:normal;font-size:10px;font-family:'DejaVu Sans';fill:#000000;fill-opacity:1;stroke:none"
           gcodetools="Gcodetools tool definition field name"
           id="text125"><tspan
             x="0"
             y="35"
             sodipodi:role="line"
             id="tspan123">diameter</tspan></text>
        <text
           x="150"
           xml:space="preserve"
           y="35"
           style="font-style:normal;font-variant:normal;font-weight:normal;font-stretch:normal;font-size:10px;font-family:'DejaVu Sans';fill:#000000;fill-opacity:1;stroke:none"
           gcodetools="Gcodetools tool definition field value"
           id="text129"><tspan
             x="150"
             y="35"
             sodipodi:role="line"
             id="tspan127">10</tspan></text>
      </g>
      <g
         gcodetools="Gcodetools tool parameter"
         id="g141">
        <text
           x="0"
           xml:space="preserve"
           y="50"
           style="font-style:normal;font-variant:normal;font-weight:normal;font-stretch:normal;font-size:10px;font-family:'DejaVu Sans';fill:#000000;fill-opacity:1;stroke:none"
           gcodetools="Gcodetools tool definition field name"
           id="text135"><tspan
             x="0"
             y="50"
             sodipodi:role="line"
             id="tspan133">feed</tspan></text>
        <text
           x="150"
           xml:space="preserve"
           y="50"
           style="font-style:normal;font-variant:normal;font-weight:normal;font-stretch:normal;font-size:10px;font-family:'DejaVu Sans';fill:#000000;fill-opacity:1;stroke:none"
           gcodetools="Gcodetools tool definition field value"
           id="text139"><tspan
             x="150"
             y="50"
             sodipodi:role="line"
             id="tspan137">150</tspan></text>
      </g>
      <g
         gcodetools="Gcodetools tool parameter"
         id="g151">
        <text
           x="0"
           xml:space="preserve"
           y="65"
           style="font-style:normal;font-variant:normal;font-weight:normal;font-stretch:normal;font-size:10px;font-family:'DejaVu Sans';fill:#000000;fill-opacity:1;stroke:none"
           gcodetools="Gcodetools tool definition field name"
           id="text145"><tspan
             x="0"
             y="65"
             sodipodi:role="line"
             id="tspan143">penetration angle</tspan></text>
        <text
           x="150"
           xml:space="preserve"
           y="65"
           style="font-style:normal;font-variant:normal;font-weight:normal;font-stretch:normal;font-size:10px;font-family:'DejaVu Sans';fill:#000000;fill-opacity:1;stroke:none"
           gcodetools="Gcodetools tool definition field value"
           id="text149"><tspan
             x="150"
             y="65"
             sodipodi:role="line"
             id="tspan147">90</tspan></text>
      </g>
      <g
         gcodetools="Gcodetools tool parameter"
         id="g161">
        <text
           x="0"
           xml:space="preserve"
           y="80"
           style="font-style:normal;font-variant:normal;font-weight:normal;font-stretch:normal;font-size:10px;font-family:'DejaVu Sans';fill:#000000;fill-opacity:1;stroke:none"
           gcodetools="Gcodetools tool definition field name"
           id="text155"><tspan
             x="0"
             y="80"
             sodipodi:role="line"
             id="tspan153">penetration feed</tspan></text>
        <text
           x="150"
           xml:space="preserve"
           y="80"
           style="font-style:normal;font-variant:normal;font-weight:normal;font-stretch:normal;font-size:10px;font-family:'DejaVu Sans';fill:#000000;fill-opacity:1;stroke:none"
           gcodetools="Gcodetools tool definition field value"
           id="text159"><tspan
             x="150"
             y="80"
             sodipodi:role="line"
             id="tspan157">100</tspan></text>
      </g>
      <g
         gcodetools="Gcodetools tool parameter"
         id="g171">
        <text
           x="0"
           xml:space="preserve"
           y="95"
           style="font-style:normal;font-variant:normal;font-weight:normal;font-stretch:normal;font-size:10px;font-family:'DejaVu Sans';fill:#000000;fill-opacity:1;stroke:none"
           gcodetools="Gcodetools tool definition field name"
           id="text165"><tspan
             x="0"
             y="95"
             sodipodi:role="line"
             id="tspan163">depth step</tspan></text>
        <text
           x="150"
           xml:space="preserve"
           y="95"
           style="font-style:normal;font-variant:normal;font-weight:normal;font-stretch:normal;font-size:10px;font-family:'DejaVu Sans';fill:#000000;fill-opacity:1;stroke:none"
           gcodetools="Gcodetools tool definition field value"
           id="text169"><tspan
             x="150"
             y="95"
             sodipodi:role="line"
             id="tspan167">1</tspan></text>
      </g>
      <g
         gcodetools="Gcodetools tool parameter"
         id="g181">
        <text
           x="0"
           xml:space="preserve"
           y="110"
           style="font-style:normal;font-variant:normal;font-weight:normal;font-stretch:normal;font-size:10px;font-family:'DejaVu Sans';fill:#000000;fill-opacity:1;stroke:none"
           gcodetools="Gcodetools tool definition field name"
           id="text175"><tspan
             x="0"
             y="110"
             sodipodi:role="line"
             id="tspan173">tool change gcode</tspan></text>
        <text
           x="150"
           xml:space="preserve"
           y="110"
           style="font-style:normal;font-variant:normal;font-weight:normal;font-stretch:normal;font-size:10px;font-family:'DejaVu Sans';fill:#000000;fill-opacity:1;stroke:none"
           gcodetools="Gcodetools tool definition field value"
           id="text179"><tspan
             x="150"
             y="110"
             sodipodi:role="line"
             id="tspan177">(None)</tspan></text>
      </g>
    </g>
    <g
       gcodetools="Gcodetools orientation group"
       id="g296">
      <g
         gcodetools="Gcodetools orientation point (2 points)"
         id="g286">
        <path
           style="fill:#000000;stroke:none"
           gcodetools="Gcodetools orientation point arrow"
           d="M 0,100 2.9375,93.65625 3.75,95.5625 10.59375,88.71875 v 0 l 0.6875,0.6875 L 4.4375,96.25 6.34375,97.0625 Z"
           id="path280" />
        <text
           x="10"
           xml:space="preserve"
           y="90"
           style="font-style:normal;font-variant:normal;font-weight:normal;font-stretch:normal;font-size:10px;font-family:'DejaVu Sans';fill:#000000;fill-opacity:1;stroke:none"
           gcodetools="Gcodetools orientation point text"
           id="text284"><tspan
             x="10"
             y="90"
             sodipodi:role="line"
             id="tspan282">(0.0; 0.0; 0.0)</tspan></text>
      </g>
      <g
         gcodetools="Gcodetools orientation point (2 points)"
         id="g294">
        <path
           style="fill:#000000;stroke:none"
           gcodetools="Gcodetools orientation point arrow"
           d="m 100,100 2.9375,-6.34375 0.8125,1.90625 6.84375,-6.84375 v 0 l 0.6875,0.6875 -6.84375,6.84375 1.90625,0.8125 z"
           id="path288" />
        <text
           x="110"
           xml:space="preserve"
           y="90"
           style="font-style:normal;font-variant:normal;font-weight:normal;font-stretch:normal;font-size:10px;font-family:'DejaVu Sans';fill:#000000;fill-opacity:1;stroke:none"
           gcodetools="Gcodetools orientation point text"
           id="text292"><tspan
             x="110"
             y="90"
             sodipodi:role="line"
             id="tspan290">(100.0; 0.0; -1.8)</tspan></text>
      </g>
    </g>
  </g>
</svg>
