<?xml version="1.0" encoding="UTF-8" standalone="no"?>
<svg
   xmlns:dc="http://purl.org/dc/elements/1.1/"
   xmlns:cc="http://creativecommons.org/ns#"
   xmlns:rdf="http://www.w3.org/1999/02/22-rdf-syntax-ns#"
   xmlns:svg="http://www.w3.org/2000/svg"
   xmlns="http://www.w3.org/2000/svg"
   xmlns:sodipodi="http://sodipodi.sourceforge.net/DTD/sodipodi-0.dtd"
   xmlns:inkscape="http://www.inkscape.org/namespaces/inkscape"
   id="svg1028"
   version="1.1"
   viewBox="0 0 290 100"
   height="100mm"
   width="290mm"
   inkscape:version="1.0 (4035a4f, 2020-05-01)"
   sodipodi:docname="Tailplane Braces.svg">
  <defs
     id="defs1022">
    <marker
       id="CheckToolsAndOPMarker"
       orient="auto"
       refX="-4"
       refY="-1.687441"
       style="overflow:visible">
      <path
         d="m 4.588864,-1.687441 0.0,0.0 L 9.177728,0.0 c -0.73311,-0.996261 -0.728882,-2.359329 0.0,-3.374882"
         style="fill:#000044;fill-rule:evenodd;stroke:none"
         id="path309" />
    </marker>
    <marker
       id="DrawCurveMarker"
       orient="auto"
       refX="-4"
       refY="-1.687441"
       style="overflow:visible">
      <path
         d="m 4.588864,-1.687441 0.0,0.0 L 9.177728,0.0 c -0.73311,-0.996261 -0.728882,-2.359329 0.0,-3.374882"
         style="fill:#000044;fill-rule:evenodd;stroke:none"
         id="path312" />
    </marker>
    <marker
       id="DrawCurveMarker_r"
       orient="auto"
       refX="4"
       refY="-1.687441"
       style="overflow:visible">
      <path
         d="m -4.588864,-1.687441 0.0,0.0 L -9.177728,0.0 c 0.73311,-0.996261 0.728882,-2.359329 0.0,-3.374882"
         style="fill:#000044;fill-rule:evenodd;stroke:none"
         id="path315" />
    </marker>
    <marker
       id="InOutPathMarker"
       orient="auto"
       refX="-4"
       refY="-1.687441"
       style="overflow:visible">
      <path
         d="m 4.588864,-1.687441 0.0,0.0 L 9.177728,0.0 c -0.73311,-0.996261 -0.728882,-2.359329 0.0,-3.374882"
         style="fill:#0072a7;fill-rule:evenodd;stroke:none"
         id="path318" />
    </marker>
  </defs>
  <sodipodi:namedview
     inkscape:snap-global="false"
     id="base"
     pagecolor="#ffffff"
     bordercolor="#666666"
     borderopacity="1.0"
     inkscape:pageopacity="0.0"
     inkscape:pageshadow="2"
     inkscape:zoom="1.0907485"
     inkscape:cx="450.27087"
     inkscape:cy="277.83877"
     inkscape:document-units="mm"
     inkscape:current-layer="layer2"
     inkscape:document-rotation="0"
     showgrid="false"
     inkscape:window-width="1274"
     inkscape:window-height="696"
     inkscape:window-x="56"
     inkscape:window-y="307"
     inkscape:window-maximized="0" />
  <metadata
     id="metadata1025">
    <rdf:RDF>
      <cc:Work
         rdf:about="">
        <dc:format>image/svg+xml</dc:format>
        <dc:type
           rdf:resource="http://purl.org/dc/dcmitype/StillImage" />
        <dc:title></dc:title>
      </cc:Work>
    </rdf:RDF>
  </metadata>
  <g
     sodipodi:insensitive="true"
     inkscape:label="Layer 1"
     inkscape:groupmode="layer"
     id="layer1">
    <path
       sodipodi:nodetypes="cccccccccccccccccccccc"
       id="path115"
       d="m 97.145467,29.668908 0.0225,-14.202111 c 5.82e-4,-0.39339 -0.288341,-0.727274 -0.677735,-0.783203 L 51.173315,8.2574195 M 47.46164,7.7310847 6.8398438,1.9707031 c -0.049767,-0.00739 -0.1001261,-0.010001 -0.1503907,-0.00781 v -2.5e-6 C 6.3437913,1.9797365 6.0493259,2.2195833 5.9628906,2.5546875 5.1015769,5.8861765 4.0752353,10.398605 2.9941406,15.283203 c -0.011984,0.05584 -0.017877,0.112812 -0.017578,0.169922 v 14.539612 m 0,3.76653 v 21.23878 c -8.92e-5,0.05914 0.00646,0.118103 0.019531,0.175781 L 5.875,67.791016 c 0.09182,0.399957 0.4745553,0.663035 0.8808594,0.605468 l 42.9592716,-6.08571 m 3.769923,-0.534056 42.94268,-6.083359 c 0.387928,-0.05572 0.676377,-0.387391 0.677735,-0.779297 l 0.03484,-21.991947"
       style="display:inline;fill:none;stroke:#ff0000;stroke-width:0.264583px;stroke-linecap:butt;stroke-linejoin:miter;stroke-opacity:1" />
    <path
       id="path139"
       d="m 18.547298,35.192428 h 24.442298 v 0"
       style="display:inline;fill:none;stroke:#ff0000;stroke-width:0.264583px;stroke-linecap:butt;stroke-linejoin:miter;stroke-opacity:1" />
    <path
       sodipodi:nodetypes="cccccccccccccccc"
       id="path141"
       d="m 104.76358,76.974924 -0.0233,-21.066426 c 1e-5,-0.466212 -0.36997,-0.848297 -0.83594,-0.863281 l -2e-5,-3.5e-5 c -0.31937,-0.01039 -0.61839,0.156392 -0.77735,0.433593 l 0.0586,-0.113281 -25.412134,15.087601 m -3.585437,2.128732 -11.225101,6.664527 c -8.722278,5.095065 -13.306816,10.944695 -17.396491,16.738281 -0.403116,0.571859 0.0054,1.360634 0.705078,1.361328 l 25.563494,0.0043 m 3.13414,5.32e-4 28.952781,0.0049 c 0.47668,-2.32e-4 0.86305,-0.3866 0.86328,-0.863281 l -0.0181,-16.383539"
       style="display:inline;fill:none;stroke:#ff0000;stroke-width:0.264583px;stroke-linecap:butt;stroke-linejoin:miter;stroke-opacity:1" />
    <path
       style="display:inline;fill:none;stroke:#ff0000;stroke-width:0.264583px;stroke-linecap:butt;stroke-linejoin:miter;stroke-opacity:1"
       d="m 108.82707,70.68703 -0.0225,14.20211 c -5.3e-4,0.39339 0.28834,0.727275 0.67774,0.783204 l 45.3169,6.426174 m 3.71168,0.526335 40.6218,5.760381 c 0.0498,0.0074 0.10012,0.01 0.15039,0.0078 v 3e-6 c 0.34566,-0.01685 0.64012,-0.256693 0.72656,-0.591797 0.86131,-3.331489 1.88766,-7.843918 2.96875,-12.728516 0.012,-0.05584 0.0179,-0.112812 0.0176,-0.169922 V 70.363191 m 0,-3.766532 V 45.357887 c 9e-5,-0.0591 -0.007,-0.1181 -0.0195,-0.17578 l -2.87891,-12.61719 c -0.0918,-0.39995 -0.47455,-0.66303 -0.88086,-0.60546 l -42.95927,6.0857 m -3.76993,0.53406 -42.94267,6.08336 c -0.38793,0.0557 -0.67638,0.38739 -0.67774,0.7793 l -0.0348,21.991945"
       id="path115-8"
       sodipodi:nodetypes="cccccccccccccccccccccc" />
    <path
       style="display:inline;fill:none;stroke:#ff0000;stroke-width:0.264583px;stroke-linecap:butt;stroke-linejoin:miter;stroke-opacity:1"
       d="m 187.42524,65.163509 h -24.4423 v 0"
       id="path139-7" />
    <path
       style="display:inline;fill:none;stroke:#ff0000;stroke-width:0.264583px;stroke-linecap:butt;stroke-linejoin:miter;stroke-opacity:1"
       d="m 101.20896,23.381007 0.0233,21.06643 c -1e-5,0.46621 0.36997,0.8483 0.83594,0.86328 l 2e-5,4e-5 c 0.31937,0.0104 0.61839,-0.1564 0.77735,-0.4336 l -0.0586,0.11329 25.41213,-15.0876 m 3.58544,-2.12874 11.2251,-6.66453 c 8.72228,-5.09506 13.30682,-10.944691 17.39649,-16.7382806 0.40312,-0.57186 -0.005,-1.36063 -0.70507,-1.36132 l -25.5635,-0.004 m -3.13414,-5.3e-4 -28.95278,-0.005 c -0.47668,2.3e-4 -0.86305,0.3866 -0.86328,0.86328 l 0.0181,16.3835406"
       id="path141-0"
       sodipodi:nodetypes="cccccccccccccccc" />
  </g>
  <g
     style="display:inline;opacity:1"
     inkscape:label="Gcode"
     id="layer2"
     inkscape:groupmode="layer">
    <g
       gcodetools="Gcodetools tool definition"
       transform="matrix(0.50142918,0,0,0.52018348,55.545677,120.45842)"
       id="g183">
      <path
         gcodetools="Gcodetools tool background"
         style="fill-opacity:0.5;stroke:#444444"
         d="M -20,-20 H 380 V 155 H -20 Z"
         id="path101" />
      <g
         gcodetools="Gcodetools tool parameter"
         id="g111">
        <text
           x="0"
           xml:space="preserve"
           y="0"
           style="font-style:normal;font-variant:normal;font-weight:normal;font-stretch:normal;font-size:20px;font-family:'DejaVu Sans';fill:#000000;fill-opacity:1;stroke:none"
           gcodetools="Gcodetools tool definition field name"
           id="text105"><tspan
             x="0"
             y="0"
             sodipodi:role="line"
             id="tspan103">name</tspan></text>
        <text
           x="150"
           xml:space="preserve"
           y="0"
           style="font-style:normal;font-variant:normal;font-weight:normal;font-stretch:normal;font-size:20px;font-family:'DejaVu Sans';fill:#000000;fill-opacity:1;stroke:none"
           gcodetools="Gcodetools tool definition field value"
           id="text109"><tspan
             x="150"
             y="0"
             sodipodi:role="line"
             id="tspan107">Cylindrical cutter</tspan></text>
      </g>
      <g
         gcodetools="Gcodetools tool parameter"
         id="g121">
        <text
           x="0"
           xml:space="preserve"
           y="20"
           style="font-style:normal;font-variant:normal;font-weight:normal;font-stretch:normal;font-size:10px;font-family:'DejaVu Sans';fill:#000000;fill-opacity:1;stroke:none"
           gcodetools="Gcodetools tool definition field name"
           id="text115"><tspan
             x="0"
             y="20"
             sodipodi:role="line"
             id="tspan113">id</tspan></text>
        <text
           x="150"
           xml:space="preserve"
           y="20"
           style="font-style:normal;font-variant:normal;font-weight:normal;font-stretch:normal;font-size:10px;font-family:'DejaVu Sans';fill:#000000;fill-opacity:1;stroke:none"
           gcodetools="Gcodetools tool definition field value"
           id="text119"><tspan
             x="150"
             y="20"
             sodipodi:role="line"
             id="tspan117">Cylindrical cutter 0001</tspan></text>
      </g>
      <g
         gcodetools="Gcodetools tool parameter"
         id="g131">
        <text
           x="0"
           xml:space="preserve"
           y="35"
           style="font-style:normal;font-variant:normal;font-weight:normal;font-stretch:normal;font-size:10px;font-family:'DejaVu Sans';fill:#000000;fill-opacity:1;stroke:none"
           gcodetools="Gcodetools tool definition field name"
           id="text125"><tspan
             x="0"
             y="35"
             sodipodi:role="line"
             id="tspan123">diameter</tspan></text>
        <text
           x="150"
           xml:space="preserve"
           y="35"
           style="font-style:normal;font-variant:normal;font-weight:normal;font-stretch:normal;font-size:10px;font-family:'DejaVu Sans';fill:#000000;fill-opacity:1;stroke:none"
           gcodetools="Gcodetools tool definition field value"
           id="text129"><tspan
             x="150"
             y="35"
             sodipodi:role="line"
             id="tspan127">10</tspan></text>
      </g>
      <g
         gcodetools="Gcodetools tool parameter"
         id="g141">
        <text
           x="0"
           xml:space="preserve"
           y="50"
           style="font-style:normal;font-variant:normal;font-weight:normal;font-stretch:normal;font-size:10px;font-family:'DejaVu Sans';fill:#000000;fill-opacity:1;stroke:none"
           gcodetools="Gcodetools tool definition field name"
           id="text135"><tspan
             x="0"
             y="50"
             sodipodi:role="line"
             id="tspan133">feed</tspan></text>
        <text
           x="150"
           xml:space="preserve"
           y="50"
           style="font-style:normal;font-variant:normal;font-weight:normal;font-stretch:normal;font-size:10px;font-family:'DejaVu Sans';fill:#000000;fill-opacity:1;stroke:none"
           gcodetools="Gcodetools tool definition field value"
           id="text139"><tspan
             x="150"
             y="50"
             sodipodi:role="line"
             id="tspan137">100</tspan></text>
      </g>
      <g
         gcodetools="Gcodetools tool parameter"
         id="g151">
        <text
           x="0"
           xml:space="preserve"
           y="65"
           style="font-style:normal;font-variant:normal;font-weight:normal;font-stretch:normal;font-size:10px;font-family:'DejaVu Sans';fill:#000000;fill-opacity:1;stroke:none"
           gcodetools="Gcodetools tool definition field name"
           id="text145"><tspan
             x="0"
             y="65"
             sodipodi:role="line"
             id="tspan143">penetration angle</tspan></text>
        <text
           x="150"
           xml:space="preserve"
           y="65"
           style="font-style:normal;font-variant:normal;font-weight:normal;font-stretch:normal;font-size:10px;font-family:'DejaVu Sans';fill:#000000;fill-opacity:1;stroke:none"
           gcodetools="Gcodetools tool definition field value"
           id="text149"><tspan
             x="150"
             y="65"
             sodipodi:role="line"
             id="tspan147">90</tspan></text>
      </g>
      <g
         gcodetools="Gcodetools tool parameter"
         id="g161">
        <text
           x="0"
           xml:space="preserve"
           y="80"
           style="font-style:normal;font-variant:normal;font-weight:normal;font-stretch:normal;font-size:10px;font-family:'DejaVu Sans';fill:#000000;fill-opacity:1;stroke:none"
           gcodetools="Gcodetools tool definition field name"
           id="text155"><tspan
             x="0"
             y="80"
             sodipodi:role="line"
             id="tspan153">penetration feed</tspan></text>
        <text
           x="150"
           xml:space="preserve"
           y="80"
           style="font-style:normal;font-variant:normal;font-weight:normal;font-stretch:normal;font-size:10px;font-family:'DejaVu Sans';fill:#000000;fill-opacity:1;stroke:none"
           gcodetools="Gcodetools tool definition field value"
           id="text159"><tspan
             x="150"
             y="80"
             sodipodi:role="line"
             id="tspan157">100</tspan></text>
      </g>
      <g
         gcodetools="Gcodetools tool parameter"
         id="g171">
        <text
           x="0"
           xml:space="preserve"
           y="95"
           style="font-style:normal;font-variant:normal;font-weight:normal;font-stretch:normal;font-size:10px;font-family:'DejaVu Sans';fill:#000000;fill-opacity:1;stroke:none"
           gcodetools="Gcodetools tool definition field name"
           id="text165"><tspan
             x="0"
             y="95"
             sodipodi:role="line"
             id="tspan163">depth step</tspan></text>
        <text
           x="150"
           xml:space="preserve"
           y="95"
           style="font-style:normal;font-variant:normal;font-weight:normal;font-stretch:normal;font-size:10px;font-family:'DejaVu Sans';fill:#000000;fill-opacity:1;stroke:none"
           gcodetools="Gcodetools tool definition field value"
           id="text169"><tspan
             x="150"
             y="95"
             sodipodi:role="line"
             id="tspan167">1</tspan></text>
      </g>
      <g
         gcodetools="Gcodetools tool parameter"
         id="g181">
        <text
           x="0"
           xml:space="preserve"
           y="110"
           style="font-style:normal;font-variant:normal;font-weight:normal;font-stretch:normal;font-size:10px;font-family:'DejaVu Sans';fill:#000000;fill-opacity:1;stroke:none"
           gcodetools="Gcodetools tool definition field name"
           id="text175"><tspan
             x="0"
             y="110"
             sodipodi:role="line"
             id="tspan173">tool change gcode</tspan></text>
        <text
           x="150"
           xml:space="preserve"
           y="110"
           style="font-style:normal;font-variant:normal;font-weight:normal;font-stretch:normal;font-size:10px;font-family:'DejaVu Sans';fill:#000000;fill-opacity:1;stroke:none"
           gcodetools="Gcodetools tool definition field value"
           id="text179"><tspan
             x="150"
             y="110"
             sodipodi:role="line"
             id="tspan177">(None)</tspan></text>
      </g>
    </g>
    <g
       gcodetools="Gcodetools orientation group"
       id="g296">
      <g
         gcodetools="Gcodetools orientation point (2 points)"
         id="g286">
        <path
           style="fill:#000000;stroke:none"
           gcodetools="Gcodetools orientation point arrow"
           d="M 0,100 2.9375,93.65625 3.75,95.5625 10.59375,88.71875 v 0 l 0.6875,0.6875 L 4.4375,96.25 6.34375,97.0625 Z"
           id="path280" />
        <text
           x="10"
           xml:space="preserve"
           y="90"
           style="font-style:normal;font-variant:normal;font-weight:normal;font-stretch:normal;font-size:10px;font-family:'DejaVu Sans';fill:#000000;fill-opacity:1;stroke:none"
           gcodetools="Gcodetools orientation point text"
           id="text284"><tspan
             x="10"
             y="90"
             sodipodi:role="line"
             id="tspan282">(0.0; 0.0; 0.0)</tspan></text>
      </g>
      <g
         gcodetools="Gcodetools orientation point (2 points)"
         id="g294">
        <path
           style="fill:#000000;stroke:none"
           gcodetools="Gcodetools orientation point arrow"
           d="m 100,100 2.9375,-6.34375 0.8125,1.90625 6.84375,-6.84375 v 0 l 0.6875,0.6875 -6.84375,6.84375 1.90625,0.8125 z"
           id="path288" />
        <text
           x="110"
           xml:space="preserve"
           y="90"
           style="font-style:normal;font-variant:normal;font-weight:normal;font-stretch:normal;font-size:10px;font-family:'DejaVu Sans';fill:#000000;fill-opacity:1;stroke:none"
           gcodetools="Gcodetools orientation point text"
           id="text292"><tspan
             x="110"
             y="90"
             sodipodi:role="line"
             id="tspan290">(100.0; 0.0; -5)</tspan></text>
      </g>
    </g>
  </g>
</svg>
