<?xml version="1.0" encoding="UTF-8" standalone="no"?>
<svg
   xmlns:dc="http://purl.org/dc/elements/1.1/"
   xmlns:cc="http://creativecommons.org/ns#"
   xmlns:rdf="http://www.w3.org/1999/02/22-rdf-syntax-ns#"
   xmlns:svg="http://www.w3.org/2000/svg"
   xmlns="http://www.w3.org/2000/svg"
   xmlns:sodipodi="http://sodipodi.sourceforge.net/DTD/sodipodi-0.dtd"
   xmlns:inkscape="http://www.inkscape.org/namespaces/inkscape"
   sodipodi:docname="W7.svg"
   inkscape:version="1.0 (4035a4f, 2020-05-01)"
   width="290mm"
   height="100mm"
   viewBox="0 0 290 100"
   version="1.1"
   id="svg1028">
  <defs
     id="defs1022">
    <marker
       style="overflow:visible"
       refY="-1.687441"
       refX="-4"
       orient="auto"
       id="CheckToolsAndOPMarker">
      <path
         id="path309"
         style="fill:#000044;fill-rule:evenodd;stroke:none"
         d="m 4.588864,-1.687441 0.0,0.0 L 9.177728,0.0 c -0.73311,-0.996261 -0.728882,-2.359329 0.0,-3.374882" />
    </marker>
    <marker
       style="overflow:visible"
       refY="-1.687441"
       refX="-4"
       orient="auto"
       id="DrawCurveMarker">
      <path
         id="path312"
         style="fill:#000044;fill-rule:evenodd;stroke:none"
         d="m 4.588864,-1.687441 0.0,0.0 L 9.177728,0.0 c -0.73311,-0.996261 -0.728882,-2.359329 0.0,-3.374882" />
    </marker>
    <marker
       style="overflow:visible"
       refY="-1.687441"
       refX="4"
       orient="auto"
       id="DrawCurveMarker_r">
      <path
         id="path315"
         style="fill:#000044;fill-rule:evenodd;stroke:none"
         d="m -4.588864,-1.687441 0.0,0.0 L -9.177728,0.0 c 0.73311,-0.996261 0.728882,-2.359329 0.0,-3.374882" />
    </marker>
    <marker
       style="overflow:visible"
       refY="-1.687441"
       refX="-4"
       orient="auto"
       id="InOutPathMarker">
      <path
         id="path318"
         style="fill:#0072a7;fill-rule:evenodd;stroke:none"
         d="m 4.588864,-1.687441 0.0,0.0 L 9.177728,0.0 c -0.73311,-0.996261 -0.728882,-2.359329 0.0,-3.374882" />
    </marker>
  </defs>
  <sodipodi:namedview
     inkscape:window-maximized="0"
     inkscape:window-y="24"
     inkscape:window-x="0"
     inkscape:window-height="1056"
     inkscape:window-width="1920"
     showgrid="false"
     inkscape:document-rotation="0"
     inkscape:current-layer="layer1"
     inkscape:document-units="mm"
     inkscape:cy="329.36988"
     inkscape:cx="394.6152"
     inkscape:zoom="5.6221344"
     inkscape:pageshadow="2"
     inkscape:pageopacity="0.0"
     borderopacity="1.0"
     bordercolor="#666666"
     pagecolor="#ffffff"
     id="base"
     inkscape:snap-global="false"
     showguides="true"
     inkscape:guide-bbox="true">
    <sodipodi:guide
       position="50.854581,3.7008997"
       orientation="0,-1"
       id="guide12866" />
    <sodipodi:guide
       position="4.0575464,28.857687"
       orientation="1,0"
       id="guide12868" />
    <sodipodi:guide
       id="guide14636"
       orientation="0,-1"
       position="51.008617,12.243876" />
  </sodipodi:namedview>
  <metadata
     id="metadata1025">
    <rdf:RDF>
      <cc:Work
         rdf:about="">
        <dc:format>image/svg+xml</dc:format>
        <dc:type
           rdf:resource="http://purl.org/dc/dcmitype/StillImage" />
        <dc:title />
      </cc:Work>
    </rdf:RDF>
  </metadata>
  <g
     id="layer1"
     inkscape:groupmode="layer"
     inkscape:label="Layer 1">
    <path
       sodipodi:nodetypes="cscccscc"
       id="path10268-9-2-9"
       transform="matrix(0.90399936,0,0,0.90399936,4.2502782,8.430431)"
       d="m 44.273438,91.337891 c 0.927317,-6.1e-5 1.834408,-0.375423 2.490234,-1.03125 0.655827,-0.655826 1.031189,-1.562915 1.03125,-2.490235 -6.2e-5,-0.927318 -0.375424,-1.834406 -1.03125,-2.490234 m -2.490234,-1.03125 c -0.927321,6.1e-5 -1.834409,0.375424 -2.490235,1.03125 -0.655827,0.655826 -1.031189,1.562916 -1.03125,2.490234 6.1e-5,0.92732 0.375423,1.834409 1.03125,2.490235"
       style="display:inline;fill:none;stroke:#ff0000;stroke-width:0.20261" />
    <path
       style="fill:none;stroke:#ff0000;stroke-width:0.264583px;stroke-linecap:butt;stroke-linejoin:miter;stroke-opacity:1"
       d="m 21.052675,79.990195 c -6.30433,1.985939 -11.9011416,4.757598 -16.6614875,8.460881 -0.57546,0.450329 -0.261936,1.373919 0.46875,1.38086 l 5.8730475,0.04492 0.04492,5.582032 c 0.0038,0.424314 0.349107,0.766147 0.773437,0.765625 l 7.844274,-0.01977 m 4.650532,-0.01172 7.657538,-0.0193 c 0.423563,-0.0016 0.766826,-0.344021 0.769531,-0.767578 l 0.04883,-11.851562 h 3.06836 l 0.04883,11.851562 c 0.0027,0.424317 0.347159,0.767019 0.771484,0.767578 h 62.044677 m 4.650572,0 h 19.65046 c 0.42584,-5.72e-4 0.77091,-0.345643 0.77148,-0.771485 v -5.5625 l 4.77344,0.03711 0.0449,5.53125 c 0.004,0.422038 0.34553,0.762944 0.76758,0.765625 l 11.69531,0.05078 c 0.42737,0.0016 0.77482,-0.344115 0.77539,-0.771485 v -4.214843 c -2.7e-4,-0.287103 -0.15974,-0.550375 -0.41406,-0.683594 -5.30728,-2.774062 -13.07399,-6.186201 -25.74049,-9.024119 m -3.60167,-0.763615 C 98.660804,78.127554 80.679252,76.132064 55.660719,75.88467 h -0.0039 C 44.345402,75.706212 33.989711,76.581019 24.92631,78.889924"
       id="path25-2"
       sodipodi:nodetypes="ccccccccccccccccccccccccccccccc" />
    <path
       style="display:inline;fill:none;stroke:#ff0000;stroke-width:0.209343"
       d="m 114.32675,92.54135 c 0.82994,-5.4e-5 1.65517,-0.341437 2.24203,-0.928292 0.58685,-0.586854 0.92824,-1.412089 0.92829,-2.242028 3.6e-4,-0.830203 -0.3414,-1.654838 -0.92829,-2.242027 m -2.24203,-0.93031 c -0.8302,5.4e-5 -1.65513,0.34312 -2.24203,0.93031 -0.58689,0.587189 -0.92865,1.411824 -0.92829,2.242027 5e-5,0.829939 0.34144,1.655174 0.92829,2.242028"
       id="path10268-9-6-6-94"
       sodipodi:nodetypes="cscccscc" />
    <path
       sodipodi:nodetypes="ccccccccccscccccc"
       style="display:inline;fill:none;stroke:#00ff00;stroke-width:0.264583px;stroke-linecap:butt;stroke-linejoin:miter;stroke-opacity:1"
       d="m 105.62828,96.168754 17.06555,0.0048 c 0.44881,1.81e-4 0.81268,-0.363693 0.8125,-0.812499 V 89.73215 h 2.30302 c 3.29386,-0.1992 4.84235,-3.431924 1.35636,-5.010917 -4.35862,-1.611159 -13.71737,-3.662393 -19.85359,-4.762879 -11.528845,0.08818 -13.490839,16.202724 -1.68384,16.2104 z M 24.316739,79.04529 c -2.888779,0.7427 -3.87791,5.433372 8.078379,7.421624 l 0.01667,-2.95777 3.278436,0.0067 -0.0081,11.792513 c 0.002,0.44728 0.365211,0.808779 0.8125,0.808594 0,0 10.888851,7.41e-4 13.662816,0.0048 8.21881,0.551874 10.958731,-20.477538 -2.776299,-20.154114 -10.89574,0.290689 -18.511782,1.952141 -23.064402,3.077653 z"
       id="path17-3" />
  </g>
  <g
     sodipodi:insensitive="true"
     inkscape:groupmode="layer"
     id="layer2"
     inkscape:label="Gcode"
     style="display:inline;opacity:1">
    <g
       id="g183"
       transform="matrix(0.50142918,0,0,0.52018348,55.545677,120.45842)"
       gcodetools="Gcodetools tool definition">
      <path
         id="path101"
         d="M -20,-20 H 380 V 155 H -20 Z"
         style="fill-opacity:0.5;stroke:#444444"
         gcodetools="Gcodetools tool background" />
      <g
         id="g111"
         gcodetools="Gcodetools tool parameter">
        <text
           id="text105"
           gcodetools="Gcodetools tool definition field name"
           style="font-style:normal;font-variant:normal;font-weight:normal;font-stretch:normal;font-size:20px;font-family:'DejaVu Sans';fill:#000000;fill-opacity:1;stroke:none"
           y="0"
           xml:space="preserve"
           x="0"><tspan
             id="tspan103"
             sodipodi:role="line"
             y="0"
             x="0">name</tspan></text>
        <text
           id="text109"
           gcodetools="Gcodetools tool definition field value"
           style="font-style:normal;font-variant:normal;font-weight:normal;font-stretch:normal;font-size:20px;font-family:'DejaVu Sans';fill:#000000;fill-opacity:1;stroke:none"
           y="0"
           xml:space="preserve"
           x="150"><tspan
             id="tspan107"
             sodipodi:role="line"
             y="0"
             x="150">Cylindrical cutter</tspan></text>
      </g>
      <g
         id="g121"
         gcodetools="Gcodetools tool parameter">
        <text
           id="text115"
           gcodetools="Gcodetools tool definition field name"
           style="font-style:normal;font-variant:normal;font-weight:normal;font-stretch:normal;font-size:10px;font-family:'DejaVu Sans';fill:#000000;fill-opacity:1;stroke:none"
           y="20"
           xml:space="preserve"
           x="0"><tspan
             id="tspan113"
             sodipodi:role="line"
             y="20"
             x="0">id</tspan></text>
        <text
           id="text119"
           gcodetools="Gcodetools tool definition field value"
           style="font-style:normal;font-variant:normal;font-weight:normal;font-stretch:normal;font-size:10px;font-family:'DejaVu Sans';fill:#000000;fill-opacity:1;stroke:none"
           y="20"
           xml:space="preserve"
           x="150"><tspan
             id="tspan117"
             sodipodi:role="line"
             y="20"
             x="150">Cylindrical cutter 0001</tspan></text>
      </g>
      <g
         id="g131"
         gcodetools="Gcodetools tool parameter">
        <text
           id="text125"
           gcodetools="Gcodetools tool definition field name"
           style="font-style:normal;font-variant:normal;font-weight:normal;font-stretch:normal;font-size:10px;font-family:'DejaVu Sans';fill:#000000;fill-opacity:1;stroke:none"
           y="35"
           xml:space="preserve"
           x="0"><tspan
             id="tspan123"
             sodipodi:role="line"
             y="35"
             x="0">diameter</tspan></text>
        <text
           id="text129"
           gcodetools="Gcodetools tool definition field value"
           style="font-style:normal;font-variant:normal;font-weight:normal;font-stretch:normal;font-size:10px;font-family:'DejaVu Sans';fill:#000000;fill-opacity:1;stroke:none"
           y="35"
           xml:space="preserve"
           x="150"><tspan
             id="tspan127"
             sodipodi:role="line"
             y="35"
             x="150">10</tspan></text>
      </g>
      <g
         id="g141"
         gcodetools="Gcodetools tool parameter">
        <text
           id="text135"
           gcodetools="Gcodetools tool definition field name"
           style="font-style:normal;font-variant:normal;font-weight:normal;font-stretch:normal;font-size:10px;font-family:'DejaVu Sans';fill:#000000;fill-opacity:1;stroke:none"
           y="50"
           xml:space="preserve"
           x="0"><tspan
             id="tspan133"
             sodipodi:role="line"
             y="50"
             x="0">feed</tspan></text>
        <text
           id="text139"
           gcodetools="Gcodetools tool definition field value"
           style="font-style:normal;font-variant:normal;font-weight:normal;font-stretch:normal;font-size:10px;font-family:'DejaVu Sans';fill:#000000;fill-opacity:1;stroke:none"
           y="50"
           xml:space="preserve"
           x="150"><tspan
             id="tspan137"
             sodipodi:role="line"
             y="50"
             x="150">150</tspan></text>
      </g>
      <g
         id="g151"
         gcodetools="Gcodetools tool parameter">
        <text
           id="text145"
           gcodetools="Gcodetools tool definition field name"
           style="font-style:normal;font-variant:normal;font-weight:normal;font-stretch:normal;font-size:10px;font-family:'DejaVu Sans';fill:#000000;fill-opacity:1;stroke:none"
           y="65"
           xml:space="preserve"
           x="0"><tspan
             id="tspan143"
             sodipodi:role="line"
             y="65"
             x="0">penetration angle</tspan></text>
        <text
           id="text149"
           gcodetools="Gcodetools tool definition field value"
           style="font-style:normal;font-variant:normal;font-weight:normal;font-stretch:normal;font-size:10px;font-family:'DejaVu Sans';fill:#000000;fill-opacity:1;stroke:none"
           y="65"
           xml:space="preserve"
           x="150"><tspan
             id="tspan147"
             sodipodi:role="line"
             y="65"
             x="150">90</tspan></text>
      </g>
      <g
         id="g161"
         gcodetools="Gcodetools tool parameter">
        <text
           id="text155"
           gcodetools="Gcodetools tool definition field name"
           style="font-style:normal;font-variant:normal;font-weight:normal;font-stretch:normal;font-size:10px;font-family:'DejaVu Sans';fill:#000000;fill-opacity:1;stroke:none"
           y="80"
           xml:space="preserve"
           x="0"><tspan
             id="tspan153"
             sodipodi:role="line"
             y="80"
             x="0">penetration feed</tspan></text>
        <text
           id="text159"
           gcodetools="Gcodetools tool definition field value"
           style="font-style:normal;font-variant:normal;font-weight:normal;font-stretch:normal;font-size:10px;font-family:'DejaVu Sans';fill:#000000;fill-opacity:1;stroke:none"
           y="80"
           xml:space="preserve"
           x="150"><tspan
             id="tspan157"
             sodipodi:role="line"
             y="80"
             x="150">100</tspan></text>
      </g>
      <g
         id="g171"
         gcodetools="Gcodetools tool parameter">
        <text
           id="text165"
           gcodetools="Gcodetools tool definition field name"
           style="font-style:normal;font-variant:normal;font-weight:normal;font-stretch:normal;font-size:10px;font-family:'DejaVu Sans';fill:#000000;fill-opacity:1;stroke:none"
           y="95"
           xml:space="preserve"
           x="0"><tspan
             id="tspan163"
             sodipodi:role="line"
             y="95"
             x="0">depth step</tspan></text>
        <text
           id="text169"
           gcodetools="Gcodetools tool definition field value"
           style="font-style:normal;font-variant:normal;font-weight:normal;font-stretch:normal;font-size:10px;font-family:'DejaVu Sans';fill:#000000;fill-opacity:1;stroke:none"
           y="95"
           xml:space="preserve"
           x="150"><tspan
             id="tspan167"
             sodipodi:role="line"
             y="95"
             x="150">1</tspan></text>
      </g>
      <g
         id="g181"
         gcodetools="Gcodetools tool parameter">
        <text
           id="text175"
           gcodetools="Gcodetools tool definition field name"
           style="font-style:normal;font-variant:normal;font-weight:normal;font-stretch:normal;font-size:10px;font-family:'DejaVu Sans';fill:#000000;fill-opacity:1;stroke:none"
           y="110"
           xml:space="preserve"
           x="0"><tspan
             id="tspan173"
             sodipodi:role="line"
             y="110"
             x="0">tool change gcode</tspan></text>
        <text
           id="text179"
           gcodetools="Gcodetools tool definition field value"
           style="font-style:normal;font-variant:normal;font-weight:normal;font-stretch:normal;font-size:10px;font-family:'DejaVu Sans';fill:#000000;fill-opacity:1;stroke:none"
           y="110"
           xml:space="preserve"
           x="150"><tspan
             id="tspan177"
             sodipodi:role="line"
             y="110"
             x="150">(None)</tspan></text>
      </g>
    </g>
    <g
       id="g296"
       gcodetools="Gcodetools orientation group">
      <g
         id="g286"
         gcodetools="Gcodetools orientation point (2 points)">
        <path
           id="path280"
           d="M 0,100 2.9375,93.65625 3.75,95.5625 10.59375,88.71875 v 0 l 0.6875,0.6875 L 4.4375,96.25 6.34375,97.0625 Z"
           gcodetools="Gcodetools orientation point arrow"
           style="fill:#000000;stroke:none" />
        <text
           id="text284"
           gcodetools="Gcodetools orientation point text"
           style="font-style:normal;font-variant:normal;font-weight:normal;font-stretch:normal;font-size:10px;font-family:'DejaVu Sans';fill:#000000;fill-opacity:1;stroke:none"
           y="90"
           xml:space="preserve"
           x="10"><tspan
             id="tspan282"
             sodipodi:role="line"
             y="90"
             x="10">(0.0; 0.0; 0.0)</tspan></text>
      </g>
      <g
         id="g294"
         gcodetools="Gcodetools orientation point (2 points)">
        <path
           id="path288"
           d="m 100,100 2.9375,-6.34375 0.8125,1.90625 6.84375,-6.84375 v 0 l 0.6875,0.6875 -6.84375,6.84375 1.90625,0.8125 z"
           gcodetools="Gcodetools orientation point arrow"
           style="fill:#000000;stroke:none" />
        <text
           id="text292"
           gcodetools="Gcodetools orientation point text"
           style="font-style:normal;font-variant:normal;font-weight:normal;font-stretch:normal;font-size:10px;font-family:'DejaVu Sans';fill:#000000;fill-opacity:1;stroke:none"
           y="90"
           xml:space="preserve"
           x="110"><tspan
             id="tspan290"
             sodipodi:role="line"
             y="90"
             x="110">(100.0; 0.0; -1.8)</tspan></text>
      </g>
    </g>
  </g>
</svg>
