<?xml version="1.0" encoding="UTF-8" standalone="no"?>
<svg
   xmlns:dc="http://purl.org/dc/elements/1.1/"
   xmlns:cc="http://creativecommons.org/ns#"
   xmlns:rdf="http://www.w3.org/1999/02/22-rdf-syntax-ns#"
   xmlns:svg="http://www.w3.org/2000/svg"
   xmlns="http://www.w3.org/2000/svg"
   xmlns:sodipodi="http://sodipodi.sourceforge.net/DTD/sodipodi-0.dtd"
   xmlns:inkscape="http://www.inkscape.org/namespaces/inkscape"
   sodipodi:docname="W8 and centre gussets.svg"
   inkscape:version="1.0 (4035a4f, 2020-05-01)"
   width="290mm"
   height="100mm"
   viewBox="0 0 290 100"
   version="1.1"
   id="svg1028">
  <defs
     id="defs1022">
    <marker
       style="overflow:visible"
       refY="-1.687441"
       refX="-4"
       orient="auto"
       id="CheckToolsAndOPMarker">
      <path
         id="path309"
         style="fill:#000044;fill-rule:evenodd;stroke:none"
         d="m 4.588864,-1.687441 0.0,0.0 L 9.177728,0.0 c -0.73311,-0.996261 -0.728882,-2.359329 0.0,-3.374882" />
    </marker>
    <marker
       style="overflow:visible"
       refY="-1.687441"
       refX="-4"
       orient="auto"
       id="DrawCurveMarker">
      <path
         id="path312"
         style="fill:#000044;fill-rule:evenodd;stroke:none"
         d="m 4.588864,-1.687441 0.0,0.0 L 9.177728,0.0 c -0.73311,-0.996261 -0.728882,-2.359329 0.0,-3.374882" />
    </marker>
    <marker
       style="overflow:visible"
       refY="-1.687441"
       refX="4"
       orient="auto"
       id="DrawCurveMarker_r">
      <path
         id="path315"
         style="fill:#000044;fill-rule:evenodd;stroke:none"
         d="m -4.588864,-1.687441 0.0,0.0 L -9.177728,0.0 c 0.73311,-0.996261 0.728882,-2.359329 0.0,-3.374882" />
    </marker>
    <marker
       style="overflow:visible"
       refY="-1.687441"
       refX="-4"
       orient="auto"
       id="InOutPathMarker">
      <path
         id="path318"
         style="fill:#0072a7;fill-rule:evenodd;stroke:none"
         d="m 4.588864,-1.687441 0.0,0.0 L 9.177728,0.0 c -0.73311,-0.996261 -0.728882,-2.359329 0.0,-3.374882" />
    </marker>
  </defs>
  <sodipodi:namedview
     inkscape:snap-global="false"
     inkscape:window-maximized="0"
     inkscape:window-y="23"
     inkscape:window-x="334"
     inkscape:window-height="810"
     inkscape:window-width="1531"
     showgrid="false"
     inkscape:document-rotation="0"
     inkscape:current-layer="layer1"
     inkscape:document-units="mm"
     inkscape:cy="254.61319"
     inkscape:cx="322.28834"
     inkscape:zoom="1.5843058"
     inkscape:pageshadow="2"
     inkscape:pageopacity="0.0"
     borderopacity="1.0"
     bordercolor="#666666"
     pagecolor="#ffffff"
     id="base"
     showguides="true"
     inkscape:guide-bbox="true">
    <sodipodi:guide
       position="3.4344772,23.348713"
       orientation="1,0"
       id="guide5020" />
    <sodipodi:guide
       position="47.614344,3.5224125"
       orientation="0,-1"
       id="guide5022" />
  </sodipodi:namedview>
  <metadata
     id="metadata1025">
    <rdf:RDF>
      <cc:Work
         rdf:about="">
        <dc:format>image/svg+xml</dc:format>
        <dc:type
           rdf:resource="http://purl.org/dc/dcmitype/StillImage" />
        <dc:title></dc:title>
      </cc:Work>
    </rdf:RDF>
  </metadata>
  <g
     id="layer1"
     inkscape:groupmode="layer"
     inkscape:label="Layer 1">
    <path
       style="fill:none;stroke:#ff0000;stroke-width:0.264583px;stroke-linecap:butt;stroke-linejoin:miter;stroke-opacity:1"
       d="m 21.654981,96.338167 h 7.039668 c 0.909467,1.2e-5 1.645829,-0.738977 1.642578,-1.648438 l -0.04102,-10.953125 h 4.640624 l -0.01953,10.978516 c -0.0022,0.908699 0.733877,1.646493 1.642578,1.646484 l 67.522521,-0.01888 m 4.05893,-0.0011 12.26812,-0.0034 c 0.90717,8e-6 1.64259,-0.735404 1.64258,-1.642579 v -4.658203 l 7.85742,-0.06055 c 0.89956,-0.0064 1.62661,-0.735196 1.63086,-1.634765 l 0.002,-0.419922 c 0.003,-0.711015 -0.45187,-1.343216 -1.12695,-1.566406 C 120.38248,83.041813 100.26805,78.311987 78.77338,75.880956 M 75.51655,75.531639 C 67.909246,74.760733 60.185212,74.304962 52.723948,74.304962 h -0.0078 c -15.726805,-0.06144 -26.535496,2.259814 -34.113281,5.050781 -1.41818,0.522328 -2.725292,1.062607 -3.92991,1.606003 m -3.933106,1.957402 C 7.6998469,84.57888 5.5658739,86.09302 4.0735732,87.00418 c -1.414494,0.862612 -0.807152,3.039267 0.8496097,3.044922 l 5.023434,0.01758 -0.01758,4.623047 c -0.0033,0.909461 0.7331111,1.64845 1.6425781,1.648438 h 6.180564"
       id="path28"
       sodipodi:nodetypes="cccccccccccccsccccscscccccccc" />
    <path
       id="path5708"
       style="display:inline;opacity:1;fill:none;stroke:#ff0000;stroke-width:0.264583px;stroke-linecap:butt;stroke-linejoin:miter;stroke-opacity:1"
       d="m 8.819177,66.558388 -4.972215,3.229436 c -0.662091,0.433477 -0.359704,1.462415 0.431641,1.468749 l 61.382813,0.341797 c 0.155919,7.94e-4 0.308669,-0.04402 0.43946,-0.128905 l 5.97834,-3.887629 m 2.319919,-1.508609 12.085299,-7.858887 m 2.929413,-1.90495 3.0757,-2.000083 c 0.39937,-0.260032 0.48411,-0.809453 0.18164,-1.177734 l -1.23047,-1.496092 c -0.11019,-0.134091 -0.261,-0.228695 -0.42969,-0.269531 -9.585881,-2.317819 -19.504613,-3.760568 -29.857423,-4.046876 -3.450928,-0.09544 -6.951189,-0.06269 -10.50195,0.109376 -4.73433,0.229423 -9.559618,0.705318 -14.486329,1.453123 -0.112908,0.0173 -0.220797,0.0586 -0.316407,0.121095 l -3.867301,2.511798 m -2.607826,1.693775 -18.33332,11.907425"
       sodipodi:nodetypes="cccccccccccccssccccc" />
    <path
       style="display:inline;opacity:1;fill:none;stroke:#ff0000;stroke-width:0.264583px;stroke-linecap:butt;stroke-linejoin:miter;stroke-opacity:1"
       d="m 113.43607,56.195565 -7.93197,-0.102854 c -0.67636,-0.0098 -1.05835,0.77261 -0.63459,1.299853 l 5.5751,6.949385 m 1.77145,2.208107 1.50959,1.881718 c 0.29973,0.373557 0.85846,0.401433 1.19388,0.05957 L 125.5357,57.704608 c 0.4932,-0.501794 0.14422,-1.349997 -0.55931,-1.359423 l -8.93552,-0.115851"
       id="path5712"
       sodipodi:nodetypes="cccccccccc" />
    <path
       sodipodi:nodetypes="ccccccccccc"
       d="m 97.938051,60.718058 -1.34553,-1.21556 c -0.15128,-0.136903 -0.34873,-0.211555 -0.55274,-0.208983 -0.19382,0.0024 -0.38027,0.07463 -0.52539,0.203123 l -14.130863,12.54297 c -0.557199,0.493067 -0.20888,1.413454 0.53516,1.414063 l 2.54703,0.0088 m 2.237031,0.0078 23.339011,0.08105 c 0.74034,5.3e-4 1.09204,-0.911587 0.54297,-1.408202 l -10.06515,-9.092883"
       style="display:inline;opacity:1;fill:none;stroke:#ff0000;stroke-width:0.264583px;stroke-linecap:butt;stroke-linejoin:miter;stroke-opacity:1"
       id="path5710-0" />
    <path
       sodipodi:nodetypes="cccccccccccccssccccc"
       d="m 9.2312933,38.756125 -4.972215,3.229436 c -0.662091,0.433477 -0.359704,1.462415 0.431641,1.468749 l 61.3828127,0.341797 c 0.155919,7.94e-4 0.308668,-0.04402 0.43946,-0.128905 l 5.97834,-3.887629 m 2.319919,-1.508609 12.085299,-7.858887 m 2.929414,-1.90495 3.075699,-2.000083 c 0.39937,-0.260032 0.484111,-0.809453 0.181639,-1.177734 L 91.852834,23.833218 C 91.742643,23.699127 91.591833,23.604523 91.423142,23.563687 81.837262,21.245868 71.91853,19.803119 61.56572,19.516811 c -3.450929,-0.09544 -6.951189,-0.06269 -10.50195,0.109376 -4.73433,0.229423 -9.559618,0.705318 -14.486329,1.453123 -0.112908,0.0173 -0.220798,0.0586 -0.316407,0.121095 l -3.867301,2.511798 m -2.607826,1.693775 -18.33332,11.907425"
       style="display:inline;opacity:1;fill:none;stroke:#ff0000;stroke-width:0.264583px;stroke-linecap:butt;stroke-linejoin:miter;stroke-opacity:1"
       id="path5708-6" />
    <path
       sodipodi:nodetypes="cccccccccc"
       id="path5712-2"
       d="m 113.14106,28.090249 -7.93197,-0.102854 c -0.67636,-0.0098 -1.05835,0.77261 -0.63459,1.299853 l 5.57511,6.949385 m 1.77144,2.208107 1.5096,1.881718 c 0.29972,0.373557 0.85845,0.401433 1.19387,0.05957 L 125.2407,29.599292 c 0.49319,-0.501794 0.14421,-1.349997 -0.55932,-1.359423 l -8.93552,-0.115851"
       style="display:inline;opacity:1;fill:none;stroke:#ff0000;stroke-width:0.264583px;stroke-linecap:butt;stroke-linejoin:miter;stroke-opacity:1" />
    <path
       id="path5710-0-8"
       style="display:inline;opacity:1;fill:none;stroke:#ff0000;stroke-width:0.264583px;stroke-linecap:butt;stroke-linejoin:miter;stroke-opacity:1"
       d="M 96.911438,32.98178 95.56591,31.76622 c -0.151281,-0.136903 -0.348731,-0.211555 -0.552741,-0.208983 -0.19382,0.0024 -0.38027,0.07463 -0.525391,0.203123 L 80.356917,44.30333 c -0.5572,0.493067 -0.208881,1.413454 0.535159,1.414063 l 2.54703,0.0088 m 2.237031,0.0078 23.339013,0.08105 c 0.74035,5.29e-4 1.09205,-0.911587 0.54297,-1.408202 L 99.492967,35.313958"
       sodipodi:nodetypes="ccccccccccc" />
  </g>
  <g
     sodipodi:insensitive="true"
     inkscape:groupmode="layer"
     id="layer2"
     inkscape:label="Gcode"
     style="display:inline;opacity:1">
    <g
       id="g183"
       transform="matrix(0.50142918,0,0,0.52018348,55.545677,120.45842)"
       gcodetools="Gcodetools tool definition">
      <path
         id="path101"
         d="M -20,-20 H 380 V 155 H -20 Z"
         style="fill-opacity:0.5;stroke:#444444"
         gcodetools="Gcodetools tool background" />
      <g
         id="g111"
         gcodetools="Gcodetools tool parameter">
        <text
           id="text105"
           gcodetools="Gcodetools tool definition field name"
           style="font-style:normal;font-variant:normal;font-weight:normal;font-stretch:normal;font-size:20px;font-family:'DejaVu Sans';fill:#000000;fill-opacity:1;stroke:none"
           y="0"
           xml:space="preserve"
           x="0"><tspan
             id="tspan103"
             sodipodi:role="line"
             y="0"
             x="0">name</tspan></text>
        <text
           id="text109"
           gcodetools="Gcodetools tool definition field value"
           style="font-style:normal;font-variant:normal;font-weight:normal;font-stretch:normal;font-size:20px;font-family:'DejaVu Sans';fill:#000000;fill-opacity:1;stroke:none"
           y="0"
           xml:space="preserve"
           x="150"><tspan
             id="tspan107"
             sodipodi:role="line"
             y="0"
             x="150">Cylindrical cutter</tspan></text>
      </g>
      <g
         id="g121"
         gcodetools="Gcodetools tool parameter">
        <text
           id="text115"
           gcodetools="Gcodetools tool definition field name"
           style="font-style:normal;font-variant:normal;font-weight:normal;font-stretch:normal;font-size:10px;font-family:'DejaVu Sans';fill:#000000;fill-opacity:1;stroke:none"
           y="20"
           xml:space="preserve"
           x="0"><tspan
             id="tspan113"
             sodipodi:role="line"
             y="20"
             x="0">id</tspan></text>
        <text
           id="text119"
           gcodetools="Gcodetools tool definition field value"
           style="font-style:normal;font-variant:normal;font-weight:normal;font-stretch:normal;font-size:10px;font-family:'DejaVu Sans';fill:#000000;fill-opacity:1;stroke:none"
           y="20"
           xml:space="preserve"
           x="150"><tspan
             id="tspan117"
             sodipodi:role="line"
             y="20"
             x="150">Cylindrical cutter 0001</tspan></text>
      </g>
      <g
         id="g131"
         gcodetools="Gcodetools tool parameter">
        <text
           id="text125"
           gcodetools="Gcodetools tool definition field name"
           style="font-style:normal;font-variant:normal;font-weight:normal;font-stretch:normal;font-size:10px;font-family:'DejaVu Sans';fill:#000000;fill-opacity:1;stroke:none"
           y="35"
           xml:space="preserve"
           x="0"><tspan
             id="tspan123"
             sodipodi:role="line"
             y="35"
             x="0">diameter</tspan></text>
        <text
           id="text129"
           gcodetools="Gcodetools tool definition field value"
           style="font-style:normal;font-variant:normal;font-weight:normal;font-stretch:normal;font-size:10px;font-family:'DejaVu Sans';fill:#000000;fill-opacity:1;stroke:none"
           y="35"
           xml:space="preserve"
           x="150"><tspan
             id="tspan127"
             sodipodi:role="line"
             y="35"
             x="150">10</tspan></text>
      </g>
      <g
         id="g141"
         gcodetools="Gcodetools tool parameter">
        <text
           id="text135"
           gcodetools="Gcodetools tool definition field name"
           style="font-style:normal;font-variant:normal;font-weight:normal;font-stretch:normal;font-size:10px;font-family:'DejaVu Sans';fill:#000000;fill-opacity:1;stroke:none"
           y="50"
           xml:space="preserve"
           x="0"><tspan
             id="tspan133"
             sodipodi:role="line"
             y="50"
             x="0">feed</tspan></text>
        <text
           id="text139"
           gcodetools="Gcodetools tool definition field value"
           style="font-style:normal;font-variant:normal;font-weight:normal;font-stretch:normal;font-size:10px;font-family:'DejaVu Sans';fill:#000000;fill-opacity:1;stroke:none"
           y="50"
           xml:space="preserve"
           x="150"><tspan
             id="tspan137"
             sodipodi:role="line"
             y="50"
             x="150">150</tspan></text>
      </g>
      <g
         id="g151"
         gcodetools="Gcodetools tool parameter">
        <text
           id="text145"
           gcodetools="Gcodetools tool definition field name"
           style="font-style:normal;font-variant:normal;font-weight:normal;font-stretch:normal;font-size:10px;font-family:'DejaVu Sans';fill:#000000;fill-opacity:1;stroke:none"
           y="65"
           xml:space="preserve"
           x="0"><tspan
             id="tspan143"
             sodipodi:role="line"
             y="65"
             x="0">penetration angle</tspan></text>
        <text
           id="text149"
           gcodetools="Gcodetools tool definition field value"
           style="font-style:normal;font-variant:normal;font-weight:normal;font-stretch:normal;font-size:10px;font-family:'DejaVu Sans';fill:#000000;fill-opacity:1;stroke:none"
           y="65"
           xml:space="preserve"
           x="150"><tspan
             id="tspan147"
             sodipodi:role="line"
             y="65"
             x="150">90</tspan></text>
      </g>
      <g
         id="g161"
         gcodetools="Gcodetools tool parameter">
        <text
           id="text155"
           gcodetools="Gcodetools tool definition field name"
           style="font-style:normal;font-variant:normal;font-weight:normal;font-stretch:normal;font-size:10px;font-family:'DejaVu Sans';fill:#000000;fill-opacity:1;stroke:none"
           y="80"
           xml:space="preserve"
           x="0"><tspan
             id="tspan153"
             sodipodi:role="line"
             y="80"
             x="0">penetration feed</tspan></text>
        <text
           id="text159"
           gcodetools="Gcodetools tool definition field value"
           style="font-style:normal;font-variant:normal;font-weight:normal;font-stretch:normal;font-size:10px;font-family:'DejaVu Sans';fill:#000000;fill-opacity:1;stroke:none"
           y="80"
           xml:space="preserve"
           x="150"><tspan
             id="tspan157"
             sodipodi:role="line"
             y="80"
             x="150">100</tspan></text>
      </g>
      <g
         id="g171"
         gcodetools="Gcodetools tool parameter">
        <text
           id="text165"
           gcodetools="Gcodetools tool definition field name"
           style="font-style:normal;font-variant:normal;font-weight:normal;font-stretch:normal;font-size:10px;font-family:'DejaVu Sans';fill:#000000;fill-opacity:1;stroke:none"
           y="95"
           xml:space="preserve"
           x="0"><tspan
             id="tspan163"
             sodipodi:role="line"
             y="95"
             x="0">depth step</tspan></text>
        <text
           id="text169"
           gcodetools="Gcodetools tool definition field value"
           style="font-style:normal;font-variant:normal;font-weight:normal;font-stretch:normal;font-size:10px;font-family:'DejaVu Sans';fill:#000000;fill-opacity:1;stroke:none"
           y="95"
           xml:space="preserve"
           x="150"><tspan
             id="tspan167"
             sodipodi:role="line"
             y="95"
             x="150">1</tspan></text>
      </g>
      <g
         id="g181"
         gcodetools="Gcodetools tool parameter">
        <text
           id="text175"
           gcodetools="Gcodetools tool definition field name"
           style="font-style:normal;font-variant:normal;font-weight:normal;font-stretch:normal;font-size:10px;font-family:'DejaVu Sans';fill:#000000;fill-opacity:1;stroke:none"
           y="110"
           xml:space="preserve"
           x="0"><tspan
             id="tspan173"
             sodipodi:role="line"
             y="110"
             x="0">tool change gcode</tspan></text>
        <text
           id="text179"
           gcodetools="Gcodetools tool definition field value"
           style="font-style:normal;font-variant:normal;font-weight:normal;font-stretch:normal;font-size:10px;font-family:'DejaVu Sans';fill:#000000;fill-opacity:1;stroke:none"
           y="110"
           xml:space="preserve"
           x="150"><tspan
             id="tspan177"
             sodipodi:role="line"
             y="110"
             x="150">(None)</tspan></text>
      </g>
    </g>
    <g
       id="g296"
       gcodetools="Gcodetools orientation group">
      <g
         id="g286"
         gcodetools="Gcodetools orientation point (2 points)">
        <path
           id="path280"
           d="M 0,100 2.9375,93.65625 3.75,95.5625 10.59375,88.71875 v 0 l 0.6875,0.6875 L 4.4375,96.25 6.34375,97.0625 Z"
           gcodetools="Gcodetools orientation point arrow"
           style="fill:#000000;stroke:none" />
        <text
           id="text284"
           gcodetools="Gcodetools orientation point text"
           style="font-style:normal;font-variant:normal;font-weight:normal;font-stretch:normal;font-size:10px;font-family:'DejaVu Sans';fill:#000000;fill-opacity:1;stroke:none"
           y="90"
           xml:space="preserve"
           x="10"><tspan
             id="tspan282"
             sodipodi:role="line"
             y="90"
             x="10">(0.0; 0.0; 0.0)</tspan></text>
      </g>
      <g
         id="g294"
         gcodetools="Gcodetools orientation point (2 points)">
        <path
           id="path288"
           d="m 100,100 2.9375,-6.34375 0.8125,1.90625 6.84375,-6.84375 v 0 l 0.6875,0.6875 -6.84375,6.84375 1.90625,0.8125 z"
           gcodetools="Gcodetools orientation point arrow"
           style="fill:#000000;stroke:none" />
        <text
           id="text292"
           gcodetools="Gcodetools orientation point text"
           style="font-style:normal;font-variant:normal;font-weight:normal;font-stretch:normal;font-size:10px;font-family:'DejaVu Sans';fill:#000000;fill-opacity:1;stroke:none"
           y="90"
           xml:space="preserve"
           x="110"><tspan
             id="tspan290"
             sodipodi:role="line"
             y="90"
             x="110">(100.0; 0.0; -6.55)</tspan></text>
      </g>
    </g>
  </g>
</svg>
